<svg xmlns="http://www.w3.org/2000/svg" width="18" height="18" viewBox="0 0 18 18"><defs><linearGradient id="a" x1="306.077" y1="-363.569" x2="305.834" y2="-351.67" gradientTransform="matrix(1 0 0 -1 -297 -351)" gradientUnits="userSpaceOnUse"><stop offset="0" stop-color="#2889e0"/><stop offset="1" stop-color="#50e6ff"/></linearGradient><linearGradient id="b" x1="310.996" y1="-367.576" x2="305.457" y2="-357.862" gradientTransform="matrix(1 0 0 -1 -297 -351)" gradientUnits="userSpaceOnUse"><stop offset="0" stop-color="#704cb3"/><stop offset="1" stop-color="#c398e9"/></linearGradient></defs><path d="M17.85 9.71c-.545 1.979-1.868 2.634-3.293 3.239a1.825 1.825 0 01-.694.119H7.714c-1.159 0-2.923-.019-3.747-.028a1.946 1.946 0 01-.875-.2A5 5 0 01.153 8.83C.071 8.1-.106 5.123 4.239 3.977A5.33 5.33 0 019.307.68a5.045 5.045 0 015.068 4.73c1.448.29 3.765 1.72 3.475 4.3z" fill="url(#a)"/><path d="M16.764 11.866a5.454 5.454 0 11-5.454-5.454 5.454 5.454 0 015.454 5.454z" fill="#fff"/><path d="M11.31 16.6a4.736 4.736 0 10-4.736-4.736A4.736 4.736 0 0011.31 16.6zm0 .717a5.454 5.454 0 10-5.453-5.453 5.453 5.453 0 005.453 5.453z" fill-rule="evenodd" fill="url(#b)"/><path d="M13.332 10.9a1.127 1.127 0 00-1.124 1.129 2.39 2.39 0 11-4.082-1.693 2.371 2.371 0 011.405-.689v.57a1.835 1.835 0 102.114 1.812 1.687 1.687 0 013.368-.141h-.565a1.127 1.127 0 00-1.116-.988z" fill="#417be9"/><path d="M11.976 13.061a2.391 2.391 0 11-2.445-3.413v.57a1.835 1.835 0 102.114 1.812 1.7 1.7 0 01.338-1.017A1.686 1.686 0 0115 11.8c0 .031.007.062.01.093h-.565a1.124 1.124 0 00-2.24.141 2.4 2.4 0 01-.232 1.031zM9.593 9.578a.1.1 0 01.031.07v.57a.092.092 0 01-.078.091 1.743 1.743 0 00.272 3.463 1.7 1.7 0 00.809-.2 1.742 1.742 0 00.926-1.541 1.779 1.779 0 013.552-.149.091.091 0 01-.084.1h-.573a.092.092 0 01-.092-.081 1.032 1.032 0 00-2.056.13 2.482 2.482 0 11-4.24-1.759 2.474 2.474 0 011.46-.715.094.094 0 01.073.023z" fill="#417be9" fill-rule="evenodd"/><path d="M13.317 13.77a1.667 1.667 0 01-.777-.192l.287-.516a1.111 1.111 0 00.49.114 1.153 1.153 0 001.11-.89h.586a1.739 1.739 0 01-1.696 1.484z" fill="#1453c8"/><path d="M12.451 13.6a.092.092 0 01.008-.071l.287-.515a.093.093 0 01.122-.039 1.018 1.018 0 00.45.105 1.063 1.063 0 001.02-.82.092.092 0 01.09-.071h.585a.093.093 0 01.093.093.077.077 0 010 .015 1.83 1.83 0 01-1.786 1.561 1.75 1.75 0 01-.821-.2.1.1 0 01-.048-.058zM15 12.379a1.733 1.733 0 01-1.677 1.391 1.674 1.674 0 01-.778-.192l.287-.516a1.113 1.113 0 00.491.114 1.155 1.155 0 001.11-.89h.585q-.013.047-.018.093z" fill="#1453c8" fill-rule="evenodd"/><path d="M11.3 10.967a1.891 1.891 0 00-.356-.359 1.927 1.927 0 00-1.044-.393v-.567a2.533 2.533 0 011.157.35 2.478 2.478 0 01.656.566z" fill="#88aef1"/><path d="M11.289 11.059a.092.092 0 01-.066-.036 1.738 1.738 0 00-.339-.341 1.818 1.818 0 00-.989-.374.094.094 0 01-.086-.093v-.567a.093.093 0 01.091-.093h.006a2.623 2.623 0 011.2.364 2.56 2.56 0 01.681.587.091.091 0 01-.008.125l-.418.4a.094.094 0 01-.072.025zm-.05-.165l.058.073.418-.4A2.5 2.5 0 009.9 9.648v.567a1.911 1.911 0 011.337.679z" fill="#88aef1" fill-rule="evenodd"/></svg>