<svg xmlns="http://www.w3.org/2000/svg" width="18" height="18" viewBox="0 0 18 18"><defs><linearGradient id="a" x1="149.824" y1="-352.541" x2="159.281" y2="-364.466" gradientTransform="matrix(1 0 0 -1 -145 -351)" gradientUnits="userSpaceOnUse"><stop offset="0" stop-color="#59b8ff"/><stop offset="1" stop-color="#508dfa"/></linearGradient><linearGradient id="b" x1="161.576" y1="-367.038" x2="148.34" y2="-351.351" gradientTransform="matrix(1 0 0 -1 -145 -351)" gradientUnits="userSpaceOnUse"><stop offset="0" stop-color="#648efa"/><stop offset="1" stop-color="#79cfff"/></linearGradient></defs><path d="M15.926 8.436c0 4.572-5.5 8.253-6.7 9a.431.431 0 01-.456 0c-1.2-.746-6.7-4.427-6.7-9v-5.5A.435.435 0 012.5 2.5c4.28-.114 3.294-2 6.5-2s2.221 1.889 6.5 2a.435.435 0 01.425.436v5.5z" fill="url(#a)"/><path d="M15.352 8.487c0 4.192-5.046 7.568-6.143 8.253a.394.394 0 01-.418 0c-1.1-.685-6.143-4.063-6.143-8.253V3.442a.4.4 0 01.39-.4C6.963 2.936 6.059 1.206 9 1.206s2.037 1.73 5.962 1.836a.4.4 0 01.276.121.4.4 0 01.114.279v5.045z" fill="url(#b)"/><path d="M8.119 6.48V4.719a.378.378 0 00-.378-.378H5.726a.378.378 0 00-.378.378v1.908a.378.378 0 00.378.378h1.867a.274.274 0 01.274.273v2.549a.2.2 0 01-.072.16.318.318 0 01-.2.063H5.726a.378.378 0 00-.378.378v2.035a.378.378 0 00.378.378h2.015a.378.378 0 00.378-.378v-1.887a.273.273 0 01.274-.273H11.1a.378.378 0 00.378-.378V7.278a.273.273 0 01.274-.273h1.027a.378.378 0 00.378-.378v-1.1a.378.378 0 00-.378-.378H11.6a.377.377 0 00-.377.378v.953a.274.274 0 01-.274.273H8.393a.274.274 0 01-.274-.273z" fill="#fff"/><path d="M7.741 12.967H5.726a.5.5 0 01-.5-.5v-2.04a.5.5 0 01.5-.5h1.867a.187.187 0 00.123-.035.072.072 0 00.025-.062V7.278a.147.147 0 00-.148-.147H5.726a.5.5 0 01-.5-.5V4.718a.5.5 0 01.5-.5h2.016a.5.5 0 01.5.5V6.48a.147.147 0 00.147.147h2.561a.148.148 0 00.15-.147v-.958a.5.5 0 01.5-.5h1.175a.5.5 0 01.5.5v1.1a.505.505 0 01-.5.5h-1.024a.147.147 0 00-.148.147v2.656a.5.5 0 01-.5.5H8.392a.147.147 0 00-.147.147v1.887a.5.5 0 01-.504.508zm-2.015-2.791a.252.252 0 00-.252.251v2.036a.252.252 0 00.252.252h2.015a.252.252 0 00.252-.252v-1.887a.4.4 0 01.4-.4H11.1a.251.251 0 00.251-.252V7.278a.4.4 0 01.4-.4h1.027a.252.252 0 00.251-.252v-1.1a.252.252 0 00-.251-.251H11.6a.252.252 0 00-.252.251v.954a.4.4 0 01-.4.4H8.392a.4.4 0 01-.4-.4V4.719a.241.241 0 00-.073-.178.246.246 0 00-.178-.074H5.726a.252.252 0 00-.252.251v1.909a.252.252 0 00.252.252h1.867a.4.4 0 01.4.4v2.548a.325.325 0 01-.116.256.448.448 0 01-.284.093z" fill="#5191fb"/></svg>