<svg xmlns="http://www.w3.org/2000/svg" width="18" height="18" viewBox="0 0 18 18"><defs><linearGradient id="a" x1="196.184" y1="-363.507" x2="191.634" y2="-354.877" gradientTransform="matrix(1 0 0 -1 -183 -351)" gradientUnits="userSpaceOnUse"><stop offset="0" stop-color="#1988d9"/><stop offset=".9" stop-color="#54aef0"/></linearGradient><linearGradient id="b" x1="194.222" y1="-360.998" x2="197.372" y2="-366.428" gradientTransform="matrix(1 0 0 -1 -183 -351)" gradientUnits="userSpaceOnUse"><stop offset=".1" stop-color="#54aef0"/><stop offset=".29" stop-color="#4fabee"/><stop offset=".51" stop-color="#41a2e9"/><stop offset=".74" stop-color="#2a93e0"/><stop offset=".88" stop-color="#1988d9"/></linearGradient></defs><path d="M1.15 9.719l7.78 5.05 7.92-5.06 1 1.15-8.92 5.75-8.78-5.74z" fill="#50e6ff"/><path d="M1.73 9.079L8.93.5l7.35 8.59-7.35 4.64z" fill="#fff"/><path d="M8.93.5v13.23l-7.2-4.65z" fill="#50e6ff"/><path d="M8.93.5v13.23l7.35-4.64z" fill="url(#a)"/><path d="M8.93 7.329l7.35 1.76-7.35 4.64z" fill="#53b1e0"/><path d="M8.93 13.729l-7.2-4.65 7.2-1.75z" fill="#9cebff"/><path d="M8.93 16.609l8.92-5.75-1-1.15-7.92 5.06z" fill="url(#b)"/><path d="M16.32 11.379a1.159 1.159 0 00.01-1.64l-.01-.01-2-2a1.159 1.159 0 00-1.64 0l-2 2a1.181 1.181 0 000 1.65l1.67 1.67a.318.318 0 01.09.23v3.1a.362.362 0 00.12.28l.76.76a.25.25 0 00.353.017l.017-.017.73-.73.44-.44a.15.15 0 000-.21l-.31-.31a.16.16 0 01-.014-.226l.014-.014.31-.31a.161.161 0 000-.22l-.31-.31a.149.149 0 01-.019-.211.17.17 0 01.019-.019l.31-.32a.15.15 0 000-.21l-.44-.44v-.16zm-2.82-3.17a.66.66 0 11-.66.66.66.66 0 01.66-.66z" fill="#ffca00"/><path d="M13 16.5a.14.14 0 00.24-.11v-2.56a.161.161 0 00-.06-.13.14.14 0 00-.2.033.141.141 0 00-.025.1v2.51A.149.149 0 0013 16.5z" fill="#ff9300" opacity=".75"/><rect x="11.9" y="10.399" width="3.29" height=".39" rx=".18" fill="#ff9300" opacity=".75"/><rect x="11.9" y="11.029" width="3.29" height=".39" rx=".18" fill="#ff9300" opacity=".75"/></svg>