<svg xmlns="http://www.w3.org/2000/svg" width="18" height="18" viewBox="0 0 18 18"><defs><linearGradient id="a" x1="9" y1=".199" x2="9" y2="15.707" gradientUnits="userSpaceOnUse"><stop offset=".117" stop-color="#5ea0ef"/><stop offset=".271" stop-color="#4595e8"/><stop offset=".531" stop-color="#1f85dd"/><stop offset=".741" stop-color="#087cd6"/><stop offset=".873" stop-color="#0078d4"/></linearGradient></defs><path d="M14.506 7.464a5.158 5.158 0 00-5.294-4.871 5.308 5.308 0 00-4.977 3.388A4.97 4.97 0 000 10.64a4.884 4.884 0 005 4.768h8.98A4.024 4.024 0 0018 11.381a4.081 4.081 0 00-3.494-3.917z" fill="url(#a)"/><path fill="#83b9f9" d="M13.786 10.198L9.299 8.531l-.116.288.073-.264-3.984-.877-.191.668 3.362.729-4.314 1.783.332.592L8.915 9.6l.797 3.51.689-.085-.812-3.623 3.933 1.438.264-.642z"/><path d="M4.581 8.6a.881.881 0 10.156-1.236l-.02.016a.875.875 0 00-.136 1.22zm-1 3.117a.886.886 0 10.15-1.245.886.886 0 00-.15 1.245zm9.262-.77A.877.877 0 1013 9.72a.867.867 0 00-.162 1.214zm-3.482 2.706a.877.877 0 10.156-1.23.867.867 0 00-.167 1.217z" fill="#9cebff"/><path d="M11.736 9.038a.264.264 0 000-.458L9.8 7.46 7.858 6.341a.264.264 0 00-.4.229v4.478a.264.264 0 00.4.229L9.8 10.158z" fill="#c3f1ff"/></svg>