<svg xmlns="http://www.w3.org/2000/svg" width="18" height="18" viewBox="0 0 18 18"><defs><linearGradient id="a" x1="5.782" y1="1.789" x2="5.782" y2="15.749" gradientUnits="userSpaceOnUse"><stop offset="0" stop-color="#5ea0ef"/><stop offset="1" stop-color="#0078d4"/></linearGradient></defs><path d="M4.667 5.35H.319A.319.319 0 010 5.031V2.108a.319.319 0 01.319-.319h4.348a.319.319 0 01.319.319v2.923a.319.319 0 01-.319.319zm0 5.2H.319A.319.319 0 010 10.23V7.307a.319.319 0 01.319-.319h4.348a.319.319 0 01.319.319v2.923a.319.319 0 01-.319.319zm6.578-5.2H6.9a.319.319 0 01-.32-.319V2.108a.319.319 0 01.32-.319h4.347a.319.319 0 01.319.319v2.923a.319.319 0 01-.321.319zm0 10.4H6.9a.32.32 0 01-.32-.32v-2.924a.319.319 0 01.32-.319h4.347a.319.319 0 01.319.319v2.923a.319.319 0 01-.321.32zm-6.578 0H.319A.319.319 0 010 15.429v-2.923a.319.319 0 01.319-.319h4.348a.319.319 0 01.319.319v2.923a.319.319 0 01-.319.32z" fill="url(#a)"/><path d="M13.217 3.758l4.622 4.621a.551.551 0 010 .779l-4.622 4.622a.246.246 0 01-.42-.174v-2.842a.246.246 0 00-.246-.246H6.775a.2.2 0 01-.2-.2v-3.1a.2.2 0 01.2-.2h5.776a.246.246 0 00.246-.246v-2.84a.246.246 0 01.42-.174z" fill="#86d633"/></svg>