<svg xmlns="http://www.w3.org/2000/svg" width="18" height="18" viewBox="0 0 18 18"><defs><linearGradient id="a" x1="7.762" y1="2.476" x2="7.762" y2="15.391" gradientUnits="userSpaceOnUse"><stop offset=".002" stop-color="#a67af4"/><stop offset="1" stop-color="#773adc"/></linearGradient><linearGradient id="b" x1="13.926" y1="7.376" x2="13.926" y2="15.524" gradientUnits="userSpaceOnUse"><stop offset="0" stop-color="#c3f1ff"/><stop offset="1" stop-color="#50e6ff"/></linearGradient></defs><path d="M.9 2.476h13.723a.844.844 0 01.9.774v9.386a.846.846 0 01-.9.774H9.007a.168.168 0 00-.091.027l-2.881 1.9a.3.3 0 01-.481-.205v-1.593a.141.141 0 00-.15-.129H.9a.845.845 0 01-.9-.774V3.25a.846.846 0 01.9-.774z" fill="url(#a)"/><path d="M11.031 6.661a1.025 1.025 0 11-1.025 1.025 1.025 1.025 0 011.025-1.025zM6.737 7.7a1.025 1.025 0 101.025-1.03A1.025 1.025 0 006.737 7.7zm-3.27 0a1.025 1.025 0 101.025-1.03A1.025 1.025 0 003.467 7.7z" fill="#fff" opacity=".8"/><circle cx="13.926" cy="11.45" r="4.074" fill="url(#b)"/><path d="M16.164 13.638l-.537-.814a.3.3 0 00-.4-.1l-.385.207a.194.194 0 01-.23-.034 6 6 0 01-.689-.828l-.308-.523a5.945 5.945 0 01-.365-1.014.2.2 0 01.087-.216l.373-.227a.3.3 0 00.114-.39l-.424-.875a.285.285 0 00-.372-.133 1.722 1.722 0 00-.78.971c-.352.815.28 1.774.747 2.59H13c.467.816.976 1.846 1.856 1.956a1.719 1.719 0 001.232-.182.283.283 0 00.076-.388z" fill="#0078d4"/>​</svg>