<svg xmlns="http://www.w3.org/2000/svg" width="18" height="18" viewBox="0 0 18 18"><defs><linearGradient id="b" x1="9" y1="16.686" x2="9" y2="13.377" gradientUnits="userSpaceOnUse"><stop offset=".001" stop-color="#37c2b1"/><stop offset="1" stop-color="#3cd4c2"/></linearGradient><linearGradient id="c" x1="8.985" y1="779.158" x2="8.985" y2="791.108" gradientTransform="matrix(1 0 0 -1 0 791.516)" gradientUnits="userSpaceOnUse"><stop offset="0" stop-color="#0078d4"/><stop offset=".156" stop-color="#1380da"/><stop offset=".528" stop-color="#3c91e5"/><stop offset=".822" stop-color="#559cec"/><stop offset="1" stop-color="#5ea0ef"/></linearGradient><clipPath id="a"><path fill="none" d="M0 0h18v18H0z"/></clipPath></defs><g clip-path="url(#a)"><path d="M18 16.686H0l3.332-3.149a.583.583 0 01.4-.16H14.68a.583.583 0 01.438.2L18 16.686z" fill="url(#b)"/><path d="M0 16.686h18v.41a.584.584 0 01-.586.586H.586A.586.586 0 010 17.096v-.41z" fill="#3cd4c2"/><path d="M17.43 8.618a3.78 3.78 0 00-3.29-3.64A4.772 4.772 0 009.22.408a4.908 4.908 0 00-4.68 3.19 4.525 4.525 0 00-4 4.35A4.593 4.593 0 002 11.175a4.597 4.597 0 003.321 1.233h8.309a3.84 3.84 0 003.8-3.79z" fill="url(#c)"/><path d="M6.36 6.868L9 4.278a.295.295 0 01.332-.067.3.3 0 01.098.067L12 6.868a.135.135 0 01.045.07.131.131 0 01-.063.145.13.13 0 01-.082.015h-1.62a.153.153 0 00-.14.14l-.021 5.072a.11.11 0 01-.11.11h-1.74a.11.11 0 01-.11-.11l.021-5.072a.142.142 0 00-.037-.096.137.137 0 00-.093-.044h-1.6a.131.131 0 01-.128-.082.129.129 0 01-.005-.08.137.137 0 01.043-.068z" fill="#f2f2f2"/></g></svg>