<svg xmlns="http://www.w3.org/2000/svg" width="18" height="18" viewBox="0 0 18 18"><defs><linearGradient id="b" x1="262.943" y1="-361.368" x2="264.773" y2="-368.322" gradientTransform="matrix(1 0 0 -1 -259 -351)" gradientUnits="userSpaceOnUse"><stop offset="0" stop-color="#159455"/><stop offset="1" stop-color="#3fbda9"/></linearGradient><linearGradient id="c" x1="263.98" y1="-352.196" x2="274.597" y2="-356.916" gradientTransform="matrix(1 0 0 -1 -259 -351)" gradientUnits="userSpaceOnUse"><stop offset="0" stop-color="#23a794"/><stop offset=".568" stop-color="#007a84"/><stop offset="1" stop-color="#005158"/></linearGradient><linearGradient id="d" x1="271.456" y1="-359.139" x2="269.534" y2="-354.107" gradientTransform="matrix(1 0 0 -1 -259 -351)" gradientUnits="userSpaceOnUse"><stop offset="0" stop-color="#004a8b"/><stop offset=".406" stop-color="#105da8" stop-opacity=".5"/><stop offset="1" stop-color="#2170c6" stop-opacity="0"/></linearGradient><linearGradient id="e" x1="263.151" y1="-356.537" x2="272.758" y2="-361.295" gradientTransform="matrix(1 0 0 -1 -259 -351)" gradientUnits="userSpaceOnUse"><stop offset="0" stop-color="#7fd9a2"/><stop offset=".196" stop-color="#47bf79"/><stop offset=".714" stop-color="#009280"/><stop offset="1" stop-color="#007a84"/></linearGradient><linearGradient id="f" x1="263.08" y1="-356.705" x2="265.276" y2="-357.803" gradientTransform="matrix(1 0 0 -1 -259 -351)" gradientUnits="userSpaceOnUse"><stop offset="0" stop-color="#a8e47c" stop-opacity=".86"/><stop offset=".367" stop-color="#87d152" stop-opacity=".2"/><stop offset="1" stop-color="#58be5a" stop-opacity="0"/></linearGradient><mask id="a" x="1" y=".621" width="16" height="16.759" maskUnits="userSpaceOnUse"><path d="M7.02.621h7.231a2.745 2.745 0 012.477 3.928l.135-.268-2.513 5.026-.022.045-.393.785.393-.786a2.746 2.746 0 01-2.456 1.518H7.53l-3.075 6.149a.654.654 0 01-1.17 0l-2.148-4.3a1.267 1.267 0 01.006-1.158l2.365-4.73a1.31 1.31 0 011.171-.723h9.062a2.706 2.706 0 00-1.868-.732H5.3a.655.655 0 01-.585-.948L6.434.982A.656.656 0 017.02.621z" fill="#fff"/></mask></defs><path d="M7.02.621h7.231a2.745 2.745 0 012.477 3.928l.135-.268-2.513 5.026-.022.045-.393.785.393-.786a2.746 2.746 0 01-2.456 1.518H7.53l-3.075 6.149a.654.654 0 01-1.17 0l-2.148-4.3a1.267 1.267 0 01.006-1.158l2.365-4.73a1.31 1.31 0 011.171-.723h9.062a2.706 2.706 0 00-1.868-.732H5.3a.655.655 0 01-.585-.948L6.434.982A.656.656 0 017.02.621z" fill="#fff"/><g mask="url(#a)"><path d="M2.283 10.869H7.53l-3.075 6.149a.655.655 0 01-1.171 0l-2.147-4.3a1.28 1.28 0 011.146-1.849z" fill="url(#b)"/><path d="M7.019.621h7.232a2.745 2.745 0 012.456 3.972l-2.358 4.714-.021.045-.393.785.414-.83a2.744 2.744 0 00-2.476-3.928H5.3a.655.655 0 01-.585-.948L6.434.982a.656.656 0 01.585-.361z" fill="url(#c)"/><path d="M7.019.621h7.232a2.745 2.745 0 012.456 3.972l-2.363 4.725-.017.034-.209.419.226-.453a2.745 2.745 0 00-2.471-3.939H5.3a.655.655 0 01-.585-.948L6.434.982a.656.656 0 01.585-.361z" fill="url(#d)"/><path d="M11.872 10.942H2.3a1.31 1.31 0 00-1.171.723l2.379-4.758a1.31 1.31 0 011.171-.723h9.572A2.744 2.744 0 0016.7 4.67l.159-.316-2.535 5.07a2.746 2.746 0 01-2.452 1.518z" fill-opacity=".24"/><path d="M11.872 11.235H2.3a1.31 1.31 0 00-1.171.723L3.508 7.2a1.31 1.31 0 011.171-.723h9.572A2.744 2.744 0 0016.7 4.963l.159-.316-2.535 5.07a2.746 2.746 0 01-2.452 1.518z" fill-opacity=".32"/><path d="M11.872 10.869H2.3a1.31 1.31 0 00-1.171.723l2.379-4.758a1.31 1.31 0 011.171-.723h9.572A2.744 2.744 0 0016.7 4.6l.159-.316-2.535 5.07a2.746 2.746 0 01-2.452 1.515z" fill="url(#e)"/><path d="M11.867 10.869h-9.56a1.31 1.31 0 00-1.171.723l2.379-4.758a1.31 1.31 0 011.171-.723H14.3a2.666 2.666 0 002.38-1.464l-2.359 4.706a2.744 2.744 0 01-2.454 1.516z" opacity=".7" fill="url(#f)" style="isolation:isolate"/></g></svg>