<svg xmlns="http://www.w3.org/2000/svg" width="18" height="18" viewBox="0 0 18 18"><defs><linearGradient id="a" x1="11.972" y1="14.787" x2="11.972" y2="2.782" gradientUnits="userSpaceOnUse"><stop offset="0" stop-color="#32bedd"/><stop offset=".576" stop-color="#32ceef"/><stop offset="1" stop-color="#32d4f5"/></linearGradient><linearGradient id="b" x1="4.699" y1="15.352" x2="4.699" y2="3.839" gradientUnits="userSpaceOnUse"><stop offset="0" stop-color="#1988d9"/><stop offset=".9" stop-color="#54aef0"/></linearGradient><linearGradient id="c" x1="1.31" y1="15.346" x2="1.31" y2="3.839" gradientUnits="userSpaceOnUse"><stop offset="0" stop-color="#005ba1"/><stop offset="1" stop-color="#0078d4"/></linearGradient></defs><path d="M17.975 9.225v-.956a.3.3 0 00-.192-.277l-1.335-.438a.3.3 0 01-.182-.169l-.283-.685a.3.3 0 01.006-.238l.6-1.279a.3.3 0 00-.059-.335l-.662-.663a.3.3 0 00-.342-.055l-1.248.635a.294.294 0 01-.246.01l-.69-.283a.3.3 0 01-.166-.173l-.485-1.338a.3.3 0 00-.278-.195h-.956a.3.3 0 00-.277.192l-.438 1.335a.3.3 0 01-.169.181l-.688.283a.3.3 0 01-.24-.007l-1.254-.6a.3.3 0 00-.336.058l-.662.662a.3.3 0 00-.056.342l.635 1.247a.3.3 0 01.01.247l-.282.688a.3.3 0 01-.174.166l-1.36.486a.3.3 0 00-.2.279V9.3a.3.3 0 00.193.277l1.334.437a.3.3 0 01.182.169l.283.69a.3.3 0 01-.006.238l-.6 1.279a.3.3 0 00.059.335l.663.663a.3.3 0 00.341.055l1.247-.635a.3.3 0 01.247-.01l.689.283a.289.289 0 01.166.173l.485 1.338a.3.3 0 00.279.2h.955a.3.3 0 00.278-.192l.439-1.34a.294.294 0 01.169-.181l.69-.283a.29.29 0 01.238.006l1.279.6a.3.3 0 00.335-.058l.663-.663a.3.3 0 00.055-.342L16 11.09a.294.294 0 01-.01-.246l.282-.69a.3.3 0 01.173-.166L17.78 9.5a.3.3 0 00.195-.275zm-5.735 2.181a2.635 2.635 0 112.354-2.353 2.635 2.635 0 01-2.354 2.353z" fill="url(#a)"/><path d="M.049 3.85L.954 2.8a.441.441 0 01.332-.151h8.678a.608.608 0 01.664.621v10.771a.24.24 0 01-.083.182l-1.263 1.093H.636l-.6-.252z" fill="#005ba1"/><path d="M.777 3.846l.555-.633a.392.392 0 01.294-.133h8.1a.39.39 0 01.39.39v10.3a.391.391 0 01-.127.289l-.866.788z" fill="#fff"/><path d="M9.139 3.839H.1a.058.058 0 00-.064.061v11.23a.222.222 0 00.222.222h8.881a.223.223 0 00.223-.222V4.061a.222.222 0 00-.223-.222z" fill="url(#b)"/><path d="M.071 3.839h2.523v11.507H.213a.188.188 0 01-.188-.188V3.885a.046.046 0 01.046-.046z" fill="url(#c)"/></svg>