<svg xmlns="http://www.w3.org/2000/svg" width="18" height="18" viewBox="0 0 18 18"><defs><linearGradient id="a" x1="-1256.65" y1="18.862" x2="-1256.65" y2="2.992" gradientTransform="matrix(-1 0 0 1 -1244.522 0)" gradientUnits="userSpaceOnUse"><stop offset="0" stop-color="#32bedd"/><stop offset="1" stop-color="#50e6ff"/></linearGradient><linearGradient id="b" x1="5.872" y1="-.862" x2="5.872" y2="15.008" gradientUnits="userSpaceOnUse"><stop offset="0" stop-color="#5ea0ef"/><stop offset="1" stop-color="#0078d4"/></linearGradient></defs><path d="M7.106 7.019H17.15a.659.659 0 01.659.658v7.981a.66.66 0 01-.659.658h-4.11a.109.109 0 00-.067.023l-2.108 1.615a.219.219 0 01-.353-.174v-1.354a.11.11 0 00-.109-.11h-3.3a.659.659 0 01-.658-.658V7.677a.66.66 0 01.661-.658z" fill="url(#a)"/><path d="M11.552.659v7.98a.659.659 0 01-.658.658H7.6a.11.11 0 00-.109.11v1.355a.22.22 0 01-.353.174L5.027 9.32a.109.109 0 00-.067-.02H.85a.66.66 0 01-.659-.658V.659A.659.659 0 01.85 0h10.044a.66.66 0 01.658.659z" fill="url(#b)"/><path d="M5.165 6.052a1.72 1.72 0 01-.065-.281 1.916 1.916 0 01-.031-.342 1.072 1.072 0 01.106-.478 2 2 0 01.264-.4 4.415 4.415 0 01.341-.359c.123-.115.237-.228.342-.337a1.879 1.879 0 00.264-.346.782.782 0 00.106-.4.707.707 0 00-.078-.339.7.7 0 00-.214-.239.977.977 0 00-.311-.145 1.414 1.414 0 00-.374-.047 1.742 1.742 0 00-1.228.574v-1A2.868 2.868 0 015.753 1.5a2.331 2.331 0 01.661.091 1.652 1.652 0 01.545.268 1.266 1.266 0 01.367.441 1.337 1.337 0 01.134.613 1.479 1.479 0 01-.112.593 2.192 2.192 0 01-.283.477 2.665 2.665 0 01-.365.387 7.197 7.197 0 00-.367.337 1.915 1.915 0 00-.283.35.748.748 0 00-.113.4 1.106 1.106 0 00.048.337 2.109 2.109 0 00.095.256zm.493 1.828a.637.637 0 01-.437-.169.526.526 0 01-.182-.406.517.517 0 01.182-.405.632.632 0 01.869 0 .516.516 0 01.181.406.525.525 0 01-.181.406.632.632 0 01-.432.168z" fill="#fff"/></svg>