<svg xmlns="http://www.w3.org/2000/svg" width="18" height="18" viewBox="0 0 18 18"><defs><linearGradient id="a" x1="7.699" y1="259.22" x2="7.699" y2="263.711" gradientTransform="translate(0 -250)" gradientUnits="userSpaceOnUse"><stop offset=".23" stop-color="#5ea0ef"/><stop offset=".32" stop-color="#5b9fee"/><stop offset=".48" stop-color="#509aeb"/><stop offset=".57" stop-color="#3f92e6"/><stop offset=".75" stop-color="#2688df"/><stop offset=".93" stop-color="#127fd9"/></linearGradient><linearGradient id="b" x1="9.927" y1="261.091" x2="9.927" y2="265.582" gradientTransform="translate(0 -250)" gradientUnits="userSpaceOnUse"><stop offset=".02" stop-color="#5ea0ef"/><stop offset=".14" stop-color="#5b9fee"/><stop offset=".23" stop-color="#5b9fee"/><stop offset=".34" stop-color="#509aeb"/><stop offset=".44" stop-color="#3f92e6"/><stop offset=".63" stop-color="#2688df"/><stop offset=".93" stop-color="#127fd9"/></linearGradient></defs><path d="M8.252 2.521h1.122v7.073H8.252z" fill="#7a7a7a"/><path d="M10.459 2.3A1.647 1.647 0 118.813.65a1.646 1.646 0 011.646 1.65z" fill="#1490df"/><path d="M8.588 9.22h-1.8a2.246 2.246 0 00-.348 4.461 2.415 2.415 0 01.022-.835 1.418 1.418 0 01.326-2.8h1.8a1.422 1.422 0 010 2.844h-.494a1.078 1.078 0 00-.1.45 1.022 1.022 0 00.071.374h.527a2.246 2.246 0 100-4.491z" fill="url(#a)"/><path d="M11.182 11.121a2.642 2.642 0 01.026.344 2.317 2.317 0 01-.049.491 1.418 1.418 0 01-.325 2.8h-1.8a1.423 1.423 0 010-2.845h.494a1.042 1.042 0 00.1-.449 1.018 1.018 0 00-.071-.374h-.52a2.246 2.246 0 000 4.491h1.8a2.246 2.246 0 00.348-4.461z" fill="url(#b)"/><path d="M5.58 16.525l-.412.415a.28.28 0 01-.4 0l-4.607-4.6a.566.566 0 010-.8l.416-.412 5 4.992a.276.276 0 010 .391z" fill="#50e6ff"/><path d="M5.082 7.02l.46.46a.282.282 0 010 .4L.625 12.809l-.461-.457a.566.566 0 010-.8L4.685 7.02a.28.28 0 01.397 0z" fill="#1490df"/><path d="M12.417 16.851a.278.278 0 01-.006-.392h.006l5-4.989.416.416a.566.566 0 010 .8l-4.611 4.588a.277.277 0 01-.391.006l-.006-.005z" fill="#50e6ff"/><path d="M13.311 7.349l4.525 4.536a.563.563 0 010 .793l-.461.46-4.921-4.932a.289.289 0 010-.4l.46-.456a.282.282 0 01.397-.001z" fill="#1490df"/></svg>