<svg xmlns="http://www.w3.org/2000/svg" width="18" height="18" viewBox="0 0 18 18"><defs><clipPath id="a"><path fill="none" d="M.5.5h17v17H.5z"/></clipPath></defs><g clip-path="url(#a)"><path d="M10.312 3.991a3.522 3.522 0 01-3.491 3.553 3.522 3.522 0 01-3.553-3.491A3.522 3.522 0 016.759.5h.031a3.506 3.506 0 013.522 3.49" fill="#59b4d9"/><path d="M17.389 16.353L15.6 13.342l-1.787-3.1a.628.628 0 00-1.129 0L10.9 13.154l-1.787 3.2a.66.66 0 00.564 1.035h7.15a.659.659 0 00.564-1.035zm-4.045-4.234h.471l-.189 2.728h-.752l-.094-2.728zm-.094 4.139a.565.565 0 11.565-.564.564.564 0 01-.565.564z" fill="#ff8c00"/><path d="M8.468 17.411a1.368 1.368 0 01-.176-.705A1.472 1.472 0 018.5 16l1.783-3.19.007-.013.007-.012L12.08 9.87a1.394 1.394 0 011-.681V8.68H9.365L6.79 12.257 4.215 8.68H.5v8.82h8.026a1.36 1.36 0 01-.058-.089z" fill="#59b4d9"/></g></svg>