<svg xmlns="http://www.w3.org/2000/svg" width="18" height="18" viewBox="0 0 18 18"><defs><linearGradient id="a" x1="12.896" y1="-.54" x2="12.896" y2="6.922" gradientTransform="rotate(-44.919 12.821 3.813)" gradientUnits="userSpaceOnUse"><stop offset="0" stop-color="#5ea0ef"/><stop offset="1" stop-color="#0078d4"/></linearGradient><linearGradient id="b" x1="5.104" y1="5.035" x2="5.104" y2="12.497" gradientTransform="rotate(-135.081 5.179 8.795)" gradientUnits="userSpaceOnUse"><stop offset="0" stop-color="#5ea0ef"/><stop offset="1" stop-color="#0078d4"/></linearGradient></defs><path d="M16.637 12.107l-.802.805a.363.363 0 01-.513 0L9.387 6.994a.727.727 0 01-.002-1.028l.802-.805 6.45 6.432a.363.363 0 010 .514z" fill="#83b9f9"/><path d="M12.253-.856h1.136a.363.363 0 01.363.363v8.976h-1.136a.727.727 0 01-.727-.727V-.492a.363.363 0 01.363-.363z" transform="rotate(44.919 12.821 3.813)" fill="url(#a)"/><path d="M7.813 10.143l.802.805a.727.727 0 01-.002 1.028l-5.935 5.918a.363.363 0 01-.513 0l-.803-.805a.363.363 0 010-.514l6.45-6.432z" fill="#83b9f9"/><path d="M4.974 4.126H6.11V13.1a.363.363 0 01-.363.363H4.611a.363.363 0 01-.363-.363V4.852a.727.727 0 01.727-.727z" transform="rotate(135.081 5.179 8.795)" fill="url(#b)"/></svg>