<svg xmlns="http://www.w3.org/2000/svg" width="18" height="18" viewBox="0 0 18 18"><defs><linearGradient id="a" x1="8.999" y1="6.807" x2="8.999" y2="13.192" gradientUnits="userSpaceOnUse"><stop offset="0" stop-color="#50e6ff"/><stop offset=".949" stop-color="#32bedd"/></linearGradient></defs><path d="M14.975 9.021v.155A5.977 5.977 0 019 15h-.063l-.857-1.455a.871.871 0 00-.759-.435.88.88 0 00-.821.554l-.262.657c-.1-.053-.2-.11-.3-.167l-.089-.054a1.719 1.719 0 01-.12-.076l-.115-.078-.08-.058-.08-.058-.048-.036-.134-.1a3.838 3.838 0 01-.135-.113l-.115-.1A.063.063 0 015 13.455a4.374 4.374 0 01-.223-.21l-.114-.116a.081.081 0 01-.016-.016 3.6 3.6 0 01-.2-.229c-.036-.041-.07-.083-.1-.125s-.069-.086-.1-.13-.066-.087-.1-.13-.064-.09-.1-.137-.06-.091-.09-.138a.839.839 0 01-.05-.081 2.468 2.468 0 01-.155-.272c-.026-.042-.048-.085-.071-.129a3.996 3.996 0 01-.122-.255c-.021-.046-.042-.092-.062-.14s-.044-.1-.063-.153-.04-.1-.056-.152-.031-.08-.044-.123-.021-.062-.031-.094-.023-.072-.032-.107a3.328 3.328 0 01-.047-.163l-.041-.163a4.92 4.92 0 01-.036-.166 5.964 5.964 0 01-.111-.842c0-.048-.006-.1-.007-.147v-.216A5.955 5.955 0 013.1 8.08c.011-.074.025-.15.039-.226s.026-.121.04-.182a.645.645 0 01.021-.084c.014-.062.029-.124.048-.186v-.017c.018-.064.038-.129.059-.194v-.012a5.978 5.978 0 015.675-4.133l.831 1.41a.883.883 0 001.581-.121l.265-.665a4.881 4.881 0 01.446.248l.047.026c.05.033.1.065.151.1.089.058.176.118.261.182.112.081.222.17.327.263.052.045.1.091.155.139a5.921 5.921 0 011.873 3.586 6.192 6.192 0 01.051.566v.154a.502.502 0 01.005.087z" fill="url(#a)"/><g opacity=".8" fill="#fff"><path opacity=".6" d="M11.964 11.806l-1.861-3.258-.185.106.151-.112-2.107-2.996-.386.279L9.443 8.48l-4.136.341.039.481 4.097-.341-1.358 2.258.408.246L9.89 9.14l1.661 2.901.413-.235z"/><path d="M11.775 11.119h-.006a.879.879 0 00-.187.018.856.856 0 00-.679.826v.017a.866.866 0 10.872-.861zm-2.913-.27a.728.728 0 00-.431-.205.457.457 0 00-.083-.006h-.006a.746.746 0 00-.75.738v.006a.75.75 0 101.27-.533zM5.984 8.765a.743.743 0 10.088.353.742.742 0 00-.088-.353zM7.833 4.8h-.027a.928.928 0 00.017 1.856.954.954 0 00.3-.049.933.933 0 00.628-.873.927.927 0 00-.918-.934zm2.085 2.815a1.119 1.119 0 00-.438.085 1.123 1.123 0 00-.661.83.984.984 0 00-.019.17v.027a1.131 1.131 0 00.314.776 1.106 1.106 0 00.4.266 1.125 1.125 0 00.407.078 1.147 1.147 0 00.348-.055 1.118 1.118 0 00-.348-2.181z"/></g><path d="M16.5 11.493a.463.463 0 01-.611.288l-.539-.216a.461.461 0 01-.263-.574A6.408 6.408 0 0011.431 3.1l-.156.391-.275.688a.461.461 0 01-.825.062l-.693-1.177-.893-1.515a.461.461 0 01.272-.677l3.006-.854a.462.462 0 01.555.616l-.432 1.077a7.909 7.909 0 014.51 9.782zm-7.468 5.636l-3.006.852a.46.46 0 01-.554-.614l.433-1.081A7.907 7.907 0 011.5 6.55a.464.464 0 01.611-.288l.529.212a.467.467 0 01.274.574A6.409 6.409 0 006.462 14.9l.157-.391.273-.682a.461.461 0 01.826-.063l.714 1.212.872 1.48a.461.461 0 01-.272.673z" fill="#0078d4"/></svg>