<svg xmlns="http://www.w3.org/2000/svg" width="18" height="18" viewBox="0 0 18 18"><defs><linearGradient id="a" x1="7.516" y1="1.264" x2="7.516" y2="13.673" gradientUnits="userSpaceOnUse"><stop offset="0" stop-color="#c3f1ff"/><stop offset="1" stop-color="#fff" stop-opacity="0"/></linearGradient><linearGradient id="b" x1="233.207" y1="495.964" x2="233.207" y2="504.837" gradientTransform="translate(-221 -489.484)" gradientUnits="userSpaceOnUse"><stop offset=".18" stop-color="#5ea0ef"/><stop offset="1" stop-color="#0078d4"/></linearGradient></defs><path d="M17.969 15.02c-.168.74-1.086 1.46-2.746 2.025a22.659 22.659 0 01-12.723.017C.969 16.523.144 15.829.015 15.131c-.024-.123 0-2.014 0-2.014L18 12.949s-.01 1.982-.031 2.071z" fill="#5ea0ef"/><path d="M18 12.983v.023c-.015 1.709-4.018 3.131-8.969 3.18-4.809.05-8.744-1.212-9.015-2.849a.969.969 0 01-.016-.17c-.006-.755.762-1.454 2.048-2.006a18.989 18.989 0 016.922-1.2 18.987 18.987 0 016.957 1.063c1.269.517 2.041 1.185 2.072 1.922z" fill="#50e6ff"/><rect x="1.347" y="9.292" width="12.338" height="4.629" rx=".563" fill="#005ba1"/><rect x="1.347" y="4.664" width="12.338" height="4.629" rx=".563" fill="#0078d4"/><rect x="1.347" y=".035" width="12.338" height="4.629" rx=".563" fill="#5ea0ef"/><path d="M2.474 2.35a.68.68 0 01.68-.68.679.679 0 01.68.68.679.679 0 01-.68.679.68.68 0 01-.68-.679zm4.66 0a.21.21 0 00-.211-.211H4.76a.211.211 0 000 .422h2.163a.211.211 0 00.211-.211zm0 4.628a.21.21 0 00-.211-.211H4.76a.211.211 0 000 .422h2.163a.21.21 0 00.211-.211zm0 4.629a.21.21 0 00-.211-.211H4.76a.211.211 0 100 .421h2.163a.21.21 0 00.211-.21zm-3.98-3.949a.679.679 0 00.68-.68.68.68 0 00-.68-.68.681.681 0 00-.68.68.68.68 0 00.68.68zm0 4.629a.68.68 0 00.68-.68.679.679 0 00-.68-.68.68.68 0 00-.68.68.681.681 0 00.68.68z" fill="#fff"/><path d="M13.684 4.1V.6a.563.563 0 00-.563-.563H1.91A.563.563 0 001.347.6v3.5a.563.563 0 00.563.563.563.563 0 00-.563.563v3.5a.563.563 0 00.563.562.563.563 0 00-.563.563v3.5a.563.563 0 00.563.563h11.211a.563.563 0 00.563-.563v-3.5a.563.563 0 00-.563-.563.563.563 0 00.563-.562v-3.5a.563.563 0 00-.563-.563.563.563 0 00.563-.563z" opacity=".3" fill="url(#a)"/><path d="M16.653 11.9a2.02 2.02 0 00-1.729-1.944 2.549 2.549 0 00-2.593-2.466 2.592 2.592 0 00-2.482 1.724 2.4 2.4 0 00-2.088 2.327 2.444 2.444 0 002.5 2.379h4.388a2.04 2.04 0 002.004-2.02z" fill="url(#b)"/></svg>