<svg xmlns="http://www.w3.org/2000/svg" width="18" height="18" viewBox="0 0 18 18"><defs><linearGradient id="a" x1="8.44" y1="4.529" x2="8.44" y2="12.659" gradientUnits="userSpaceOnUse"><stop offset=".196" stop-color="#5ea0ef"/><stop offset="1" stop-color="#0078d4"/></linearGradient></defs><path d="M14.006.47v8.579h-.075l-.592.005H13.3a.288.288 0 00-.041 0A4.7 4.7 0 009.894 11c-.028.038-.053.075-.078.112a.209.209 0 00-.027.039.238.238 0 00-.023.041l-.01.022-.013.04h-.678a.573.573 0 00-.076-.362 1.057 1.057 0 00-.183-.234L7.168 8.874a.675.675 0 00-.218-.181.666.666 0 00-.3-.072.655.655 0 00-.513.248l-1.76 1.818a.669.669 0 00-.232.568H.477a.471.471 0 01-.469-.47V.461A.469.469 0 01.477 0h13.059a.471.471 0 01.47.47z" fill="#005ba1"/><path d="M15.318 4.529v4.788a4.7 4.7 0 00-6.179 3.342H2.024a.461.461 0 01-.461-.461V4.529z" fill="url(#a)"/><path d="M2.025 1.6h12.831a.461.461 0 01.462.461v2.468H1.564V2.053a.46.46 0 01.461-.453z" fill="#0078d4"/><path d="M11.888 6.591a1.068 1.068 0 11-1.068 1.068 1.068 1.068 0 011.068-1.068zM7.419 7.659a1.068 1.068 0 101.068-1.068 1.067 1.067 0 00-1.068 1.068zm-3.493 0a1.068 1.068 0 101.067-1.068 1.067 1.067 0 00-1.067 1.068z" fill="#fff"/><path d="M15.959 15.8h1.509a4.242 4.242 0 00.524-1.909h-1.654a5.267 5.267 0 01-.379 1.909zm.379-2.211h1.654a4.228 4.228 0 00-.523-1.909h-1.535a4.918 4.918 0 01.404 1.906zM14.094 18a4.285 4.285 0 003.192-1.9H15.81a5.111 5.111 0 01-1.716 1.9zm1.688-6.625h1.5A4.28 4.28 0 0014 9.471h-.066l.066.037a5.343 5.343 0 011.784 1.867zm-2.006 0h1.677a4.797 4.797 0 00-.226-.33A5.16 5.16 0 0014 9.865c-.072-.05-.146-.1-.222-.145zm0 2.211h2.26a4.549 4.549 0 00-.433-1.909h-1.827zm0 2.211h1.845a4.882 4.882 0 00.415-1.909h-2.26zm1.7.3h-1.7v1.751a4.984 4.984 0 001.698-1.748zm-2 0H11.9a4.923 4.923 0 001.577 1.673zm0-6.381a4.752 4.752 0 00-1.527 1.531l-.075.124h1.6zm0 4.168h-2.14a4.847 4.847 0 00.415 1.909h1.725zm0-2.211h-1.745a4.973 4.973 0 00-.264.8 4.891 4.891 0 00-.133 1.114h2.14zM13.266 18a5.139 5.139 0 01-1.707-1.9h-1.41c.015.021.028.042.045.062a4.02 4.02 0 00.356.454A4.288 4.288 0 0013.266 18zm.034-8.527a4.291 4.291 0 00-3.072 1.778c-.03.041-.057.081-.084.121h1.4l.066-.121a4.983 4.983 0 011.69-1.778zm-3.158 1.9zm-.709 2.211h1.6a5.135 5.135 0 01.126-1.114 5.364 5.364 0 01.243-.795h-1.44a4.211 4.211 0 00-.338.8 4.324 4.324 0 00-.188 1.111zm.529 2.216h1.448c-.017-.044-.035-.089-.05-.133a5.175 5.175 0 01-.314-1.442 4.614 4.614 0 01-.014-.334h-1.6c0 .07.007.14.013.209a3.947 3.947 0 00.065.46 4.22 4.22 0 00.452 1.24zm-.339.25a4.191 4.191 0 01-3.753-4.482.2.2 0 00-.014-.087.207.207 0 00-.115-.124.232.232 0 00-.086-.018h-.8c-.309 0-.378-.167-.18-.368l1.776-1.828a.226.226 0 01.084-.075.233.233 0 01.212 0 .222.222 0 01.083.075l1.643 1.787a.774.774 0 01.122.152c.052.094.031.154-.062.188a.738.738 0 01-.24.03h-.736a.229.229 0 00-.23.23 2.743 2.743 0 001.733 2.86 4.618 4.618 0 00.563 1.657z" fill="#50e6ff"/></svg>