<svg xmlns="http://www.w3.org/2000/svg" width="18" height="18" viewBox="0 0 18 18"><defs><linearGradient id="a" x1="-485.564" y1="-607.983" x2="-485.564" y2="-600.613" gradientTransform="matrix(1.147 0 0 .716 567.077 439.786)" gradientUnits="userSpaceOnUse"><stop offset=".302" stop-color="#0078d4"/><stop offset="1" stop-color="#005ba1"/></linearGradient><linearGradient id="b" x1="-465.421" y1="-302.323" x2="-465.421" y2="-299.441" gradientTransform="rotate(45 -610.388 423.406)" gradientUnits="userSpaceOnUse"><stop offset="0" stop-color="#9cebff"/><stop offset="1" stop-color="#50e6ff"/></linearGradient><linearGradient id="c" x1="-465.421" y1="-307.134" x2="-465.421" y2="-302.876" gradientTransform="rotate(45 -610.388 423.406)" gradientUnits="userSpaceOnUse"><stop offset="0" stop-color="#5ea0ef"/><stop offset="1" stop-color="#0078d4"/></linearGradient></defs><path d="M9.192 17.636a.445.445 0 010-.889 7.9 7.9 0 005.472-13.523A7.9 7.9 0 001.233 8.918a.445.445 0 11-.889.007A8.784 8.784 0 0115.287 2.59 8.784 8.784 0 019.2 17.636z" fill="#e6e6e6"/><path d="M4.212 17.93a4.246 4.246 0 01-4.081-3.614 4 4 0 01-.041-.628c.007-.281.143-.45.363-.454s.4.163.4.451a3.259 3.259 0 00.281 1.43A3.382 3.382 0 003.9 17.164c.161.021.325.03.487.038.261.012.4.13.4.356s-.14.358-.389.372c-.062.003-.124 0-.186 0z" fill="#b3b3b3" opacity=".51"/><path d="M4.248 16.533A2.809 2.809 0 011.5 13.658a1.111 1.111 0 01.043-.275.333.333 0 01.335-.24.335.335 0 01.346.224.922.922 0 01.038.369A2.052 2.052 0 004.3 15.765a1.8 1.8 0 01.233.006.392.392 0 01.345.425.348.348 0 01-.373.336c-.085.004-.171.001-.257.001z" fill="#b3b3b3" opacity=".51"/><rect x="2.842" y="6.296" width="14.353" height="3.541" rx=".49" transform="rotate(45 10.018 8.066)" fill="url(#a)"/><path fill="#005ba1" d="M5.875 11.519l.638.638-1.335 1.334-.638-.638z"/><circle cx="4.202" cy="13.83" r="1.134" fill="url(#b)"/><path fill="#005ba1" d="M7.085 7.635l3.313 3.313-.656.656-3.314-3.313zm5.017-3.448l1.743 1.743a.229.229 0 010 .324L12.84 7.26l-2.067-2.067 1.005-1.006a.229.229 0 01.324 0z"/><path d="M10.554 4.973l2.505 2.505a.576.576 0 010 .815l-2.663 2.663-3.323-3.323L9.736 4.97a.576.576 0 01.818.003z" fill="#50e6ff"/><path d="M7.725 14.275l-3.972-3.96a.786.786 0 01.331-1.3l2.4-.767 3.324 3.324-.788 2.377a.787.787 0 01-1.295.326z" fill="url(#c)"/></svg>