<svg xmlns="http://www.w3.org/2000/svg" width="18" height="18" viewBox="0 0 18 18"><path fill="#a33a85" d="M15.434 9.798l-1.71 1.01-1.72 1-3.01 1.77-3-1.77-1.71-1-1.72-1.01 1.35-.79 5.08 2.98 5.09-2.98 1.35.79z"/><path fill="#59285f" d="M15.434 9.798v1.72l-6.44 3.78-6.43-3.78v-1.72l1.72 1.01 1.71 1 3 1.77 3.01-1.77 1.72-1 1.71-1.01z"/><path fill="#a33a85" d="M15.434 6.488l-1.71 1-1.11.65-.61.36-3.01 1.76-3-1.76-.61-.36-1.1-.65-1.72-1 6.43-3.79 6.44 3.79z"/><path fill="#59285f" d="M15.434 6.488v1.72l-1.35.8-5.09 2.98-5.08-2.98-1.35-.8v-1.72l1.72 1 1.1.65.61.36 3 1.76 3.01-1.76.61-.36 1.11-.65 1.71-1z"/><path d="M16.755 4.794v8.416a.565.565 0 01-.281.49l-7.186 4.222A.566.566 0 019 18V9.022l7.679-4.51a.569.569 0 01.076.282z" fill="#a33a85" opacity=".6"/><path d="M16.68 4.512L9 9.011v.011L1.32 4.511a.551.551 0 01.206-.211L8.718.075a.569.569 0 01.57 0l7.189 4.227a.567.567 0 01.203.21z" fill="#dc92bf" opacity=".6"/><path d="M9 9.022V18a.547.547 0 01-.284-.077L1.526 13.7a.565.565 0 01-.281-.49V4.791a.564.564 0 01.075-.28z" fill="#ce74b6" opacity=".6"/></svg>