<svg xmlns="http://www.w3.org/2000/svg" width="18" height="18" viewBox="0 0 18 18"><defs><linearGradient id="a" x1="307" y1="388.135" x2="307" y2="400.896" gradientTransform="matrix(1 0 0 -1 -298 403.516)" gradientUnits="userSpaceOnUse"><stop offset="0" stop-color="#005ba1"/><stop offset=".202" stop-color="#0068b7"/><stop offset=".422" stop-color="#0071c7"/><stop offset=".67" stop-color="#0076d1"/><stop offset="1" stop-color="#0078d4"/></linearGradient><linearGradient id="b" x1="4.738" y1="15.38" x2="4.738" y2="6.013" gradientUnits="userSpaceOnUse"><stop offset="0" stop-color="#32bedd"/><stop offset="1" stop-color="#50e6ff"/></linearGradient></defs><path d="M13.943 15.325A4.091 4.091 0 0018 11.382 4.042 4.042 0 0014.489 7.5 5.1 5.1 0 009.24 2.622a5.229 5.229 0 00-5 3.407A4.827 4.827 0 000 10.671a4.9 4.9 0 005.07 4.706" fill="url(#a)"/><path d="M9.473 15.38v-4.775a4.745 4.745 0 00-4.828-4.592A4.779 4.779 0 000 10.788a4.886 4.886 0 004.738 4.592z" fill="url(#b)"/><path d="M4.394 7.989a6.786 6.786 0 017.918-3.2.069.069 0 01.029.112l-1.5 1.652a.064.064 0 01-.07.017c-2.508-.823-4.621-.412-6.258 1.5a.072.072 0 01-.119-.081z" fill="#86d633"/><path d="M9.373 8.288L10.4 7.157a.055.055 0 00-.02-.087 4.694 4.694 0 00-5.8 1.617.058.058 0 00.085.077c1.36-1.217 2.94-1.17 4.648-.465a.052.052 0 00.06-.011z" fill="#86d633"/><path d="M8.374 9.495l.612-.67a.077.077 0 00-.023-.118 3.565 3.565 0 00-4.4.869.076.076 0 00.1.117 3.38 3.38 0 013.59-.176.1.1 0 00.121-.022z" fill="#86d633"/><path d="M12.719 4.742a.442.442 0 00-.289-.31 6.587 6.587 0 00-2.093-.339A7.3 7.3 0 004.072 7.8a.441.441 0 00-.006.449.446.446 0 00.232.194l-.016.019a.428.428 0 00-.043.452.439.439 0 00.265.222c-.028.029-.057.054-.084.084a.451.451 0 00.587.678 2.328 2.328 0 011.508-.433 3.731 3.731 0 011.576.393.479.479 0 00.56-.108l.021-.024.591-.647a.453.453 0 00.109-.383l-.006-.021a.42.42 0 00.284-.135l.323-.354.708-.776a.422.422 0 00.071-.468c.013 0 .026.006.039.006a.437.437 0 00.325-.144l.639-.7.864-.949a.444.444 0 00.1-.413zM8.986 8.825l-.612.67a.1.1 0 01-.076.033.12.12 0 01-.048-.011 4.07 4.07 0 00-1.735-.429 3.206 3.206 0 00-1.855.605.075.075 0 01-.044.015.078.078 0 01-.053-.132A3.7 3.7 0 017.3 8.292a3.672 3.672 0 011.667.415.077.077 0 01.019.118zM10.4 7.157L9.373 8.288a.049.049 0 01-.037.016.063.063 0 01-.022-.004 5.813 5.813 0 00-2.194-.5 3.562 3.562 0 00-2.454.962.059.059 0 01-.038.015.058.058 0 01-.047-.092 4.8 4.8 0 013.85-2.036 4.878 4.878 0 011.952.419.055.055 0 01.017.089zM12.341 4.9l-1.5 1.652a.064.064 0 01-.048.021.057.057 0 01-.022 0 7.4 7.4 0 00-2.3-.4 5.021 5.021 0 00-3.96 1.9.072.072 0 01-.117-.083 6.969 6.969 0 015.943-3.521 6.22 6.22 0 011.975.32.069.069 0 01.029.111z" fill="#fff"/><path d="M2.1 13.239v-.634a1.437 1.437 0 00.751.211.717.717 0 00.469-.139.467.467 0 00.169-.38q0-.5-.722-.5a5.379 5.379 0 00-.614.04l.13-1.88H4.1v.606H2.862l-.048.675c.123-.01.229-.015.319-.015a1.188 1.188 0 01.83.273.945.945 0 01.3.733 1.072 1.072 0 01-.357.833 1.392 1.392 0 01-.969.323 2.117 2.117 0 01-.837-.146zm5.393-.139a2.523 2.523 0 01-1.252.284 1.833 1.833 0 01-1.308-.45 1.619 1.619 0 01-.479-1.234 1.711 1.711 0 01.523-1.3 1.929 1.929 0 011.391-.5 2.872 2.872 0 01.964.148v.712a1.941 1.941 0 00-.974-.226 1.054 1.054 0 00-.785.307 1.113 1.113 0 00-.3.818 1.114 1.114 0 00.273.8.97.97 0 00.735.284 1.054 1.054 0 00.441-.077v-.658H6.03v-.606h1.463z" fill="#fff"/></svg>