<svg xmlns="http://www.w3.org/2000/svg" width="18" height="18" viewBox="0 0 18 18"><rect x="5.974" width="6.053" height="6.053" rx=".401" ry=".401" fill="#a67af4"/><path d="M11.392 5.523H6.611a.107.107 0 01-.107-.108V.638c0-.059.048-.107.107-.108h4.778c.059 0 .108.048.108.108v4.777a.108.108 0 01-.105.108z" fill="#773adc"/><path d="M7.202.983h1.257V5.07H7.202zM9.541.982h1.257V5.07H9.541z" fill="#b796f9"/><path d="M8.045 10.794a2.634 2.634 0 011.797-.007l2.184.779V7.225a.401.401 0 00-.401-.401h-5.25a.401.401 0 00-.401.401v4.327l2.071-.758z" fill="#a67af4"/><path d="M8.045 10.794a2.634 2.634 0 011.797-.007l1.654.59V7.463a.108.108 0 00-.108-.108H6.611a.107.107 0 00-.107.108v3.896l1.541-.564z" fill="#773adc"/><path d="M9.842 10.786l.956.341V7.806H9.541V10.7c.102.023.202.05.301.085zm-1.797.008c.135-.05.274-.087.414-.113V7.808H7.202v3.295l.843-.309z" fill="#b796f9"/><path d="M5.264 2.406H1.159a.37.37 0 00-.37.37v4.847c0 .204.166.37.37.37h4.105V2.406z" fill="#a67af4"/><path d="M5.264 2.895H1.376a.1.1 0 00-.099.099v4.41c0 .055.044.099.099.099h3.887V2.895z" fill="#773adc"/><path d="M1.922 3.313h1.161v3.773H1.922zm2.181-.001h1.161v3.774H4.103z" fill="#b796f9"/><path d="M2.807 11.517a2.132 2.132 0 011.457-.006l.999.356V8.684H1.159a.37.37 0 00-.37.37v3.202l2.019-.739z" fill="#a67af4"/><path d="M2.807 11.517a2.132 2.132 0 011.457-.006l.999.356V9.173H1.376a.1.1 0 00-.099.099v2.804l1.53-.56z" fill="#773adc"/><path d="M4.287 11.511l.977.349V9.591H4.103v1.864c.062.016.123.035.184.056zm-1.48.006c.09-.033.182-.058.276-.078V9.592H1.922v2.25l.885-.324z" fill="#b796f9"/><path d="M15.136 11.517a2.132 2.132 0 00-1.457-.006l-.999.356V8.684h4.105a.37.37 0 01.37.37v3.202l-2.019-.739z" fill="#a67af4"/><path d="M15.136 11.517a2.132 2.132 0 00-1.457-.006l-.999.356V9.173h3.887a.1.1 0 01.099.099v2.804l-1.53-.56z" fill="#773adc"/><path d="M13.656 11.511l-.977.349V9.591h1.161v1.864a2.43 2.43 0 00-.184.056zm1.48.006a2.019 2.019 0 00-.276-.078V9.592h1.161v2.25l-.885-.324z" fill="#b796f9"/><path d="M12.68 2.406h4.105a.37.37 0 01.37.37v4.847a.37.37 0 01-.37.37H12.68V2.406z" fill="#a67af4"/><path d="M12.68 2.895h3.887a.1.1 0 01.099.099v4.41a.099.099 0 01-.099.099H12.68V2.895z" fill="#773adc"/><path d="M14.86 3.313h1.161v3.773H14.86zm-2.18-.001h1.161v3.774H12.68z" fill="#b796f9"/><path d="M17.988 17.993H0l.004-1.012c.079.007.164.011.254.011.726-.001 1.09-.234 1.454-.467.365-.233.73-.467 1.459-.467h.003c.73 0 1.094.233 1.459.467.365.233.729.467 1.458.467s1.093-.234 1.458-.467.73-.467 1.459-.467h.003c.182 0 .34.015.482.04.432.077.708.252.983.428.365.233.729.465 1.456.466.728 0 1.092-.234 1.456-.467.365-.233.73-.467 1.459-.467h.014c.725.004 1.09.236 1.454.468.365.233.73.466 1.459.466.075 0 .145-.002.213-.007v1.008z" fill="#83b9f9"/><g fill="#0078d4"><path d="M.092 13.594l.82 1.762.026.056.22.496.128.293.156-.096c.38-.243.853-.546 1.731-.546s1.349.303 1.729.546c.179.114.34.214.536.284l-.243-.504-.014-.029-.032-.068-1.011-2.172-.013-.027-.01-.029a3.777 3.777 0 01-.108-.366c-.041-.176-.072-.383.013-.586a.986.986 0 01.448-.492l-.372-.133a1.642 1.642 0 00-1.117.005l-2.221.813-.58.213a.3.3 0 00-.173.166c-.012.03-.002.098.015.171.027.116.072.244.072.244z"/><path d="M4.698 13.354l1.011 2.172.032.068.413.893c.534-.014.801-.175 1.125-.383.38-.243.853-.546 1.731-.546.204 0 .391.016.57.048.531.094.868.309 1.165.499.296.189.55.336.994.372l.44-.873.01.003.04-.081.054-.109.045-.091.966-1.969s.154-.415.114-.512a.368.368 0 00-.217-.208l-.818-.292-2.74-.978a2.023 2.023 0 00-1.377.006l-2.738 1.003-.715.262a.366.366 0 00-.213.204c-.015.036-.003.121.018.21.033.143.089.301.089.301z"/><path d="M13.967 12.607c.084.203.054.411.013.586a3.98 3.98 0 01-.108.366l-.01.029-.013.027-1.011 2.172-.032.068-.014.029-.249.515c.213-.071.385-.174.575-.295.372-.238.833-.533 1.708-.544h.037c.872.003 1.342.304 1.721.545l.125.077.12-.274.22-.496.026-.055.82-1.762s.045-.128.072-.244c.017-.073.027-.141.015-.171a.3.3 0 00-.173-.166l-.58-.212-2.221-.814a1.642 1.642 0 00-1.117-.005l-.372.133c.2.107.36.28.448.492z"/></g></svg>