<svg xmlns="http://www.w3.org/2000/svg" width="18" height="18" viewBox="0 0 18 18"><defs><linearGradient id="a" x1="8.622" y1="791.9" x2="8.622" y2="773.541" gradientTransform="matrix(1 0 0 -1 0 791.516)" gradientUnits="userSpaceOnUse"><stop offset="0" stop-color="#a67af4"/><stop offset=".999" stop-color="#773adc"/></linearGradient><linearGradient id="b" x1="6.352" y1="781.325" x2="6.356" y2="784.462" gradientTransform="matrix(1 -.001 -.001 -1 3.136 789.996)" gradientUnits="userSpaceOnUse"><stop offset=".001" stop-color="#76bc2d"/><stop offset="1" stop-color="#86d633"/></linearGradient><linearGradient id="c" x1="4.062" y1="774.917" x2="4.062" y2="778.046" gradientTransform="matrix(1 0 0 -1 0 791.516)" gradientUnits="userSpaceOnUse"><stop offset=".001" stop-color="#76bc2d"/><stop offset="1" stop-color="#86d633"/></linearGradient><linearGradient id="d" x1="13.233" y1="17.675" x2="13.233" y2="11.245" gradientUnits="userSpaceOnUse"><stop offset=".001" stop-color="#76bc2d"/><stop offset="1" stop-color="#86d633"/></linearGradient></defs><path d="M9.559.675h-7.1a.546.546 0 00-.548.546v15.323a.547.547 0 00.547.547h12.331a.546.546 0 00.548-.546V6.414a.56.56 0 00-.56-.512h-4.1a.56.56 0 01-.561-.556V1.235a.56.56 0 00-.56-.56z" fill="url(#a)"/><path d="M15.14 6.034L9.932.812v4.2a.965.965 0 00.966.966z" fill="#773adc"/><path fill="#6536c1" d="M4.12 13.24l3.092-5.355 1.116.644-3.092 5.355zm4.213-4.611l1.117-.644 3.091 5.354-1.116.645zm-3.145 5.35h6.183v1.289H5.188z"/><circle cx="8.396" cy="7.094" r="1.569" fill="url(#b)"/><circle cx="4.062" cy="14.721" r="1.569" fill="url(#c)"/><circle cx="13.233" cy="14.46" r="3.215" fill="url(#d)"/><path d="M13.6 12.488l1.819 1.818a.217.217 0 010 .307L13.6 16.432a.1.1 0 01-.137 0 .1.1 0 01-.028-.069v-1.118a.1.1 0 00-.1-.1h-2.271a.079.079 0 01-.079-.079v-1.22a.078.078 0 01.079-.078h2.273a.1.1 0 00.1-.1v-1.112a.1.1 0 01.165-.068z" fill="#fff"/></svg>