<svg xmlns="http://www.w3.org/2000/svg" viewBox="0 0 256 256" width="80" height="80"><g fill="none" stroke-miterlimit="10" font-family="none" font-weight="none" font-size="none" text-anchor="none" style="mix-blend-mode:normal"><path d="M128 246.4C62.714 246.4 9.6 193.286 9.6 128S62.714 9.6 128 9.6 246.4 62.714 246.4 128 193.286 246.4 128 246.4z" fill="#0c152e"/><path d="M128 12.8c63.52 0 115.2 51.68 115.2 115.2S191.52 243.2 128 243.2 12.8 191.52 12.8 128 64.48 12.8 128 12.8m0-6.4C60.845 6.4 6.4 60.845 6.4 128S60.845 249.6 128 249.6 249.6 195.155 249.6 128 195.155 6.4 128 6.4z" fill="#C2D2FF"/><path d="M128.34 57.6c-49.05 0-75.098 32.922-75.098 68.774 0 16.666 8.87 37.421 23.065 44.032 2.15.999 3.303.564 3.802-1.516.377-1.581 2.291-9.3 3.155-12.89.275-1.146.14-2.131-.787-3.258-4.698-5.696-8.461-16.166-8.461-25.932 0-25.07 18.982-49.319 51.315-49.319 27.923 0 47.475 19.027 47.475 46.24 0 30.746-15.526 52.045-35.724 52.045-11.156 0-19.508-9.229-16.832-20.538 3.206-13.51 9.414-28.09 9.414-37.836 0-8.73-4.685-16.007-14.38-16.007-11.406 0-20.564 11.795-20.564 27.603 0 10.068 3.398 16.87 3.398 16.87s-11.264 47.623-13.324 56.494c-2.26 9.702-1.408 23.257-.43 32.25a114.505 114.505 0 007.924 2.898c4.634-7.564 11.462-19.801 14.003-29.593 1.383-5.319 7.079-27.015 7.079-27.015 3.705 7.066 14.534 13.05 26.048 13.05 34.278 0 58.976-31.52 58.976-70.694.006-37.568-30.63-65.658-70.055-65.658z" fill="#C2D2FF"/></g></svg>