<svg xmlns="http://www.w3.org/2000/svg" width="18" height="18" viewBox="0 0 18 18"><defs><clipPath id="a"><path fill="none" d="M.5.5h17v17H.5z"/></clipPath></defs><g clip-path="url(#a)"><path d="M9.014 8.105L6.181 5.421h2.256L12.254 9l-3.76 3.579H6.181L9.015 9.9H1.007C.717 9.9.5 9.566.5 9.275v-.74c0-.291.217-.431.507-.431z" fill="#57a300"/><path d="M2.083 5.024A1.4 1.4 0 004.068 5l.032-.037a5.678 5.678 0 018.028.085l.071.072a5.649 5.649 0 011.581 4.351 1.436 1.436 0 01.64.579v.011l1.437 2.5a8.505 8.505 0 00-1.714-9.581A8.608 8.608 0 008.1.5a8.52 8.52 0 00-6.047 2.479l-.029.03a1.4 1.4 0 00.029 1.985zm6.209 11.859a1.458 1.458 0 01.205-.707l.888-1.589a5.662 5.662 0 01-5.318-1.582l-.03-.03a1.4 1.4 0 00-1.985.03l-.03.029a1.405 1.405 0 00.03 1.986A8.61 8.61 0 008.1 17.5c.108 0 .216 0 .324-.006a1.358 1.358 0 01-.132-.611z" fill="#0072c6"/><path d="M17.389 16.53L15.6 13.519l-1.788-3.1a.627.627 0 00-1.128 0L10.9 13.331l-1.787 3.2a.66.66 0 00.564 1.035h7.15a.66.66 0 00.564-1.035zm-4.045-4.23h.471l-.189 2.729h-.752L12.78 12.3zm-.094 4.139a.565.565 0 11.565-.564.563.563 0 01-.565.564z" fill="#ff8c00"/></g></svg>