<svg xmlns="http://www.w3.org/2000/svg" width="18" height="18" viewBox="0 0 18 18"><defs><linearGradient id="a" x1="7.955" y1="3.547" x2="7.955" y2="12.614" gradientUnits="userSpaceOnUse"><stop offset="0" stop-color="#5ea0ef"/><stop offset="1" stop-color="#0078d4"/></linearGradient><linearGradient id="b" x1="13.499" y1="8.479" x2="13.499" y2="18.277" gradientUnits="userSpaceOnUse"><stop offset=".232" stop-color="#50e6ff"/><stop offset="1" stop-color="#32bedd"/></linearGradient></defs><path d="M15.91 3.547v8.558a.52.52 0 01-.531.5H.531A.514.514 0 010 12.093V3.547z" fill="url(#a)"/><path d="M15.91 3.547H0V.791A.514.514 0 01.531.279h14.835a.513.513 0 01.53.512v2.756z" fill="#0078d4"/><path d="M15.91 7.6v4.619a.519.519 0 01-.531.5h.531z" fill="#fff"/><path d="M17.022 17.72H9.975A.983.983 0 019 16.742V9.711a.983.983 0 01.978-.978h7.047a.978.978 0 01.975.978v7.032a.978.978 0 01-.978.978z" fill="url(#b)"/><path d="M13.5 2.563H2.409a.269.269 0 01-.272-.263v-.8a.268.268 0 01.272-.262H13.5a.268.268 0 01.272.262v.814a.267.267 0 01-.272.249zm-.744 10.474l-1.9-1.9a.117.117 0 00-.165 0l-.257.258a.117.117 0 000 .165l1.65 1.645-1.614 1.619a.116.116 0 000 .164l.259.258a.115.115 0 00.164 0l1.87-1.875a.245.245 0 000-.337zm3.64 1.609h-2.92a.2.2 0 00-.2.2v.3a.2.2 0 00.2.2H16.4a.2.2 0 00.2-.2v-.3a.2.2 0 00-.2-.2z" fill="#fff"/></svg>