<svg version="1.0" xmlns="http://www.w3.org/2000/svg" width="560" height="196" viewBox="0 0 420 147"><g fill="#fff"><path d="M400.9 2.3c-4.5 3-6.1 6.3-5.6 11.6 1.2 11.7 16.5 15 22.7 4.8 3.7-6 1.4-13.9-4.9-17.2-4.2-2.1-8.2-1.9-12.2.8zm14.2 2.6c5.7 5.8 3.1 15.8-4.8 18-7.2 2-13.3-2.9-13.3-10.7C397 5.9 401 2 407.5 2c3.8 0 5.2.5 7.6 2.9z"/><path d="M404.1 12.2c0 4.2.2 4.8.9 3 .5-1.2 1.3-2.2 1.8-2.2s1.7 1 2.6 2.2c1.6 2.3 1.6 2.3.6.1-.7-1.4-.7-2.4 0-2.8 1.6-1 1.2-4.2-.6-4.9-4.4-1.7-5.4-.8-5.3 4.6zm4.8-3.3c1.8 1.1.5 3.1-2 3.1-1.8 0-2.6-2-1.2-3.3.8-.9 1.5-.9 3.2.2zM9.6 9c-3.4 1.1-6.3 3.6-8.2 7.2-2.1 4-2.1 74.6 0 78.6 5 9.6 17.3 10.7 22.6 2 1.9-3.2 2-5 2-41.2s-.1-38-2-41.1C21.2 10 14.7 7.5 9.6 9zM320 51.8c0 29.9.6 33.9 6.3 41.3 1.7 2.3 5.7 5.6 8.7 7.3 4.9 2.8 6.4 3.1 13.5 3.1 6.7 0 8.8-.5 13.1-2.7 9.7-5.1 14.5-12.7 15.2-23.9.4-6.6.1-8.4-2-13-5-11-14.3-16.9-26.3-16.9-4.2.1-8 .6-9.5 1.5-4.8 2.8-5 2.4-5-11V25h-14v26.8zM356.5 63c8.7 5.4 8.4 18.8-.5 24.8-7.1 4.8-17.3 1.2-20.5-7.3-2.4-6.2-1.3-10.9 3.5-15.7 3.4-3.4 4.3-3.8 9-3.8 3.5 0 6.3.7 8.5 2zm24.5 1v39h14V25h-14v39zM41.1 36.8c-1.4.2-3.5 1.1-4.8 1.9-4.9 3.3-5.3 5.4-5.3 31 0 22.1.2 24 2 27.1 3.9 6.4 13.5 7.9 18.7 3 5-4.7 5.3-6.2 5.3-30 0-19.3-.2-22.8-1.8-25.7-2.8-5.6-8.2-8.4-14.1-7.3zm29.2 8.3c-3.9 1.1-8 5.9-8.8 10.2-.4 1.8-.5 11.2-.3 20.9.3 16 .5 17.9 2.4 20.5 5.4 7.4 14.1 8.1 20.1 1.6l3.3-3.4V74.4c0-22-.5-24.5-5.2-27.6-3.2-2.1-7.7-2.8-11.5-1.7zm67.2 3.1c-5.2 1.8-9.6 5.9-12.1 11.2-2.2 4.8-2.4 6.2-2.4 24.3V103h14V85.9c0-13.6.3-17.8 1.6-20.5 2-4.1 6.6-5.7 12-4.3 5.6 1.6 6.4 4.8 6.4 24.9v17h15.3l-.6-18.8c-.3-11.4-1-20.3-1.9-22.7-1.7-5.3-8.2-11.7-13.4-13.3-4.9-1.4-14.7-1.5-18.9 0zm105.4 1.1c-5.7 3-10.4 9.3-11.8 15.7-.6 2.8-1.1 12.5-1.1 21.5V103h14V88.7c.1-22.8 2-27.7 10.7-27.7 9.9 0 11.3 3.1 11.3 25.5V103h14V87.2c0-22.6 1.5-26.2 11-26.2s11 3.6 11 26.2V103h14V85.7c0-19.8-1.2-25.5-6.3-31.4-4.5-5.1-9.8-7.3-18-7.3-7.2 0-12.7 1.7-16.4 5.2l-2.2 2-2.3-2.2c-3.7-3.6-8.2-5-16.1-5-5.8 0-8.3.5-11.8 2.3zm-66.7 31.9c.3 18.6.5 20.6 2.5 24.5 4.8 8.9 13.4 13 24.8 12 5.8-.6 6.5-.4 6.5 1.2 0 .9-1.1 2.8-2.4 4-2.9 2.7-9.4 3.1-13.1.7-1.7-1.1-4.7-1.6-10-1.6-4.1 0-7.5.2-7.5.5 0 1.9 4.4 8.7 7.2 11 10.3 8.7 26.7 7.5 35-2.5 5.2-6.4 5.8-10.5 5.8-41.7V61h-13.8l-.3 17.9c-.4 16.4-.6 18.2-2.5 20.8-2.6 3.5-6.1 4.8-10.7 3.9-6.4-1.2-7.1-3.5-7.5-24.4l-.4-18.2h-14l.4 20.2zM321 127c0 10.3.1 11 2 11 1.6 0 2-.7 2-3.5V131h7.3c9.4 0 11.2-1.2 11.2-7.5 0-6.6-1.6-7.5-13.2-7.5H321v11zm18.6-4.5c1 4.1-1 5.5-8.2 5.5H325v-8h7c6.6 0 7 .1 7.6 2.5zm13.6-5.3c-1.1 1.4-10.2 19.5-10.2 20.3 0 1.6 4 .1 5.4-2 1.5-2.2 2.3-2.5 8.1-2.5s6.6.3 8.1 2.5c1.4 2.2 5.4 3.6 5.4 1.9 0-1.2-10.4-19.9-11.4-20.6-1.7-1.2-4.2-.9-5.4.4zm6.3 7.8l2.5 5h-11l2.5-5c1.4-2.8 2.7-5 3-5 .3 0 1.6 2.2 3 5zm7.5-8.5c0 .3 2.3 3.6 5 7.4 3.8 5.2 5 7.7 5 10.5 0 2.9.4 3.6 2 3.6s2-.7 2-3.1c0-2.1 1.7-5.2 5.5-10.4 3-4.1 5.5-7.7 5.5-8 0-.3-.9-.5-1.9-.5-1.3 0-3.5 2.2-6.2 6-2.3 3.3-4.3 6-4.4 6-.1 0-2.1-2.7-4.4-6-2.7-3.8-4.9-6-6.2-6-1 0-1.9.2-1.9.5z"/></g></svg>