<svg xmlns="http://www.w3.org/2000/svg" width="512" height="512" viewBox="0 0 512 512"><defs><clipPath id="a"><path d="M0 0h512v512H0z"/></clipPath></defs><g data-name="Nymbl Pos" clip-path="url(#a)"><path fill="#20d3b5" d="M0 0h512v512H0z"/><g data-name="Group 31"><g data-name="Pos Logo-01" fill="#fff"><path data-name="Path 1001" d="M166.628 118.022a38.67 38.67 0 0138.564 38.563v199.409a38.669 38.669 0 01-38.564 38.564 38.669 38.669 0 01-38.564-38.564V156.585a38.67 38.67 0 0138.564-38.563z"/><path data-name="Path 1002" d="M255.929 199.816a38.669 38.669 0 0138.564 38.563v117.616a38.669 38.669 0 01-38.564 38.563 38.67 38.67 0 01-38.563-38.563V238.379a38.68 38.68 0 0138.563-38.563z"/><path data-name="Path 1003" d="M345.244 223.186a38.67 38.67 0 0138.564 38.564v94.246a38.669 38.669 0 01-38.564 38.563 38.669 38.669 0 01-38.56-38.563V261.75a38.67 38.67 0 0138.56-38.564z"/></g></g></g></svg>