<svg xmlns="http://www.w3.org/2000/svg" width="18" height="18" viewBox="0 0 18 18"><defs><linearGradient id="a" x1="9" y1="8.112" x2="9" y2="19.5" gradientTransform="matrix(1 0 0 -1 0 20)" gradientUnits="userSpaceOnUse"><stop offset=".251" stop-color="#32bedd"/><stop offset=".83" stop-color="#50e6ff"/></linearGradient><linearGradient id="b" x1="-120.971" y1="1279.27" x2="-120.971" y2="1293.115" gradientTransform="scale(1 -1) rotate(-45 -1620.203 482.207)" gradientUnits="userSpaceOnUse"><stop offset="0" stop-color="#0078d4"/><stop offset=".142" stop-color="#077bd6"/><stop offset=".345" stop-color="#1a83db"/><stop offset=".584" stop-color="#3990e4"/><stop offset=".82" stop-color="#5ea0ef"/></linearGradient></defs><path d="M17.026 8.314A3.612 3.612 0 0013.9 4.845 4.548 4.548 0 009.214.5a4.665 4.665 0 00-4.459 3.043A4.3 4.3 0 00.974 7.681a4.37 4.37 0 004.521 4.2h7.714a.715.715 0 00.2 0 3.647 3.647 0 003.617-3.567z" fill="url(#a)"/><path d="M12.3 10.954a1.6 1.6 0 001.6-1.6V5.478A1.57 1.57 0 0012.335 3.9H8.429a1.6 1.6 0 00-1.587 1.6v3.22a.464.464 0 01-.134.28L3.7 12.042a.537.537 0 00-.161.384v1.462a.357.357 0 00.348.366h2.286a.205.205 0 00.205-.205v-.589a.232.232 0 01.232-.232h.606a.205.205 0 00.206-.205v-.633a.222.222 0 01.222-.223h.607a.205.205 0 00.214-.2v-.847l.152-.161zm.339-5.8a.911.911 0 11-.024-.023z" fill="url(#b)"/><path d="M15.171 14.2a1.587 1.587 0 001.588-1.587v-3.88a1.588 1.588 0 00-1.588-1.587H11.3a1.6 1.6 0 00-1.6 1.6v3.229a.424.424 0 01-.134.312l-3.001 3.001a.543.543 0 00-.151.384v1.471a.356.356 0 00.356.357h2.275a.205.205 0 00.205-.2v-.607a.223.223 0 01.223-.223h.606a.2.2 0 00.205-.2v-.615a.223.223 0 01.223-.223h.607a.205.205 0 00.205-.205v-.865l.16-.152zm.33-5.788a.9.9 0 11-1.275 0 .9.9 0 011.274 0z" fill="#50e6ff"/><path d="M7.083 15.734a.2.2 0 00.205.187.2.2 0 00.134-.062l2.47-2.4a.22.22 0 00.062-.187.2.2 0 00-.33-.089l-2.479 2.4a.248.248 0 00-.062.151z" fill="#fff"/><rect x="13.048" y="8.334" width=".535" height="4.521" rx=".241" transform="rotate(-45 13.316 10.594)" fill="#fff"/><rect x="12.436" y="8.948" width=".535" height="4.521" rx=".241" transform="rotate(-45 12.703 11.208)" fill="#fff"/>​</svg>