<svg xmlns="http://www.w3.org/2000/svg" width="18" height="18" viewBox="0 0 18 18"><defs><linearGradient id="a" x1="13.184" y1="785.911" x2="13.295" y2="775.606" gradientTransform="matrix(1 0 0 -1 0 791.516)" gradientUnits="userSpaceOnUse"><stop offset="0" stop-color="#a67af4"/><stop offset="1" stop-color="#773adc"/></linearGradient><linearGradient id="b" x1="5.96" y1="786.83" x2="6.138" y2="770.358" gradientTransform="matrix(1 0 0 -1 0 791.516)" gradientUnits="userSpaceOnUse"><stop offset="0" stop-color="#32d4f5"/><stop offset="1" stop-color="#198ab3"/></linearGradient><linearGradient id="c" x1="6.083" y1="14.789" x2="6.203" y2="3.648" gradientUnits="userSpaceOnUse"><stop offset="0" stop-color="#0078d4"/><stop offset="1" stop-color="#5ea0ef"/></linearGradient></defs><path d="M17.659 15.318H8.917c-.281 0-.444-.444-.29-.68l3.011-4.389a.306.306 0 00.063-.2v-2.9a.181.181 0 00-.172-.173h-.163a.345.345 0 01-.345-.344v-.156a.345.345 0 01.345-.344H15.2a.344.344 0 01.344.344v.155a.344.344 0 01-.344.344h-.163a.172.172 0 00-.173.173v2.91a.327.327 0 00.064.2l3.01 4.38c.162.227-.007.68-.279.68z" fill="url(#a)"/><path d="M9.924 14.139l2.285-3.339a.856.856 0 00.182-.471V8.988a.263.263 0 01.263-.263h1.3a.263.263 0 01.263.263v1.433a.555.555 0 00.1.318l2.34 3.4a.21.21 0 01-.163.318h-6.343a.2.2 0 01-.227-.318z" fill="#552f99"/><path d="M11.723 16.484H.451c-.363 0-.573-.573-.374-.877l3.882-5.659a.406.406 0 00.082-.258V5.949a.234.234 0 00-.223-.223h-.21a.444.444 0 01-.444-.444v-.2a.444.444 0 01.444-.444h4.946A.444.444 0 019 5.083v.2a.444.444 0 01-.445.444h-.21a.222.222 0 00-.222.223V9.7a.423.423 0 00.081.257l3.883 5.648c.197.295-.013.879-.364.879z" fill="url(#b)"/><path d="M1.749 14.964l2.946-4.3a1.1 1.1 0 00.234-.608V8.322a.339.339 0 01.339-.339h1.684a.339.339 0 01.339.339v1.848a.714.714 0 00.129.409l3.017 4.385a.269.269 0 01-.088.37.266.266 0 01-.123.039H2.041a.257.257 0 01-.292-.409z" fill="url(#c)"/><circle cx="5.429" cy="4.313" r=".856" fill="#0078d4"/><circle cx="7.197" cy="2.106" r=".59" fill="#0078d4"/><circle cx="6.756" cy="6.487" r=".59" fill="#0078d4"/>​</svg>