<svg xmlns="http://www.w3.org/2000/svg" width="18" height="18" viewBox="0 0 18 18"><defs><linearGradient id="a" x1="8.819" y1="13.816" x2="9.017" y2="-4.795" gradientUnits="userSpaceOnUse"><stop offset="0" stop-color="#773adc"/><stop offset=".88" stop-color="#b796f9"/></linearGradient><linearGradient id="b" x1="6.427" y1="768.784" x2="6.427" y2="788.352" gradientTransform="matrix(1 0 0 -1 0 791.516)" gradientUnits="userSpaceOnUse"><stop offset="0" stop-color="#773adc"/><stop offset=".869" stop-color="#b796f9"/></linearGradient></defs><path d="M17.591.418A1.4 1.4 0 0016.6.009H6.544a1.407 1.407 0 00-1.4 1.4v10.065a1.407 1.407 0 001.4 1.4H16.6a1.4 1.4 0 001.4-1.4V1.407a1.4 1.4 0 00-.409-.989z" fill="#773adc"/><path d="M14.886 3.123a1.4 1.4 0 00-.989-.409H3.839a1.407 1.407 0 00-1.4 1.4v10.065a1.407 1.407 0 001.4 1.4H13.9a1.4 1.4 0 001.4-1.4V4.112a1.4 1.4 0 00-.414-.989z" fill="url(#a)"/><path d="M11.456 17.991H1.4a1.407 1.407 0 01-1.4-1.4V6.526a1.407 1.407 0 011.4-1.4h10.056a1.4 1.4 0 011.4 1.4v10.067a1.4 1.4 0 01-1.4 1.4z" fill="url(#b)"/><path d="M4.48 13.637a.333.333 0 00-.325.34v.68A.333.333 0 004.48 15h6.161a.332.332 0 00.324-.34v-.68a.332.332 0 00-.324-.34zm-2.591.331a.331.331 0 01.33-.331h.7a.331.331 0 01.331.331v.7a.331.331 0 01-.332.332h-.7a.331.331 0 01-.33-.331zm2.591-3.089a.334.334 0 00-.325.34v.68a.333.333 0 00.325.34h6.161a.332.332 0 00.324-.34v-.68a.333.333 0 00-.324-.34zm-2.591.331a.331.331 0 01.33-.331h.7a.331.331 0 01.331.331v.7a.331.331 0 01-.331.33h-.7a.33.33 0 01-.33-.33zM4.48 8.122a.333.333 0 00-.325.34v.68a.334.334 0 00.325.34h6.161a.333.333 0 00.324-.34v-.68a.332.332 0 00-.324-.34zm-2.591.33a.33.33 0 01.33-.33h.7a.331.331 0 01.331.33v.7a.331.331 0 01-.331.331h-.7a.331.331 0 01-.33-.331z" fill="#fff"/></svg>