<svg xmlns="http://www.w3.org/2000/svg" width="18" height="18" viewBox="0 0 18 18"><defs><linearGradient id="a" x1="11.565" y1="14.729" x2="12.577" y2="14.729" gradientUnits="userSpaceOnUse"><stop offset=".001" stop-color="#773adc"/><stop offset="1" stop-color="#552f99"/></linearGradient><linearGradient id="b" x1="6.415" y1="5.733" x2="7.427" y2="5.733" gradientUnits="userSpaceOnUse"><stop offset=".001" stop-color="#773adc"/><stop offset="1" stop-color="#552f99"/></linearGradient><linearGradient id="c" x1="1.265" y1="14.729" x2="2.278" y2="14.729" gradientUnits="userSpaceOnUse"><stop offset=".001" stop-color="#773adc"/><stop offset="1" stop-color="#552f99"/></linearGradient></defs><path d="M12.85 2.257L9 4.517l-3.85-2.26L9 0zm-6.7 8.091l-.73-.43L3.854 9 0 11.248l3.85 2.26 3.85-2.26zm8-1.35l-1.57.92-.73.43-1.55.9 3.11 1.83.74.43.36-.21 3.49-2.05z" fill="#b796f9"/><path d="M9 4.518V9l-1.56-.91-.73-.43-1.56-.91V2.258l3.49 2.05zm-9 6.735v4.49L3.854 18v-4.487zm13.414 1.825v-.01l-3.11-1.82v4.5L14.154 18v-4.49z" fill="#a67af4"/><path d="M12.081 13.49a1.081 1.081 0 01.492.935.285.285 0 01-.248.287h-.024l.206.912.062.278c.022.108-.035.165-.119.116l-.139-.079-.138-.08q-.242-.141-.483-.278a.273.273 0 01-.119-.26c.09-.277.175-.557.262-.836.009-.027.007-.043-.019-.078a.99.99 0 01-.238-.7c.023-.217.137-.315.324-.286a.545.545 0 01.181.069z" fill="url(#a)"/><path d="M12.854 2.258v4.49l-1.56.91-.73.43L9 9V4.508zm-8.26 10.81v.01l-.74.43V18l3.85-2.25v-4.5zm9.56.437V18L18 15.743v-4.49zM7.7 13.088v.85h2.6v-.85zm-.99-5.43l-1.29 2.26.73.43 1.29-2.26zm4.58 0l-.73.43 1.29 2.26.73-.43z" fill="#773adc"/><path d="M6.932 4.5a1.08 1.08 0 01.491.935.285.285 0 01-.247.286h-.025l.206.912.062.279c.02.093-.035.164-.119.115l-.139-.079-.138-.08-.483-.28a.273.273 0 01-.119-.26c.09-.277.175-.557.262-.836.009-.027.007-.043-.019-.078a.99.99 0 01-.238-.7c.023-.217.138-.315.325-.285a.539.539 0 01.181.071z" fill="url(#b)"/><path d="M1.782 13.49a1.082 1.082 0 01.491.935.285.285 0 01-.247.287h-.025l.206.912.062.278c.023.108-.035.165-.119.116l-.139-.079-.138-.08q-.242-.141-.483-.278a.273.273 0 01-.119-.26c.09-.277.175-.557.263-.836.009-.027.006-.043-.02-.078a.99.99 0 01-.238-.7c.023-.217.138-.315.325-.286a.562.562 0 01.181.069z" fill="url(#c)"/></svg>