<svg xmlns="http://www.w3.org/2000/svg" width="18" height="18" viewBox="0 0 18 18"><defs><linearGradient id="a" x1="8.898" y1="16.345" x2="8.898" y2="1.887" gradientUnits="userSpaceOnUse"><stop offset=".001" stop-color="#773adc"/><stop offset="1" stop-color="#a67af4"/></linearGradient></defs><path d="M7.855 2.526h-.608a.431.431 0 01-.431-.426V.431A.431.431 0 017.247 0h.608a.43.43 0 01.43.431V2.1a.43.43 0 01-.43.426zm3.124-.426V.431A.431.431 0 0010.548 0h-.607a.431.431 0 00-.431.431V2.1a.431.431 0 00.431.431h.607a.431.431 0 00.431-.431zM8.285 17.612v-1.274a.388.388 0 00-.385-.388h-.7a.388.388 0 00-.388.388v1.274A.388.388 0 007.2 18h.7a.388.388 0 00.385-.388zm2.694 0v-1.274a.388.388 0 00-.388-.388H9.9a.388.388 0 00-.388.388v1.274A.388.388 0 009.9 18h.693a.388.388 0 00.386-.388zm4.8-9.114h1.777A.445.445 0 0018 8.053V7.46a.445.445 0 00-.445-.445h-1.777a.445.445 0 00-.445.445v.593a.445.445 0 00.445.447zm0 2.719h1.777a.445.445 0 00.444-.445v-.594a.444.444 0 00-.445-.444h-1.777a.444.444 0 00-.445.444v.594a.445.445 0 00.445.445zM.385 8.5h1.23A.385.385 0 002 8.113V7.4a.385.385 0 00-.385-.385H.385A.385.385 0 000 7.4v.713a.385.385 0 00.385.387zm0 2.719h1.23A.385.385 0 002 10.832v-.713a.385.385 0 00-.385-.385H.385a.385.385 0 00-.385.385v.713a.385.385 0 00.385.385z" fill="#773adc"/><rect x="1.734" y="1.887" width="14.327" height="14.458" rx=".88" fill="url(#a)"/><path fill="#50e6ff" d="M12.097 7.198v3.604l-3.093 1.81V9l3.093-1.802z"/><path fill="#c3f1ff" d="M12.097 7.198l-3.093 1.81-3.101-1.81 3.101-1.81 3.093 1.81z"/><path fill="#9cebff" d="M9.004 9.008v3.604l-3.101-1.81V7.198l3.101 1.81z"/><path fill="#c3f1ff" d="M5.903 10.802L9.004 9v3.612l-3.101-1.81z"/><path fill="#9cebff" d="M12.097 10.802L9.004 9v3.612l3.093-1.81z"/></svg>