<svg xmlns="http://www.w3.org/2000/svg" width="18" height="18" viewBox="0 0 18 18"><defs><linearGradient id="a" x1="-51.062" y1="349.229" x2="-51.062" y2="345.247" gradientTransform="rotate(-30 -652.127 66.007)" gradientUnits="userSpaceOnUse"><stop offset="0" stop-color="#eeaa45"/><stop offset="1" stop-color="#f4cf97"/></linearGradient><linearGradient id="b" x1="9.026" y1="14.515" x2="9.026" y2="3.541" gradientUnits="userSpaceOnUse"><stop offset="0" stop-color="#0078d4"/><stop offset="1" stop-color="#5ea0f0"/></linearGradient></defs><circle cx="9.026" cy="9.028" r="1.991" fill="url(#a)"/><rect x="8.209" y=".013" width="1.634" height="4.658" rx=".817" fill="#82bbff"/><rect x="8.209" y="13.329" width="1.634" height="4.658" rx=".817" fill="#82bbff"/><g fill="#82bbff"><rect x="14.597" y="6.699" width="1.634" height="4.658" rx=".817" transform="rotate(90 15.414 9.028)"/><rect x="1.769" y="6.699" width="1.634" height="4.658" rx=".817" transform="rotate(90 2.586 9.028)"/></g><path d="M9.026 14.515a5.487 5.487 0 115.487-5.487 5.493 5.493 0 01-5.487 5.487zm0-9.553a4.066 4.066 0 104.066 4.066 4.071 4.071 0 00-4.066-4.066z" fill="url(#b)"/></svg>