<svg xmlns="http://www.w3.org/2000/svg" width="18" height="18" viewBox="0 0 18 18"><defs><linearGradient id="a" x1="9" y1="2.619" x2="9" y2="15.381" gradientUnits="userSpaceOnUse"><stop offset="0" stop-color="#5ea0ef"/><stop offset="1" stop-color="#0078d4"/></linearGradient><linearGradient id="b" x1="9.001" y1="6.17" x2="9.001" y2="15.458" gradientUnits="userSpaceOnUse"><stop offset=".33" stop-color="#b4ec36"/><stop offset="1" stop-color="#86d633"/></linearGradient><linearGradient id="c" x1="9" y1="9.652" x2="9" y2="15.442" gradientUnits="userSpaceOnUse"><stop offset=".429" stop-color="#86d633"/><stop offset=".999" stop-color="#76bc2d"/></linearGradient></defs><path d="M18 11.383a4.093 4.093 0 01-3.667 3.922 3.919 3.919 0 01-.394.021.825.825 0 01-.216.033H5.516a5.029 5.029 0 01-.431.019H5.07A4.894 4.894 0 010 10.677a4.824 4.824 0 014.244-4.648 5.228 5.228 0 015-3.407A5.1 5.1 0 0114.49 7.5 4.042 4.042 0 0118 11.383z" fill="url(#a)"/><path d="M11.441 9.279h-1.295a.15.15 0 00-.15.15v5.93H8v-5.93a.15.15 0 00-.15-.15H6.56a.15.15 0 01-.113-.248L8.886 6.2a.151.151 0 01.228 0l2.441 2.827a.15.15 0 01-.114.252z" fill="url(#b)"/><path d="M13.51 9.693l-1.642 1.9a.15.15 0 00.114.248h.783a.151.151 0 01.15.151v3.366h.808a.825.825 0 00.216-.033 3.919 3.919 0 00.394-.021v-3.311a.151.151 0 01.15-.151h.783a.15.15 0 00.114-.248l-1.642-1.9a.15.15 0 00-.228-.001zm-9.248 0l-1.642 1.9a.15.15 0 00.114.248h.783a.151.151 0 01.15.151v3.233a4.9 4.9 0 001.4.152h.015v-3.384a.151.151 0 01.15-.151h.783a.15.15 0 00.114-.248L4.49 9.693a.15.15 0 00-.228 0z" opacity=".9" fill="url(#c)"/></svg>