<svg xmlns="http://www.w3.org/2000/svg" width="18" height="18" viewBox="0 0 18 18"><defs><linearGradient id="a" x1="-235" y1="996.992" x2="-235" y2="979.11" gradientTransform="matrix(1 0 0 -1 244 997.516)" gradientUnits="userSpaceOnUse"><stop offset=".18" stop-color="#5ea0ef"/><stop offset="1" stop-color="#0078d4"/></linearGradient><linearGradient id="b" x1="-234.949" y1="812.064" x2="-234.949" y2="803.315" gradientTransform="translate(244 -798)" gradientUnits="userSpaceOnUse"><stop offset="0" stop-color="#86d633"/><stop offset=".596" stop-color="#a4e434"/><stop offset=".999" stop-color="#b4ec36"/></linearGradient><linearGradient id="c" x1="9.051" y1="11.847" x2="9.051" y2="7.673" gradientUnits="userSpaceOnUse"><stop offset="0" stop-color="#5e9624"/><stop offset=".111" stop-color="#64a026"/><stop offset=".348" stop-color="#6eaf2a"/><stop offset=".619" stop-color="#74b92c"/><stop offset=".999" stop-color="#76bc2d"/></linearGradient></defs><path d="M17.966 11.442a4.104 4.104 0 00-3.497-3.985 5.13 5.13 0 00-5.23-4.981 5.23 5.23 0 00-4.981 3.477 4.842 4.842 0 00-4.224 4.762 4.98 4.98 0 005.051 4.802h8.617c.073.01.146.01.219 0a4.115 4.115 0 004.045-4.075z" fill="url(#a)"/><path d="M10.457 6.85l-.424-.26a.324.324 0 01-.133-.163l-.323-.902a.317.317 0 00-.299-.21h-.54a.317.317 0 00-.306.234l-.229.844a.316.316 0 01-.181.208l-.424.183a.318.318 0 01-.258-.003l-.85-.391a.318.318 0 00-.361.068l-.381.397a.318.318 0 00-.054.364l.417.814a.319.319 0 01.013.26l-.164.418a.313.313 0 01-.202.187l-.911.281a.317.317 0 00-.224.303v.536c0 .143.096.268.233.306l.832.228a.32.32 0 01.208.18l.183.425a.317.317 0 01-.002.256l-.38.842a.317.317 0 00.067.357l.399.392a.317.317 0 00.369.055l.798-.414a.322.322 0 01.263-.014l.43.17a.32.32 0 01.18.182l.335.876a.317.317 0 00.296.204h.551a.317.317 0 00.3-.214l.275-.802a.318.318 0 01.142-.172l.397-.228a.317.317 0 01.286-.015l.758.336a.32.32 0 00.355-.068l.398-.406a.317.317 0 00.06-.36l-.344-.717a.318.318 0 01-.005-.265l.182-.416a.318.318 0 01.193-.175l.872-.281a.317.317 0 00.22-.302v-.522a.317.317 0 00-.235-.306l-.863-.232a.318.318 0 01-.194-.15l-.211-.374a.32.32 0 01-.016-.281l.329-.771a.317.317 0 00-.072-.353l-.407-.392a.318.318 0 00-.354-.059l-.698.325a.316.316 0 01-.3-.017zm-2.82 3.544a.313.313 0 01-.093-.211C7.496 8.376 9.175 7.88 10.062 8.72a1.45 1.45 0 01-2.018 2.081l-.406-.407z" fill="url(#b)"/><ellipse cx="9.051" cy="9.76" rx="2.078" ry="2.087" fill="url(#c)"/><path d="M10.066 8.829l-1.439 1.446-.701-.701-.035-.029a.252.252 0 00-.321.384l.879.88.035.029a.25.25 0 00.32-.03l1.62-1.624.029-.035a.252.252 0 00-.384-.32h-.004z" fill="#fff"/></svg>