<svg xmlns="http://www.w3.org/2000/svg" width="18" height="18" viewBox="0 0 18 18"><defs><linearGradient id="a" x1="9.033" y1="10.305" x2="9.033" y2="7.695" gradientUnits="userSpaceOnUse"><stop offset="0" stop-color="#5e9624"/><stop offset=".241" stop-color="#6fb02a"/><stop offset=".501" stop-color="#7cc52f"/><stop offset=".756" stop-color="#83d232"/><stop offset="1" stop-color="#86d633"/></linearGradient></defs><path d="M9.031 7.7A1.305 1.305 0 1010.338 9a1.305 1.305 0 00-1.307-1.3z" fill="url(#a)"/><path d="M6.34 13.375l-.626.629a.284.284 0 01-.402 0L.673 9.38a.568.568 0 010-.804l.626-.629 5.04 5.027a.284.284 0 01.002.402z" fill="#50e6ff"/><path d="M5.62 3.996l.627.626a.284.284 0 010 .402L1.295 9.99l-.626-.624a.568.568 0 010-.803L5.22 3.999a.284.284 0 01.401 0z" fill="#1490df"/><path d="M16.702 7.947l.627.629a.568.568 0 01-.001.803l-4.639 4.626a.284.284 0 01-.402 0l-.627-.63a.284.284 0 01.001-.401l5.041-5.027z" fill="#50e6ff"/><path d="M17.333 9.364l-.629.627-4.953-4.967a.284.284 0 010-.402l.628-.626a.284.284 0 01.402 0l4.552 4.566a.568.568 0 010 .803z" fill="#1490df"/></svg>