<svg xmlns="http://www.w3.org/2000/svg" width="18" height="18" viewBox="0 0 18 18"><defs><linearGradient id="a" x1="9" y1="3.474" x2="9" y2="18.601" gradientUnits="userSpaceOnUse"><stop offset=".215" stop-color="#5ea0ef"/><stop offset="1" stop-color="#0078d4"/></linearGradient><linearGradient id="b" x1="8.974" y1="-.698" x2="8.974" y2="9.083" gradientUnits="userSpaceOnUse"><stop offset=".225" stop-color="#a67af4"/><stop offset=".999" stop-color="#773adc"/></linearGradient></defs><path d="M9.851 12.53a.877.877 0 00-.627.261l-.007.007a.358.358 0 01-.505-.006.352.352 0 01-.1-.262L8.6 9.546a.282.282 0 00-.14-.246L6.428 8.122a1.6 1.6 0 01-.186.5 1.6 1.6 0 01-2.19.586 1.612 1.612 0 01-.588-2.194A1.584 1.584 0 013.8 6.6L1.433 5.227a.285.285 0 00-.427.247l.008 5.089v2.87a.568.568 0 00.284.492l6.885 3.989a.285.285 0 00.428-.247v-3.371a.361.361 0 01.617-.26.881.881 0 001.51-.618.891.891 0 00-.887-.888zm3.708-5.594a.359.359 0 01-.527-.405.875.875 0 00-.087-.678.882.882 0 10-.984 1.3.361.361 0 01.268.335.372.372 0 01-.2.334L9.466 9.3a.284.284 0 00-.143.247v2.35a1.593 1.593 0 01.525-.087 1.612 1.612 0 011.605 1.607 1.6 1.6 0 01-1.6 1.6 1.642 1.642 0 01-.525-.087v2.781a.285.285 0 00.427.246l6.947-4.01a.571.571 0 00.285-.5v-2.452l-.009-5.551a.285.285 0 00-.427-.246z" fill="url(#a)"/><path d="M13.755 5.992a1.647 1.647 0 00-.187-.5 1.6 1.6 0 10-2.435 2.014l-2.027 1.17a.285.285 0 01-.285 0L6.242 7.181a.366.366 0 00-.289-.042.362.362 0 00-.249.444.882.882 0 11-1.077-.625.339.339 0 00.248-.215.37.37 0 00-.173-.45L1.753 4.579a.285.285 0 010-.493L8.7.076a.569.569 0 01.57 0l6.93 4.015a.285.285 0 010 .493z" fill="url(#b)"/></svg>