<svg xmlns="http://www.w3.org/2000/svg" width="18" height="18" viewBox="0 0 18 18"><defs><linearGradient id="a" x1="9" y1="17.253" x2="9" y2=".747" gradientUnits="userSpaceOnUse"><stop offset="0" stop-color="#50e6ff"/><stop offset="1" stop-color="#9cebff"/></linearGradient></defs><path d="M16.364 8.4c0 4.84-5.849 8.736-7.122 9.526a.459.459 0 01-.484 0c-1.273-.79-7.122-4.686-7.122-9.526V2.582a.463.463 0 01.452-.462C6.638 2 5.59 0 9 0s2.362 2 6.912 2.12a.463.463 0 01.452.462z" fill="#50e6ff"/><path d="M15.754 8.454c0 4.438-5.365 8.011-6.532 8.736a.418.418 0 01-.444 0c-1.167-.725-6.532-4.3-6.532-8.736v-5.34a.425.425 0 01.415-.423C6.834 2.578 5.873.747 9 .747s2.166 1.831 6.339 1.944a.425.425 0 01.415.423z" fill="url(#a)"/><circle cx="9.854" cy="8.037" r="1.281" fill="#fff"/><circle cx="8.014" cy="11.159" r=".865" fill="#fff"/><circle cx="7.39" cy="4.571" r="1.073" fill="#fff"/><path fill="#e6e6e6" d="M12.234 11.646l-2.165-3.791-.215.124.176-.13-2.452-3.486-.448.326 2.172 3.088-4.813.397.046.559 4.767-.396-1.581 2.627.475.286 1.626-2.705 1.931 3.375.481-.274z"/><path d="M9.854 6.769a1.3 1.3 0 11-1.3 1.3v-.032a1.3 1.3 0 011.3-1.268zm-3.511-2.2A1.08 1.08 0 107.428 3.5H7.4a1.071 1.071 0 00-1.057 1.071zm-2.692 3.95a.865.865 0 10.864-.865.865.865 0 00-.864.865zm3.5 2.633a.872.872 0 10.878-.865H8.02a.866.866 0 00-.871.859zm3.85.7a1.008 1.008 0 101.014-1h-.006a.994.994 0 00-1.009.976z" fill="#fff"/>​</svg>