<svg xmlns="http://www.w3.org/2000/svg" width="18" height="18" viewBox="0 0 18 18"><path d="M15.149 2.271H2.851A1.608 1.608 0 001.514 4.75a21.829 21.829 0 011.4 3.123A2.019 2.019 0 004.766 9h8.467a2.02 2.02 0 001.849-1.127 21.829 21.829 0 011.4-3.123 1.608 1.608 0 00-1.333-2.479zm.434 1.919a22.611 22.611 0 00-1.5 3.322.7.7 0 01-.671.426H4.589a.7.7 0 01-.674-.432 22.575 22.575 0 00-1.5-3.316.584.584 0 01-.018-.6.489.489 0 01.452-.261h12.3a.489.489 0 01.452.261.584.584 0 01-.018.6z" fill="#ff8c00"/><path d="M15.149 2.271H9.708v1.062h5.441a.487.487 0 01.451.261.583.583 0 01-.017.6 22.611 22.611 0 00-1.5 3.322.7.7 0 01-.672.426h-3.7V9h3.525a2.02 2.02 0 001.849-1.127 21.829 21.829 0 011.4-3.123 1.608 1.608 0 00-1.336-2.479z" fill="#dd5900" opacity=".6"/><path d="M7.583 10.417h2.834v3.9H7.583z" fill="#fcd116"/><path d="M9 10.417h1.417v3.9H9z" fill="#dd5900" opacity=".4"/><path d="M13.579 17.058l-.656-2.29c-.21-.489-.39-.81-.956-.81H6.033c-.566 0-.746.321-.956.81l-.656 2.29a.325.325 0 00.321.442h8.516a.325.325 0 00.321-.442z" fill="#ff8c00"/><path d="M13.579 17.058l-.656-2.29c-.21-.489-.39-.81-.956-.81H9V17.5h4.258a.325.325 0 00.321-.442z" fill="#dd5900" opacity=".6"/><path d="M7.583 11.442a2.772 2.772 0 002.834 0v-1.025H7.583z" fill="#dd5900" opacity=".4"/><path d="M13.411.5H4.562c-.61 0-.577.7-.433.866S5.31 2.829 5.31 7.485a3.677 3.677 0 007.353 0c0-4.656 1-5.938 1.182-6.119A.53.53 0 0013.411.5z" fill="#fcd116"/><path d="M9 11.124a3.693 3.693 0 003.663-3.639c0-4.656 1-5.938 1.182-6.119A.53.53 0 0013.411.5H9z" fill="#dd5900" opacity=".3"/></svg>