<svg xmlns="http://www.w3.org/2000/svg" width="18" height="18" viewBox="0 0 18 18"><defs><linearGradient id="a" x1="11.841" y1="2.17" x2="11.841" y2="13.446" gradientUnits="userSpaceOnUse"><stop offset=".001" stop-color="#ffb34d"/><stop offset="1" stop-color="#faa21d"/></linearGradient><linearGradient id="b" x1="-2018.213" y1="1017.927" x2="-2018.213" y2="1009.817" gradientTransform="rotate(180 -1006.504 512.758)" gradientUnits="userSpaceOnUse"><stop offset="0" stop-color="#50e6ff"/><stop offset="1" stop-color="#32bedd"/></linearGradient></defs><path d="M.362 3.138A.362.362 0 010 2.777V.361A.362.362 0 01.362 0h2.266a.361.361 0 010 .722H.724v2.053a.363.363 0 01-.361.363zM18 2.777V.361A.362.362 0 0017.638 0h-2.266a.361.361 0 100 .722h1.9v2.053a.362.362 0 00.724 0zM2.99 17.639a.361.361 0 00-.362-.361H.724v-2.053a.362.362 0 00-.724 0v2.415a.362.362 0 00.362.36h2.266a.362.362 0 00.362-.361zm15.01 0v-2.414a.362.362 0 00-.724 0v2.053h-1.9a.361.361 0 100 .722h2.266a.362.362 0 00.358-.36z" fill="#faa21d"/><path d="M16.684 2.666v10.463a.318.318 0 01-.3.329h-5.756a.281.281 0 01-.281-.281V8.266a.945.945 0 00-.932-.866H7.279A.281.281 0 017 7.12V2.666a.316.316 0 01.3-.33h9.08a.318.318 0 01.304.33z" fill="url(#a)"/><path d="M15.118 6.405h-1.79a.327.327 0 01-.285-.356.328.328 0 01.285-.357h1.79a.328.328 0 01.286.357.327.327 0 01-.286.356z" fill="#f78d1e"/><path d="M9.414 7.823H1a.53.53 0 00-.511.477v5.687a.524.524 0 00.511.476h2.784a.08.08 0 01.081.079v.958a.191.191 0 00.208.164.181.181 0 00.086-.035l.278-.181.77-.51.7-.466a.11.11 0 01.052-.017h3.455a.509.509 0 00.511-.468V8.3a.523.523 0 00-.511-.477z" fill="url(#b)"/><path d="M3.3 12.412H1.929c-.158 0-.285-.17-.285-.38s.127-.379.285-.379H3.3c.158 0 .286.17.286.379s-.125.38-.286.38z" fill="#9cebff"/><path d="M12.12 6.405H8.563a.357.357 0 110-.713h3.557a.357.357 0 110 .713zm3.355 1.55a.357.357 0 00-.357-.356h-3.4a.357.357 0 100 .713h3.4a.357.357 0 00.357-.357zm-9.632 2.194a.356.356 0 00-.357-.356H1.929a.356.356 0 100 .712h3.557a.356.356 0 00.357-.356zm3 1.906a.357.357 0 00-.357-.356H4.512a.357.357 0 100 .713h3.973a.357.357 0 00.357-.357z" fill="#f2f2f2"/></svg>