<svg xmlns="http://www.w3.org/2000/svg" width="18" height="18" viewBox="0 0 18 18"><defs><linearGradient id="a" x1="9.063" y1="1.292" x2="9.063" y2="16.959" gradientUnits="userSpaceOnUse"><stop offset=".225" stop-color="#5ea0ef"/><stop offset="1" stop-color="#0078d4"/></linearGradient></defs><path d="M15.408 9.7c-.172-.4-1-.6-.821-1.535a6.576 6.576 0 00-.144-4.018 5.085 5.085 0 00-4.271-2.8 12.65 12.65 0 00-2.219 0 5.087 5.087 0 00-4.271 2.8 6.568 6.568 0 00-.143 4.018C3.717 9.1 2.89 9.3 2.718 9.7c-.3.691.4 2.293.621 2.97s1.25.325 1.512.918c.825 1.873 1.878 3.223 3.938 3.361a1.381 1.381 0 00.193.014h.161a1.359 1.359 0 00.193-.014c2.061-.138 3.114-1.488 3.939-3.361.261-.593 1.291-.24 1.512-.918s.913-2.283.621-2.97z" fill="url(#a)"/><path d="M.6 4.908a.574.574 0 01-.575-.574V.574A.574.574 0 01.6 0h3.52a.575.575 0 010 1.149H1.176v3.185a.574.574 0 01-.576.574zm16.8 0a.574.574 0 01-.574-.574V1.149h-2.948a.575.575 0 010-1.149H17.4a.574.574 0 01.575.574v3.76a.574.574 0 01-.575.574zM4.122 18H.6a.574.574 0 01-.575-.574v-3.76a.575.575 0 011.149 0v3.185h2.948a.575.575 0 010 1.149zM17.4 18h-3.52a.575.575 0 010-1.149h2.946v-3.185a.575.575 0 011.149 0v3.76A.574.574 0 0117.4 18z" fill="#50e6ff"/></svg>