<svg xmlns="http://www.w3.org/2000/svg" width="18" height="18" viewBox="0 0 18 18"><defs><linearGradient id="a" x1="5.681" y1="-.862" x2="5.681" y2="15.008" gradientUnits="userSpaceOnUse"><stop offset="0" stop-color="#5ea0ef"/><stop offset="1" stop-color="#0078d4"/></linearGradient></defs><path d="M7.3 7.019h10.041a.659.659 0 01.659.658v7.981a.66.66 0 01-.659.658h-4.11a.109.109 0 00-.067.023l-2.108 1.615a.219.219 0 01-.353-.174v-1.354a.11.11 0 00-.109-.11H7.3a.659.659 0 01-.658-.658V7.677a.66.66 0 01.658-.658z" fill="#50e6ff"/><path d="M11.361.659v7.98a.659.659 0 01-.661.661H7.4a.11.11 0 00-.109.11v1.355a.22.22 0 01-.353.174L4.836 9.32a.109.109 0 00-.067-.02H.659A.66.66 0 010 8.639V.659A.659.659 0 01.659 0H10.7a.66.66 0 01.661.659z" fill="url(#a)"/><path d="M8.1 4.26a3.48 3.48 0 01-.07.7 3.688 3.688 0 01-.2.667 3.249 3.249 0 01-.329.615 4.03 4.03 0 01-.336.426.156.156 0 01-.226 0l-.031-.03a.159.159 0 010-.22 3.261 3.261 0 00.3-.378 3.164 3.164 0 00.477-1.153 3.242 3.242 0 000-1.262 3.13 3.13 0 00-.181-.6 3.311 3.311 0 00-.3-.553 3.107 3.107 0 00-.3-.38.16.16 0 010-.22l.032-.031a.156.156 0 01.225 0 3.555 3.555 0 01.336.428 3.453 3.453 0 01.326.615 3.76 3.76 0 01.2.667 3.3 3.3 0 01.077.709zM6.924 3.3a2.516 2.516 0 00-.431-.693.155.155 0 00-.226 0l-.031.031a.154.154 0 00-.01.211 2.142 2.142 0 010 2.825.155.155 0 00.01.212l.031.031a.155.155 0 00.226 0 2.546 2.546 0 00.431-.693 2.51 2.51 0 000-1.916zm-1.238.3a1.134 1.134 0 01.143.248 1.088 1.088 0 010 .824 1.011 1.011 0 01-.142.245.156.156 0 00.014.205l.03.03a.159.159 0 00.235-.012 1.421 1.421 0 00.2-.334 1.444 1.444 0 00.106-.547 1.486 1.486 0 00-.109-.547 1.359 1.359 0 00-.193-.332.158.158 0 00-.236-.013L5.7 3.4a.153.153 0 00-.014.2zm-2-.413h-.372A.314.314 0 003 3.5v1.518a.315.315 0 00.314.314h.374a.314.314 0 01.222.092l.937.935a.161.161 0 00.111.046.187.187 0 00.187-.187V2.3a.189.189 0 00-.189-.189.162.162 0 00-.112.046L3.91 3.1a.315.315 0 01-.222.088zm11.525 7.745a.831.831 0 11-.83.83.83.83 0 01.83-.83zm-3.48.837a.831.831 0 10.831-.83.831.831 0 00-.831.83zm-2.649 0a.831.831 0 10.831-.83.831.831 0 00-.831.83z" fill="#fff"/></svg>