<svg xmlns="http://www.w3.org/2000/svg" width="18" height="18" viewBox="0 0 18 18"><defs><linearGradient id="a" x1="8.355" y1="7.806" x2="15.035" y2="7.806" gradientUnits="userSpaceOnUse"><stop offset="0" stop-color="#ccc"/><stop offset="1" stop-color="#f0f0f0"/></linearGradient><linearGradient id="b" x1="14.131" y1="9.763" x2="14.131" y2="17.501" gradientUnits="userSpaceOnUse"><stop offset="0" stop-color="#42e8ca"/><stop offset="1" stop-color="#3cd4c2"/></linearGradient></defs><path d="M9.7 13.632a4.419 4.419 0 017.006-3.591V2.967a.669.669 0 00-.7-.64H.7a.67.67 0 00-.7.64v11.514a.67.67 0 00.7.64h9.267a4.4 4.4 0 01-.267-1.489z" fill="#5ea0ef"/><path d="M9.7 13.632a4.419 4.419 0 017.006-3.591V2.967a.638.638 0 00-.636-.64H8.327v12.794h1.64a4.4 4.4 0 01-.267-1.489z" fill="#0078d4"/><path d="M7.019.5h-5.01a.335.335 0 00-.334.336v12.748a.336.336 0 00.334.336h5.01a1.219 1.219 0 011.336 1.192V1.843A1.339 1.339 0 007.019.5z" fill="#f2f2f2"/><path d="M9.7 13.632A4.424 4.424 0 0115.035 9.3V.835A.334.334 0 0014.7.5H9.691a1.339 1.339 0 00-1.336 1.343v13.269a1.219 1.219 0 011.336-1.192h.028c-.006-.096-.019-.191-.019-.288z" fill="url(#a)"/><circle cx="14.131" cy="13.632" r="3.869" fill="url(#b)"/><path d="M6.991 3.747v.366a.148.148 0 01-.148.148H3.187a.147.147 0 01-.147-.148v-.366a.147.147 0 01.147-.147h3.656a.148.148 0 01.148.147zm-.148 1.838H3.187a.147.147 0 00-.147.148V6.1a.147.147 0 00.147.148h3.656a.148.148 0 00.148-.148v-.367a.148.148 0 00-.148-.148zm0-3.972H3.187a.147.147 0 00-.147.148v.366a.147.147 0 00.147.148h3.656a.148.148 0 00.148-.148v-.366a.148.148 0 00-.148-.148zm0 5.958H3.187a.148.148 0 00-.147.148v.366a.147.147 0 00.147.148h3.656a.148.148 0 00.148-.148v-.366a.148.148 0 00-.148-.148zm0 1.986H3.187a.148.148 0 00-.147.148v.366a.147.147 0 00.147.148h3.656a.148.148 0 00.148-.148v-.366a.148.148 0 00-.148-.148zm-1.975 1.986H3.187a.148.148 0 00-.147.149v.365a.147.147 0 00.147.148h1.681a.147.147 0 00.147-.148v-.365a.148.148 0 00-.147-.149z" fill="#b3b3b3"/><path d="M16.752 13.7a3.353 3.353 0 01-.066.667 3.531 3.531 0 01-.192.636 3.069 3.069 0 01-.313.584 3.9 3.9 0 01-.319.406.149.149 0 01-.216 0l-.029-.029a.151.151 0 010-.209 3.02 3.02 0 00.283-.355 2.967 2.967 0 00.282-.527 3.036 3.036 0 00.173-.571 3.138 3.138 0 000-1.2 2.972 2.972 0 00-.173-.569 3.066 3.066 0 00-.282-.526 2.9 2.9 0 00-.281-.362.151.151 0 010-.209l.03-.031a.15.15 0 01.215 0 3.462 3.462 0 01.319.407 3.285 3.285 0 01.311.585 3.7 3.7 0 01.194.635 3.112 3.112 0 01.064.668zm-1.119-.911a2.416 2.416 0 00-.41-.66.148.148 0 00-.215 0l-.03.03a.148.148 0 00-.01.2 2.011 2.011 0 01.352.563 2.032 2.032 0 01-.352 2.126.148.148 0 00.01.2l.03.029a.148.148 0 00.215 0 2.41 2.41 0 00.41-.659 2.386 2.386 0 000-1.823zm-1.178.285a1.043 1.043 0 01.136.236 1.036 1.036 0 010 .784 1.019 1.019 0 01-.135.233.148.148 0 00.013.2l.029.028a.15.15 0 00.223-.011 1.256 1.256 0 00.186-.318 1.351 1.351 0 00.1-.521 1.394 1.394 0 00-.1-.521 1.352 1.352 0 00-.184-.316.151.151 0 00-.224-.012l-.029.029a.147.147 0 00-.015.189zm-1.9-.394H12.2a.3.3 0 00-.3.3v1.443a.3.3 0 00.3.3h.356a.3.3 0 01.211.087l.892.89a.149.149 0 00.105.044.178.178 0 00.178-.178v-3.727a.181.181 0 00-.18-.18.15.15 0 00-.106.044l-.889.889a.3.3 0 01-.214.088z" fill="#fff"/></svg>