<svg xmlns="http://www.w3.org/2000/svg" width="18" height="13.989" viewBox="0 0 18 13.989"><defs><radialGradient id="a" cx="3.123" cy="4.657" r="9.718" gradientTransform="matrix(.503 .865 -1.218 .708 7.224 -1.34)" gradientUnits="userSpaceOnUse"><stop offset="0" stop-color="#9cebff"/><stop offset=".667" stop-color="#50e6ff"/><stop offset="1" stop-color="#32bedd"/></radialGradient><radialGradient id="b" cx="1.882" cy="4.104" r="18.407" gradientUnits="userSpaceOnUse"><stop offset="0" stop-color="#e7f9ff"/><stop offset=".277" stop-color="#c3f1ff"/><stop offset=".408" stop-color="#c1f1ff"/><stop offset="1" stop-color="#9cebff"/></radialGradient><linearGradient id="c" x1="15.15" y1="4.602" x2="3.77" y2="17.361" gradientUnits="userSpaceOnUse"><stop offset="0" stop-color="#0078d4"/><stop offset=".712" stop-color="#005ba1"/><stop offset="1" stop-color="#003067"/></linearGradient></defs><path d="M5.785 13.079s-1.66-.57.253-2.059a12.017 12.017 0 015.789-1.994l1.765-3.454a17.1 17.1 0 00-7.607.646C2.091 7.573-1.8 11.818.9 14.028a4.391 4.391 0 004.885-.949z" transform="translate(0 -2.005)" fill="url(#a)"/><path d="M8.4 9.79V7.384a.475.475 0 01.475-.475h.316a.862.862 0 100-.372H8.87a.848.848 0 00-.847.847v1.509h-.6a.862.862 0 100 .372h.6v.661c.122-.047.246-.092.377-.136zm1.632-3.558a.491.491 0 11-.49.491.491.491 0 01.485-.491zm-3.45 3.337a.491.491 0 11.491-.49.491.491 0 01-.491.49zm-3.258.631H.694c-.08.124-.152.248-.219.372h2.849a.848.848 0 00.847-.847v-.207a.863.863 0 10-.372 0v.206a.475.475 0 01-.475.476zm.17-1.522a.491.491 0 11.491.491.492.492 0 01-.491-.492zm1.625 3.583h-.812a.863.863 0 100 .372h.9a.642.642 0 01-.088-.372zm-1.654.677a.491.491 0 11.491-.491.491.491 0 01-.491.491z" transform="translate(0 -2.005)" fill="url(#b)"/><path d="M.9 14.028c6.267 3.81 12.347 2.564 16.991-8.016A1.315 1.315 0 0018 5.48V2.336a.331.331 0 00-.33-.331h-3.013a.708.708 0 00-.621.435C10.906 11.283 3.388 15.127.9 14.028z" transform="translate(0 -2.005)" fill="url(#c)"/></svg>