<svg xmlns="http://www.w3.org/2000/svg" width="18" height="18" viewBox="0 0 18 18"><defs><linearGradient id="a" x1="-262" y1="843.65" x2="-262" y2="856.5" gradientTransform="translate(271 -839)" gradientUnits="userSpaceOnUse"><stop offset="0" stop-color="#0078d4"/><stop offset="1" stop-color="#1a508b"/></linearGradient><linearGradient id="c" x1="-261.938" y1="844.8" x2="-261.938" y2="849.987" gradientTransform="translate(271 -839)" gradientUnits="userSpaceOnUse"><stop offset=".297" stop-color="#40c4f5"/><stop offset="1" stop-color="#0095e6"/></linearGradient><linearGradient id="d" x1="-261.938" y1="849.895" x2="-261.938" y2="859.786" gradientTransform="translate(271 -839)" gradientUnits="userSpaceOnUse"><stop offset=".193" stop-color="#40c4f5"/><stop offset="1" stop-color="#0095e6"/></linearGradient><clipPath id="b"><path d="M15.929 7.908a2.971 2.971 0 00-2.546-2.94c-.072-.018-.126-.018-.2-.036a31.217 31.217 0 00-8.373 0c-.072.018-.143.018-.2.036a2.957 2.957 0 00-2.54 2.94 10.336 10.336 0 005.038 9.054 3.564 3.564 0 003.765 0 10.208 10.208 0 005.056-9.054z" fill="none"/></clipPath></defs><path d="M4.806 5.025c.068-.018.119-.018.187-.035.391-.054.782-.107 1.173-.143a2.968 2.968 0 012.856-2.369 2.967 2.967 0 012.855 2.369c.391.036.782.089 1.173.143.068.017.136.017.187.035a3.909 3.909 0 01.612.161 4.82 4.82 0 00-9.637 0 3.22 3.22 0 01.594-.161z" fill="#215694"/><path d="M15.929 7.908a2.971 2.971 0 00-2.546-2.94c-.072-.018-.126-.018-.2-.036a31.217 31.217 0 00-8.373 0c-.072.018-.143.018-.2.036a2.957 2.957 0 00-2.54 2.94 10.336 10.336 0 005.038 9.054 3.564 3.564 0 003.765 0 10.208 10.208 0 005.056-9.054z" fill="url(#a)"/><g clip-path="url(#b)"><ellipse cx="9.063" cy="7.999" rx="2.331" ry="2.211" fill="#004795" opacity=".4"/><ellipse cx="9.062" cy="15.696" rx="4.661" ry="4.554" fill="#004795" opacity=".4"/><circle cx="9.062" cy="8.415" r="2.331" fill="url(#c)"/><circle cx="9.062" cy="16.124" r="4.661" fill="url(#d)"/></g></svg>