<svg xmlns="http://www.w3.org/2000/svg" width="18" height="18" viewBox="0 0 18 18"><defs><linearGradient id="a" x1="9" y1="780.461" x2="9" y2="791.516" gradientTransform="matrix(1 0 0 -1 0 791.516)" gradientUnits="userSpaceOnUse"><stop offset="0" stop-color="#0078d4"/><stop offset="1" stop-color="#5ea0ef"/></linearGradient><linearGradient id="b" x1="7.905" y1="18" x2="7.905" y2="5.162" gradientUnits="userSpaceOnUse"><stop offset="0" stop-color="#50e6ff"/><stop offset="1" stop-color="#9cebff"/></linearGradient></defs><path d="M16.8 7.591a3.5 3.5 0 00-3.04-3.365A4.412 4.412 0 009.209 0a4.529 4.529 0 00-4.328 2.954A4.179 4.179 0 001.2 6.975a4.242 4.242 0 004.39 4.077c.13 0 .259-.006.386-.016h7.11a.706.706 0 00.183-.029A3.544 3.544 0 0016.8 7.591z" fill="url(#a)"/><path d="M14.019 18H1.8c-.393 0-.621-.621-.406-.95L5.6 10.181a.426.426 0 00.093-.281V6.582a.252.252 0 00-.241-.241h-.228a.481.481 0 01-.481-.482v-.215a.481.481 0 01.481-.482h5.361a.481.481 0 01.481.482v.215a.481.481 0 01-.481.482h-.228a.241.241 0 00-.241.241v3.333a.453.453 0 00.089.279l4.207 6.856c.216.316-.012.95-.393.95z" fill="url(#b)"/><path d="M2.646 16.779l3.577-5.959a1.334 1.334 0 00.284-.738V8.716a.412.412 0 01.411-.416h2.044a.412.412 0 01.412.412v1.508a.866.866 0 00.156.5l3.662 6.058a.327.327 0 01-.255.5H3a.312.312 0 01-.354-.5z" fill="#005ba1"/><path d="M10.381 14.692a1.314 1.314 0 00-1.131-.638c-.014 0-.022.012-.035.015a1.261 1.261 0 00-.1-.465 1.2 1.2 0 00.761-.56.185.185 0 10-.321-.186.825.825 0 01-.67.406 1.244 1.244 0 00-.437-.318.571.571 0 00.244-.461.582.582 0 00-.582-.585h-.331a.583.583 0 00-.582.582.571.571 0 00.244.461 1.243 1.243 0 00-.474.373.819.819 0 01-.671-.406.186.186 0 00-.323.185 1.191 1.191 0 00.783.564 1.249 1.249 0 00-.09.446v.018c-.008 0-.014-.01-.023-.01a1.314 1.314 0 00-1.131.638.185.185 0 00.062.255.192.192 0 00.1.027.184.184 0 00.158-.09.948.948 0 01.814-.459c.009 0 .015-.008.023-.009v.444a1.228 1.228 0 00.065.322 1.307 1.307 0 00-.842.806.186.186 0 00.108.24.2.2 0 00.062.01.186.186 0 00.175-.123.938.938 0 01.641-.591 1.24 1.24 0 001.047.6h.036a1.246 1.246 0 001.088-.662.94.94 0 01.641.591.186.186 0 00.175.123.2.2 0 00.062-.01.186.186 0 00.113-.238 1.31 1.31 0 00-.87-.814 1.165 1.165 0 00.051-.251v-.508c.01 0 .016.011.027.011a.948.948 0 01.814.459.184.184 0 00.158.09.192.192 0 00.1-.027.186.186 0 00.061-.255z" fill="#c3f1ff"/>​</svg>