<svg xmlns="http://www.w3.org/2000/svg" viewBox="0 0 76 75"><path fill="#FFFCFC" d="M41 76H1V1c24.333 0 48.667.043 73-.065 2.5-.012 3.078.564 3.066 3.065-.112 23-.112 46 0 69 .012 2.5-.561 3.105-3.067 3.068C63.168 75.908 52.333 76 41 76z"/><path fill="#FF2B01" d="M20.942 8.004c5.257-.36 7.876 2.454 7.95 6.718.278 15.956.282 31.921.06 47.878-.068 4.847-3.992 7.883-8.648 7.737-4.525-.141-7.948-3.338-8.183-8.378-.293-6.306-.108-12.635-.113-18.953-.008-8.647-.1-17.296.032-25.941.098-6.451 2.498-8.865 8.902-9.061z"/><path fill="#FF2C02" d="M36.35 27.103c7.729-2.515 12.598.733 12.732 8.325.148 8.47.128 16.945.004 25.415-.088 5.955-3.451 9.54-8.547 9.524-5.075-.015-8.43-3.634-8.514-9.592-.121-8.47-.027-16.943-.032-25.415-.002-3.36 1.054-6.184 4.358-8.257zm15.614 20.935c.004-2.992-.069-5.495.027-7.991.197-5.09 3.652-8.489 8.522-8.495 4.902-.006 8.438 3.341 8.53 8.448.13 7.164.17 14.336-.024 21.497-.15 5.567-3.701 8.964-8.713 8.85-4.741-.107-8.055-3.493-8.283-8.82-.185-4.325-.052-8.665-.06-13.49z"/></svg>