<svg xmlns="http://www.w3.org/2000/svg" width="18" height="18" viewBox="0 0 18 18"><defs><linearGradient id="a" x1="10.686" y1=".143" x2="10.686" y2="5.035" gradientUnits="userSpaceOnUse"><stop offset="0" stop-color="#83b9f9"/><stop offset="1" stop-color="#5ea0ef"/></linearGradient><linearGradient id="b" x1="14.828" y1="4.906" x2="14.828" y2="17.857" gradientUnits="userSpaceOnUse"><stop offset=".154" stop-color="#83b9f9"/><stop offset="1" stop-color="#5ea0ef"/></linearGradient><linearGradient id="c" x1="10.579" y1="5.034" x2="10.579" y2="17.815" gradientUnits="userSpaceOnUse"><stop offset=".192" stop-color="#5ea0ef"/><stop offset="1" stop-color="#0078d4"/></linearGradient><linearGradient id="d" x1="7.95" y1=".66" x2="7.95" y2="7.625" gradientUnits="userSpaceOnUse"><stop offset=".441" stop-color="#5ea0ef"/><stop offset="1" stop-color="#0078d4"/></linearGradient><linearGradient id="e" x1="3.554" y1="3.554" x2="3.554" y2="12.77" gradientUnits="userSpaceOnUse"><stop offset="0" stop-color="#0078d4"/><stop offset="1" stop-color="#005ba1"/></linearGradient><linearGradient id="f" x1="6.163" y1="8.759" x2="6.163" y2="13.256" gradientUnits="userSpaceOnUse"><stop offset="0" stop-color="#0078d4"/><stop offset="1" stop-color="#005ba1"/></linearGradient><linearGradient id="g" x1="13.5" y1="9.366" x2="13.5" y2="17.428" gradientUnits="userSpaceOnUse"><stop offset=".152" stop-color="#fff"/><stop offset="1" stop-color="#f2f2f2"/></linearGradient></defs><path d="M14.489 5.021a8.129 8.129 0 00-2.832.014A12.146 12.146 0 006.883.66 5.2 5.2 0 019.24.146a5.1 5.1 0 015.249 4.875z" fill="url(#a)"/><path d="M18 13.373a4.5 4.5 0 01-4.5 4.484 4.4 4.4 0 01-.61-.042 12.187 12.187 0 001.149-4.964 11.743 11.743 0 00-.582-3.961 15.722 15.722 0 00-1.8-3.856 8.129 8.129 0 012.832-.014A4.045 4.045 0 0118 8.908a4.064 4.064 0 01-.674 2.107A4.432 4.432 0 0118 13.373z" fill="url(#b)"/><path d="M14.039 12.851a12.187 12.187 0 01-1.149 4.964 4.176 4.176 0 01-.387-.069A4.5 4.5 0 019 13.373a4.085 4.085 0 01.027-.484H8.59a17.565 17.565 0 00-1.482-5.265A13.077 13.077 0 018.59 6.335a7.222 7.222 0 013.067-1.3 15.722 15.722 0 011.8 3.856 11.743 11.743 0 01.582 3.96z" fill="url(#c)"/><path d="M11.657 5.035a7.207 7.207 0 00-3.067 1.3 12.985 12.985 0 00-1.482 1.29 18.321 18.321 0 00-.19-.4 12.014 12.014 0 00-2.674-3.671A5.229 5.229 0 016.883.66a12.146 12.146 0 014.774 4.375z" fill="url(#d)"/><path d="M7.108 7.625a17.271 17.271 0 00-3.372 5.145A4.9 4.9 0 010 8.2a4.825 4.825 0 014.244-4.646 12.014 12.014 0 012.674 3.674c.065.13.128.262.19.397z" fill="url(#e)"/><path d="M8.59 12.891l-3.52.014a4.867 4.867 0 01-1.334-.135 17.271 17.271 0 013.372-5.145 17.547 17.547 0 011.482 5.266z" fill="url(#f)"/><ellipse cx="13.5" cy="13.373" rx="3.917" ry="3.901" fill="url(#g)"/><path d="M10.176 13.606a3.306 3.306 0 00.963 2.118l1.061-1.059a1.871 1.871 0 01-.529-1.059zm5.511-2.737a3.311 3.311 0 00-1.954-.81v1.477a1.806 1.806 0 01.906.371zm-4.373 0l1.059 1.059a1.8 1.8 0 01.905-.37v-1.5a3.314 3.314 0 00-1.964.811zm3.658 1.366a1.906 1.906 0 01.376.905h1.477a3.262 3.262 0 00-.81-1.942zm-2.943 0l-1.059-1.059a3.264 3.264 0 00-.794 1.964h1.477a1.906 1.906 0 01.376-.905z" fill="#83b9f9"/><path d="M16.221 12.315a.238.238 0 00-.3-.133l-2.181.879.169.429 2.181-.863a.233.233 0 00.138-.3z" fill="#f04049"/><circle cx="13.5" cy="13.373" r=".635" fill="#4f4f4f"/></svg>