<svg xmlns="http://www.w3.org/2000/svg" width="18" height="18" viewBox="0 0 18 18"><path fill="#a33a85" d="M15.433 9.341l-1.712 1.006-1.716 1.007-3.007 1.765-3.006-1.765-1.713-1.007-1.712-1.006 6.431-3.782 6.435 3.782z"/><path fill="#59285f" d="M15.433 9.341v3.222l-6.435 3.778-6.431-3.778V9.341l1.712 1.006 1.713 1.007 3.006 1.765 3.007-1.765 1.716-1.007 1.712-1.006z"/><path d="M16.755 4.794v8.416a.565.565 0 01-.281.49l-7.186 4.222A.566.566 0 019 18V9.022l7.679-4.51a.569.569 0 01.076.282z" fill="#a33a85" opacity=".6"/><path d="M16.68 4.512L9 9.011v.011L1.32 4.511a.551.551 0 01.206-.211L8.718.075a.569.569 0 01.57 0l7.189 4.227a.567.567 0 01.203.21z" fill="#dc92bf" opacity=".6"/><path d="M9 9.022V18a.547.547 0 01-.284-.077L1.526 13.7a.565.565 0 01-.281-.49V4.791a.564.564 0 01.075-.28z" fill="#ce74b6" opacity=".6"/></svg>