<svg xmlns="http://www.w3.org/2000/svg" width="18" height="18" viewBox="0 0 18 18"><defs><linearGradient id="a" x1="7.944" y1=".233" x2="7.944" y2="15.56" gradientUnits="userSpaceOnUse"><stop offset=".134" stop-color="#005ba1"/><stop offset="1" stop-color="#003067"/></linearGradient><linearGradient id="b" x1="7.945" y1="-.041" x2="7.945" y2="15.754" gradientUnits="userSpaceOnUse"><stop offset="0" stop-color="#5ea0ef"/><stop offset="1" stop-color="#0078d4"/></linearGradient></defs><path d="M15.888 7.947a8.031 8.031 0 01-.041.81.282.282 0 01-.4.226 4.921 4.921 0 00-6.471 6.468.283.283 0 01-.225.4 8.026 8.026 0 01-.809.041 7.945 7.945 0 117.943-7.943z" fill="url(#a)"/><path d="M14.443.528v8.143a4.921 4.921 0 00-5.464 6.78.283.283 0 01-.225.4 8.026 8.026 0 01-.809.041 7.931 7.931 0 01-6.5-3.373V.527A.529.529 0 011.976 0h11.938a.529.529 0 01.529.528z" fill="url(#b)"/><path d="M18 13.5A4.5 4.5 0 1113.5 9a4.5 4.5 0 014.5 4.5z" fill="#fff"/><path d="M18 13.5A4.5 4.5 0 1113.5 9a4.5 4.5 0 014.5 4.5z" fill="#57a300"/><path d="M6.768 4.524h4.973a.283.283 0 01.282.283v.726a.283.283 0 01-.282.283H6.768a.283.283 0 01-.283-.283v-.726a.283.283 0 01.283-.283zm-.242 3.059v.727a.283.283 0 00.283.283h4.972a.283.283 0 00.283-.283v-.727a.283.283 0 00-.283-.282H6.809a.282.282 0 00-.283.282zm.27 2.494a.283.283 0 00-.282.283v.726a.283.283 0 00.282.283h2.267a4.913 4.913 0 01.9-1.292zm6.055 5.579a.281.281 0 00.427-.018l2.739-3.507a.225.225 0 00-.045-.312l-.51-.393a.227.227 0 00-.318.041L13 14.21l-1.2-1.29a.227.227 0 00-.32-.012l-.47.434a.23.23 0 00-.073.16.226.226 0 00.06.164z" fill="#fff"/><path d="M4.073 4.524H5.1a.291.291 0 01.291.292v.708a.291.291 0 01-.291.292H4.073a.291.291 0 01-.291-.292v-.708a.291.291 0 01.291-.292zm-.251 3.068V8.3a.292.292 0 00.292.292h1.025a.292.292 0 00.292-.292v-.708a.291.291 0 00-.292-.292H4.114a.291.291 0 00-.292.292zm-.012 2.777v.708a.291.291 0 00.291.292h1.026a.291.291 0 00.291-.292v-.708a.291.291 0 00-.291-.292H4.1a.291.291 0 00-.29.292z" fill="#fff" opacity=".8"/></svg>