<svg xmlns="http://www.w3.org/2000/svg" width="18" height="18" viewBox="0 0 18 18"><defs><linearGradient id="a" x1="8.995" y1="10.299" x2="8.995" y2="13.199" gradientUnits="userSpaceOnUse"><stop offset="0" stop-color="#005ba1"/><stop offset=".258" stop-color="#00589d"/><stop offset=".525" stop-color="#004f90"/><stop offset=".796" stop-color="#003f7c"/><stop offset="1" stop-color="#003067"/></linearGradient></defs><path fill="#50e6ff" d="M13.387 7.4l-.005-.004v-.012h-.019L8.997 4.405 4.631 7.384h-.019v.012l-.006.004h.006v5.801h8.77V7.4h.005z"/><path d="M4.606 7.4l.008 5.8 4.381-2.9z" fill="#32bedd"/><path d="M13.384 7.4l-4.389 2.9 4.381 2.9.008-5.8z" fill="#198ab3"/><path fill="url(#a)" d="M8.995 10.299l-4.381 2.895v.005h8.762v-.005l-4.381-2.895z"/><g fill="#999"><path d="M1.072 1.43h1.29v3.6a.286.286 0 01-.286.286H.786A.286.286 0 01.5 5.035V2a.572.572 0 01.572-.57z"/><path d="M1.072 1.43h1.29v3.6a.286.286 0 01-.286.286H.786A.286.286 0 01.5 5.035V2a.572.572 0 01.572-.57z" opacity=".5"/></g><g fill="#999"><path d="M15.638 1.43h1.29A.572.572 0 0117.5 2v3.035a.286.286 0 01-.286.286h-1.29a.286.286 0 01-.286-.286V1.43z"/><path d="M15.638 1.43h1.29A.572.572 0 0117.5 2v3.035a.286.286 0 01-.286.286h-1.29a.286.286 0 01-.286-.286V1.43z" opacity=".5"/></g><path d="M17.5 1.997v1.247H.5V1.997a.567.567 0 01.567-.567h15.87a.567.567 0 01.563.567z" fill="#949494"/><g fill="#999"><path d="M.786 12.679h1.29a.286.286 0 01.286.286v3.6h-1.29A.572.572 0 01.5 16v-3.035a.286.286 0 01.286-.286z"/><path d="M.786 12.679h1.29a.286.286 0 01.286.286v3.6h-1.29A.572.572 0 01.5 16v-3.035a.286.286 0 01.286-.286z" opacity=".5"/></g><g fill="#999"><path d="M15.924 12.679h1.29a.286.286 0 01.286.286V16a.572.572 0 01-.572.572h-1.29v-3.6a.286.286 0 01.286-.293z"/><path d="M15.924 12.679h1.29a.286.286 0 01.286.286V16a.572.572 0 01-.572.572h-1.29v-3.6a.286.286 0 01.286-.293z" opacity=".5"/></g><path d="M.5 16.003v-1.247h17v1.247a.567.567 0 01-.567.567H1.067a.567.567 0 01-.567-.567z" fill="#949494"/></svg>