<svg xmlns="http://www.w3.org/2000/svg" width="18" height="18" viewBox="0 0 18 18"><defs><linearGradient id="a" x1="7.673" y1=".689" x2="7.673" y2="16.067" gradientUnits="userSpaceOnUse"><stop offset="0" stop-color="#5ea0ef"/><stop offset="1" stop-color="#0078d4"/></linearGradient><linearGradient id="b" x1="12.837" y1="13.342" x2="12.837" y2="11.165" gradientUnits="userSpaceOnUse"><stop offset="0" stop-color="#0078d4"/><stop offset="1" stop-color="#5ea0ef"/></linearGradient></defs><path d="M15.345 5.27h-4.538V.7l3.9-.043a.64.64 0 01.64.641zm-5.339.043V.657H5.382l.086 4.656zM.043 10.7h4.624V6.039H0zM0 15.394a.64.64 0 00.641.64h4.026v-4.613H0zM0 1.3l.043 3.97h4.624V.657H.641A.641.641 0 000 1.3z" fill="url(#a)"/><path d="M6.38 6.634h.911v2.527a.205.205 0 01-.205.205h-.911a.2.2 0 01-.2-.205V7.043a.4.4 0 01.395-.409z" fill="#a3a3a3"/><path d="M6.38 6.634h.911v2.527a.205.205 0 01-.205.205h-.911a.2.2 0 01-.2-.205V7.043a.4.4 0 01.395-.409z" fill="#a3a3a3" opacity=".5"/><path d="M16.68 6.634h.911a.4.4 0 01.4.4v2.127a.205.205 0 01-.2.205h-.9a.205.205 0 01-.205-.205V6.634z" fill="#a3a3a3"/><path d="M16.68 6.634h.911a.4.4 0 01.4.4v2.127a.205.205 0 01-.2.205h-.9a.205.205 0 01-.205-.205V6.634z" fill="#a3a3a3" opacity=".5"/><path d="M17.993 7.029v.882h-12v-.882a.4.4 0 01.4-.4h11.2a.4.4 0 01.4.4z" fill="#949494"/><path d="M6.175 14.59h.911a.2.2 0 01.205.2v2.549H6.38a.4.4 0 01-.41-.395.17.17 0 010-.022v-2.113a.2.2 0 01.19-.219z" fill="#a3a3a3"/><path d="M6.175 14.59h.911a.2.2 0 01.205.2v2.549H6.38a.4.4 0 01-.41-.395.17.17 0 010-.022v-2.113a.2.2 0 01.19-.219z" fill="#a3a3a3" opacity=".5"/><path d="M16.885 14.59h.91a.2.2 0 01.2.2v2.118a.4.4 0 01-.4.4h-.915v-2.499a.2.2 0 01.19-.219z" fill="#a3a3a3"/><path d="M16.885 14.59h.91a.2.2 0 01.2.2v2.118a.4.4 0 01-.4.4h-.915v-2.499a.2.2 0 01.19-.219z" fill="#a3a3a3" opacity=".5"/><path d="M5.971 16.941v-.883h12v.883a.4.4 0 01-.4.4H6.373a.4.4 0 01-.402-.4z" fill="#949494"/><path d="M14.6 13.516a.071.071 0 00.055-.026l1.43-1.422a.158.158 0 000-.213l-1.43-1.446a.071.071 0 00-.056-.027.079.079 0 00-.044.014.074.074 0 00-.026.068v.888a.071.071 0 01-.062.079h-3.326a.823.823 0 00-.653-.322.781.781 0 00-.083 0 .864.864 0 00-.081 1.725.738.738 0 00.082 0 .75.75 0 00.082 0 .849.849 0 00.66-.33h3.317a.072.072 0 01.071.063v.881a.07.07 0 00.064.068z" fill="url(#b)"/><path d="M11.909 13.035A1.836 1.836 0 1111.9 10.9h1a2.7 2.7 0 100 2.139z" fill="#773adc"/>​</svg>