<svg xmlns="http://www.w3.org/2000/svg" width="18" height="18" viewBox="0 0 18 18"><defs><linearGradient id="a" x1="6.574" y1="1.643" x2="6.574" y2="13.015" gradientUnits="userSpaceOnUse"><stop offset="0" stop-color="#9d79eb"/><stop offset="1" stop-color="#7548d6"/></linearGradient><linearGradient id="b" x1="12.173" y1="13.886" x2="12.151" y2="17.014" gradientUnits="userSpaceOnUse"><stop offset="0" stop-color="#3cd4c2"/><stop offset="1" stop-color="#37c2b1"/></linearGradient><linearGradient id="c" x1="12.173" y1="10.27" x2="12.151" y2="13.399" gradientUnits="userSpaceOnUse"><stop offset="0" stop-color="#3cd4c2"/><stop offset="1" stop-color="#37c2b1"/></linearGradient></defs><path d="M4.351 2.08a7.351 7.351 0 00-1.236 2.477H1.59A5.747 5.747 0 014.351 2.08zM1.236 9.367h1.77a7.717 7.717 0 01-.3-2.021 9.867 9.867 0 01.247-2.18h-1.66a5.655 5.655 0 00-.057 4.201zm3.511 3.389A8.573 8.573 0 013.2 9.978H1.507a5.74 5.74 0 003.24 2.778zm-.9-2.778a6.159 6.159 0 002.138 3.053c.055.006.111.006.166.008 0-.017-.01-.032-.01-.05V10.68a.782.782 0 01.15-.441v-.261zm-.529-2.632a7.216 7.216 0 00.329 2.021H6.3v-4.2H3.574a9.307 9.307 0 00-.256 2.179zm.425-2.789H6.3V1.643a5.535 5.535 0 00-.55.053 4.694 4.694 0 00-2.007 2.861zm3.533-2.879a5.737 5.737 0 00-.371-.031v2.909h2.416a4.592 4.592 0 00-2.045-2.878zm-.371 7.689h2.512a7.254 7.254 0 00.33-2.021 9.255 9.255 0 00-.257-2.18H6.905zm1.77-7.331A7.262 7.262 0 019.95 4.557h1.608a5.746 5.746 0 00-2.883-2.521zm1.433 3.13a9.856 9.856 0 01.247 2.178 7.732 7.732 0 01-.3 2.023h1.854a5.655 5.655 0 00-.057-4.2z" fill="url(#a)"/><rect x="6.573" y="13.922" width="11.177" height="3.056" rx=".374" fill="url(#b)"/><rect x="16.014" y="14.457" width=".835" height=".835" rx=".187" fill="#fff"/><rect x="16.014" y="15.608" width=".835" height=".835" rx=".187" fill="#fff" opacity=".6"/><path d="M6.154 13.039c-.055 0-.111 0-.166-.008A6.159 6.159 0 013.85 9.978h2.444v.261a.791.791 0 01.653-.362h5.4a6.159 6.159 0 00-.045-5.2l-.058-.122A6.331 6.331 0 007.43 1.087a1.337 1.337 0 00-.295-.036 6.124 6.124 0 00-1.206.003 1.734 1.734 0 00-.344.053A6.336 6.336 0 00.91 4.557H.9v.013a6.3 6.3 0 004.884 9.044.159.159 0 00.048.007 6.069 6.069 0 00.713.048.793.793 0 01-.391-.63zm5.758-3.672h-1.854a7.732 7.732 0 00.3-2.023 9.856 9.856 0 00-.247-2.178h1.747a5.655 5.655 0 01.054 4.201zm-.354-4.81H9.95a7.262 7.262 0 00-1.275-2.521 5.746 5.746 0 012.883 2.521zm-4.653-2.91c.124.007.248.016.371.031a4.592 4.592 0 012.045 2.878H6.905zm0 3.519H9.49a9.255 9.255 0 01.257 2.18 7.254 7.254 0 01-.33 2.021H6.905zM6.3 9.367H3.647a7.216 7.216 0 01-.329-2.021 9.307 9.307 0 01.256-2.18H6.3zM5.746 1.7c.181-.027.364-.044.55-.053v2.91H3.743A4.694 4.694 0 015.746 1.7zm-1.4.384a7.351 7.351 0 00-1.231 2.473H1.59A5.747 5.747 0 014.351 2.08zM1.293 5.166h1.663a9.867 9.867 0 00-.247 2.18 7.717 7.717 0 00.3 2.021H1.236a5.655 5.655 0 01.057-4.201zm.214 4.812H3.2a8.573 8.573 0 001.551 2.778 5.74 5.74 0 01-3.244-2.778z" fill="#b796f9"/><rect x="6.573" y="10.307" width="11.177" height="3.056" rx=".374" fill="url(#c)"/><rect x="16.014" y="10.841" width=".835" height=".835" rx=".187" fill="#fff"/><rect x="16.014" y="11.993" width=".835" height=".835" rx=".187" fill="#fff" opacity=".6"/></svg>