<svg xmlns="http://www.w3.org/2000/svg" width="18" height="18" viewBox="0 0 18 18"><defs><linearGradient id="a" x1="8.141" y1="1.048" x2="8.141" y2="13.741" gradientUnits="userSpaceOnUse"><stop offset="0" stop-color="#5ea0ef"/><stop offset="1" stop-color="#0078d4"/></linearGradient></defs><rect y=".609" width="16.282" height="13.678" rx=".761" fill="url(#a)"/><ellipse cx="6.524" cy="5.329" rx="1.131" ry="1.137" fill="#fff"/><ellipse cx="9.659" cy="7.46" rx="1.131" ry="1.137" fill="#fff"/><ellipse cx="12.695" cy="3.422" rx="1.131" ry="1.137" fill="#fff"/><ellipse cx="3.587" cy="9.511" rx="1.131" ry="1.137" fill="#fff"/><path fill="#fff" d="M3.996 9.798l-.819-.574L6.398 4.64l3.148 2.138 2.75-3.656.799.601-3.322 4.418L6.65 6.02 3.996 9.798zm2.935 7.294a1.169 1.169 0 01-1.168-1.167c.2-3.889 2.539-6.362 5.974-6.362s5.79 2.473 5.974 6.3A1.17 1.17 0 0116.6 17.09H6.93z"/><path d="M11.737 9.85c3.427 0 5.52 2.549 5.687 6.029a.881.881 0 01-.836.924H6.931a.88.88 0 01-.881-.88v-.046C6.227 12.4 8.316 9.85 11.737 9.85m0-.575c-3.6 0-6.058 2.581-6.26 6.574v.076a1.458 1.458 0 001.456 1.454h9.685A1.457 1.457 0 0018 15.85c-.189-3.932-2.705-6.575-6.261-6.575z" fill="#0078d4"/><path d="M14.368 12.272a3.991 3.991 0 00-2.382-1.014v1.851a2.224 2.224 0 011.106.472zm-5.324 0l1.276 1.309a2.224 2.224 0 011.106-.472v-1.851a3.994 3.994 0 00-2.382 1.014z" fill="#50e6ff"/><path d="M13.5 13.993a2.35 2.35 0 01.462 1.136h1.8a4.231 4.231 0 00-.987-2.445z" fill="#32bedd"/><path d="M9.917 13.993l-1.276-1.309a4.223 4.223 0 00-.986 2.445h1.8a2.352 2.352 0 01.462-1.136z" fill="#50e6ff"/><path d="M14.773 13.526a.4.4 0 00-.363-.233.388.388 0 00-.167.038l-2.772 1.3.334.726 2.775-1.3a.4.4 0 00.193-.531z" fill="#e62323"/><circle cx="11.737" cy="14.963" r=".954" fill="#4f4f4f"/></svg>