<svg xmlns="http://www.w3.org/2000/svg" width="18" height="18" viewBox="0 0 18 18"><defs><linearGradient id="a" x1="6.094" y1="15.213" x2="6.094" y2=".303" gradientUnits="userSpaceOnUse"><stop offset="0" stop-color="#0078d4"/><stop offset="1" stop-color="#5ea0ef"/></linearGradient></defs><path d="M12.184.508v7.38l-.1.06-3.29 1.9a.407.407 0 00-.2.26v.02a.355.355 0 00-.02.1v4.68H.514A.512.512 0 010 14.4V.508A.512.512 0 01.514 0h11.16a.512.512 0 01.51.508z" fill="url(#a)"/><g fill="#fff"><path d="M1.543 2.605H2.9a.254.254 0 01.254.254v.992a.254.254 0 01-.254.254H1.543a.255.255 0 01-.255-.254v-.992a.255.255 0 01.255-.254zM1.3 5.615v.992a.255.255 0 00.255.254h1.363a.254.254 0 00.254-.254v-.992a.254.254 0 00-.254-.254H1.55a.255.255 0 00-.25.254z" opacity=".8"/><path d="M4.684 2.605h5.924a.254.254 0 01.254.254v.992a.254.254 0 01-.254.254H4.684a.255.255 0 01-.255-.254v-.992a.255.255 0 01.255-.254zm-.255 3.01v.992a.255.255 0 00.255.254h5.957a.255.255 0 00.255-.254v-.992a.255.255 0 00-.255-.254H4.684a.255.255 0 00-.255.254z"/></g><path fill="#50e6ff" d="M18 10.21v5.196L13.505 18l-.004-.008V12.8L18 10.21z"/><path fill="#c3f1ff" d="M18 10.21l-4.499 2.59-4.488-2.581-.009.018v5.147L9 15.388v-5.159l.004-.019 4.501-2.598L18 10.21z"/><path fill="#9cebff" d="M13.501 12.8v5.192l-4.497-2.59v-5.165l.009-.018 4.488 2.581z"/><path d="M13.716 7.246l-.07-.028c.012 0 .026.009.038.013s.021.01.032.015z" fill="#fff"/><path d="M12.184.508v7.38l-.1.06-3.29 1.9a.407.407 0 00-.2.26v.02a.355.355 0 00-.02.1v4.68H.514A.512.512 0 010 14.4V.508A.512.512 0 01.514 0h11.16a.512.512 0 01.51.508z" fill="url(#a)"/><g fill="#fff"><path d="M1.543 2.605H2.9a.254.254 0 01.254.254v.992a.254.254 0 01-.254.254H1.543a.255.255 0 01-.255-.254v-.992a.255.255 0 01.255-.254zM1.3 5.615v.992a.255.255 0 00.255.254h1.363a.254.254 0 00.254-.254v-.992a.254.254 0 00-.254-.254H1.55a.255.255 0 00-.25.254z" opacity=".8"/><path d="M4.684 2.605h5.924a.254.254 0 01.254.254v.992a.254.254 0 01-.254.254H4.684a.255.255 0 01-.255-.254v-.992a.255.255 0 01.255-.254zm-.255 3.01v.992a.255.255 0 00.255.254h5.957a.255.255 0 00.255-.254v-.992a.255.255 0 00-.255-.254H4.684a.255.255 0 00-.255.254z"/></g><path d="M13.716 7.246l-.07-.028c.012 0 .026.009.038.013s.021.01.032.015z" fill="#fff"/><path d="M16.39 9.279l-4.375 2.665-.005.846a.064.064 0 01-.066.063.079.079 0 01-.049-.022l-.581-.693a.067.067 0 00-.062-.021l-.541.114a.06.06 0 01-.076-.048.017.017 0 010-.014V11.15l4.385-2.664h.005z" fill="#fff" opacity=".5"/></svg>