<svg xmlns="http://www.w3.org/2000/svg" width="18" height="18" viewBox="0 0 18 18"><defs><linearGradient id="a" x1="8.765" y1="15.265" x2="8.765" y2="2.901" gradientUnits="userSpaceOnUse"><stop offset="0" stop-color="#5ea0ef"/><stop offset="1" stop-color="#0078d4"/></linearGradient></defs><path d="M.59 4.891a.563.563 0 01-.563-.563V.563A.563.563 0 01.59 0h3.525a.563.563 0 010 1.126H1.153v3.2a.563.563 0 01-.563.565zm17.383-.563V.563A.564.564 0 0017.41 0h-3.525a.563.563 0 100 1.126h2.962v3.2a.563.563 0 001.126 0zM4.678 17.437a.563.563 0 00-.563-.563H1.153v-3.2a.563.563 0 00-1.126 0v3.765A.563.563 0 00.59 18h3.525a.563.563 0 00.563-.563zm13.295 0v-3.765a.563.563 0 00-1.126 0v3.2h-2.962a.563.563 0 000 1.126h3.525a.564.564 0 00.563-.561z" fill="#50e6ff"/><circle cx="8.765" cy="8.946" r="7.154" fill="#0078d4"/><circle cx="8.765" cy="9.083" r="6.182" fill="url(#a)"/><circle cx="8.765" cy="8.98" r="5.047" fill="#5ea0ef"/><circle cx="8.765" cy="9.014" r="3.355" fill="#005ba1"/><circle cx="7.661" cy="7.778" r="1.008" fill="#fff"/><circle cx="8.765" cy="9.048" r=".447" fill="#fff"/></svg>