<svg xmlns="http://www.w3.org/2000/svg" width="18" height="18" viewBox="0 0 18 18"><path d="M16.814 13.026a.7.7 0 01-.7.709H11.28a.7.7 0 01-.709-.7V5.081a.7.7 0 01.7-.709h4.81a.7.7 0 01.71.694v7.96z" fill="#59b4d9"/><path d="M11.706 5.79h1.7v1.987h-1.7zm2.27 0h1.7v1.987h-1.7zm-2.27 3.122h1.7V10.9h-1.7zm2.27 0h1.7V10.9h-1.7z" fill="#fff"/><path d="M7.429 13.026a.7.7 0 01-.7.709H1.9a.7.7 0 01-.71-.694v-7.96a.7.7 0 01.7-.709h4.801a.7.7 0 01.71.694v.015" fill="#0072c6"/><path d="M2.321 5.79h1.7v1.987h-1.7zm2.27 0h1.7v1.987h-1.7zm-2.27 3.122h1.7V10.9h-1.7zm2.27 0h1.7V10.9h-1.7z" fill="#59b4d9"/><path d="M9.143 17.5a3.519 3.519 0 003.493-3.185h-1.047a2.456 2.456 0 01-2.428 2.154 2.36 2.36 0 01-1.895-.941L8.419 14.3H5.5v3.11l1.054-1.122A3.368 3.368 0 009.143 17.5zM8.989 1.531a2.355 2.355 0 011.893.943L9.73 3.7h2.924V.589L11.6 1.71A3.372 3.372 0 009.006.5a3.517 3.517 0 00-3.493 3.2h1.045a2.456 2.456 0 012.431-2.169z" fill="#ff8c00"/></svg>