<svg xmlns="http://www.w3.org/2000/svg" width="18" height="18" viewBox="0 0 18 18"><defs><linearGradient id="a" x1="3.397" y1="2.087" x2="3.397" y2="10.659" gradientUnits="userSpaceOnUse"><stop offset=".167" stop-color="#50e6ff"/><stop offset="1" stop-color="#32bedd"/></linearGradient><linearGradient id="b" x1="-1258.471" y1="827.868" x2="-1258.471" y2="834.423" gradientTransform="rotate(180 -626.176 422.808)" gradientUnits="userSpaceOnUse"><stop offset="0" stop-color="#32bedd"/><stop offset=".826" stop-color="#50e6ff"/></linearGradient><linearGradient id="c" x1="11.505" y1=".126" x2="11.505" y2="6.41" gradientUnits="userSpaceOnUse"><stop offset=".167" stop-color="#50e6ff"/><stop offset="1" stop-color="#32bedd"/></linearGradient></defs><path d="M15.712 4.536v3.1a.136.136 0 01-.205.118 2.959 2.959 0 00-1.485-.4h-.078a2.86 2.86 0 00-.293.015.136.136 0 01-.147-.137V3.091a.382.382 0 01.62-.3.148.148 0 01.02.019L15.6 4.266a.333.333 0 01.025.028.361.361 0 01.052.083.375.375 0 01.035.159zM4.668 2.162H7.4a.273.273 0 01.193.467l-1.7 1.7a.137.137 0 01-.1.04H3.222a.381.381 0 01-.269-.65L4.4 2.274a.382.382 0 01.268-.112z" fill="#0078d4"/><path d="M4.51 2.162v5.016a.154.154 0 00.154.154h1.717a.147.147 0 01.118.049.153.153 0 01-.006.217L3.545 10.53a.153.153 0 01-.209 0L.361 7.6a.164.164 0 11.112-.31h1.705a.14.14 0 00.122-.154V4.514a.347.347 0 01.1-.245z" fill="url(#a)"/><path d="M2.294 13.206v-2.732a.274.274 0 01.468-.193l1.7 1.7a.133.133 0 01.04.1v2.574a.381.381 0 01-.65.269l-1.446-1.448a.386.386 0 01-.112-.27z" fill="#0078d4"/><path d="M2.294 13.364h4.254a.154.154 0 00.152-.154v-1.716a.151.151 0 01.049-.119.153.153 0 01.217.006L9.9 14.329a.153.153 0 010 .209l-2.932 2.976a.164.164 0 01-.308-.114v-1.7a.139.139 0 00-.153-.124H4.646a.346.346 0 01-.245-.1z" fill="url(#b)"/><path d="M15.71 4.379h-5.047a.143.143 0 00-.075.041.146.146 0 00-.048.109v1.72a.146.146 0 01-.049.119.137.137 0 01-.023.019.154.154 0 01-.192-.026L7.342 3.414a.154.154 0 010-.21L10.275.229s.1-.128.209-.1c.087.023.1.119.1.21v1.7a.162.162 0 00.015.05.134.134 0 00.136.074h2.624a.332.332 0 01.1.015l.033.011a.4.4 0 01.111.075l2.021 2.022z" fill="url(#c)"/><path d="M17.619 12.58h-.006a.231.231 0 00-.039-.031.239.239 0 00-.052-.029.151.151 0 00-.035-.014.139.139 0 00-.033-.01h-.612v-1.71a3.217 3.217 0 00-.82-2.161 2.725 2.725 0 00-4.079 0 3.158 3.158 0 00-.821 2.161v1.694h-.468l-.038.006a.4.4 0 00-.126.045l-.027.017a.274.274 0 00-.035.027.109.109 0 00-.019.018l-.019.021a.5.5 0 00-.038.052.3.3 0 00-.029.06.186.186 0 00-.01.031.167.167 0 00-.008.032c0 .012-.005.023-.006.035v4.408a.374.374 0 00.034.149.138.138 0 00.014.03.412.412 0 00.107.124h.007a.4.4 0 00.221.073h6.691a.373.373 0 00.231-.082.383.383 0 00.15-.3v-4.365a.384.384 0 00-.135-.281zm-5.174-1.822a1.743 1.743 0 01.477-1.184 1.368 1.368 0 011.93-.147 1.275 1.275 0 01.148.147 1.722 1.722 0 01.179.238 1.708 1.708 0 01.24.447 1.686 1.686 0 01.091.5v1.722h-3.065z" fill="#ffbd02"/><path d="M17.747 12.861v4.373a.383.383 0 01-.15.3l-3.565-2.468h-.007l-3.588-2.483a.37.37 0 01.176-.087l.038-.006h6.8a.139.139 0 01.033.01.151.151 0 01.035.014.239.239 0 01.052.029.231.231 0 01.039.031h.006a.384.384 0 01.131.287z" fill="#ffe452" opacity=".4"/><path d="M17.613 12.576h-.007l-3.58 2.48h-.007l-3.571 2.473h-.006a.372.372 0 01-.115-.128.136.136 0 01-.013-.03.38.38 0 01-.021-.121v-4.437c0-.013 0-.023.006-.035a.167.167 0 01.008-.032.186.186 0 01.01-.031.3.3 0 01.029-.06.5.5 0 01.038-.052l.016-.003a.109.109 0 01.019-.018.274.274 0 01.035-.027l.027-.017a.33.33 0 01.112-.045l.038-.006h6.813a.139.139 0 01.033.01.151.151 0 01.035.014.239.239 0 01.052.029.231.231 0 01.049.036z" fill="#ffe452" opacity=".4"/></svg>