<svg xmlns="http://www.w3.org/2000/svg" width="18" height="18" viewBox="0 0 18 18"><defs><linearGradient id="a" x1="9.024" y1="2.162" x2="8.899" y2="19.749" gradientUnits="userSpaceOnUse"><stop offset="0" stop-color="#50e6ff"/><stop offset="1" stop-color="#32bedd"/></linearGradient><linearGradient id="b" x1="-607.938" y1="-219.555" x2="-607.938" y2="-208.054" gradientTransform="matrix(1 0 0 -1 617.126 -205.758)" gradientUnits="userSpaceOnUse"><stop offset=".001" stop-color="#a33a85"/><stop offset="1" stop-color="#ce74b6"/></linearGradient><linearGradient id="c" x1="2.017" y1=".148" x2="2.017" y2="2.953" gradientUnits="userSpaceOnUse"><stop offset="0" stop-color="#50e6ff"/><stop offset="1" stop-color="#32bedd"/></linearGradient><linearGradient id="d" x1="1.402" y1="15.047" x2="1.402" y2="17.852" gradientUnits="userSpaceOnUse"><stop offset="0" stop-color="#50e6ff"/><stop offset="1" stop-color="#32bedd"/></linearGradient><linearGradient id="e" x1="16.598" y1="14.597" x2="16.598" y2="17.402" gradientUnits="userSpaceOnUse"><stop offset="0" stop-color="#50e6ff"/><stop offset="1" stop-color="#32bedd"/></linearGradient></defs><path fill="url(#a)" d="M16.848 15.585L2.416 1.152l-.797.796L8.39 8.72l-7.384 7.33.793.799 7.388-7.333 6.865 6.865.796-.796z"/><path d="M17.291 10.195a3.639 3.639 0 00-3.156-3.501 4.591 4.591 0 00-4.729-4.396 4.706 4.706 0 00-4.499 3.076 4.338 4.338 0 00-3.822 4.178 4.408 4.408 0 004.573 4.236h7.801a.58.58 0 00.195 0 3.685 3.685 0 003.639-3.593z" fill="url(#b)"/><path d="M1.568 2.878a1.403 1.403 0 00.9-2.656 1.404 1.404 0 00-.901 2.657z" fill="url(#c)"/><path d="M.953 17.778a1.403 1.403 0 00.9-2.656 1.403 1.403 0 00-.9 2.656z" fill="url(#d)"/><path d="M16.148 17.328a1.403 1.403 0 00.9-2.656 1.403 1.403 0 00-.9 2.656z" fill="url(#e)"/></svg>