<svg xmlns="http://www.w3.org/2000/svg" width="18" height="18" viewBox="0 0 18 18"><defs><linearGradient id="a" x1="-313.941" y1="642.516" x2="-313.941" y2="653.768" gradientTransform="matrix(1 0 0 -1 324 660.516)" gradientUnits="userSpaceOnUse"><stop offset="0" stop-color="#32bedd"/><stop offset="1" stop-color="#50e6ff"/></linearGradient></defs><path d="M8.686 9.038l.015.005-.015-.005zm0 1.588l.015.005-.015-.005zm0-6.353l.015.005-.015-.005zm0 1.588l.015.005-.015-.005z" fill="none"/><path d="M18 14.474a3.577 3.577 0 00-3.098-3.428 4.492 4.492 0 00-4.631-4.258 4.598 4.598 0 00-4.407 2.959 4.258 4.258 0 00-3.747 4.098 4.322 4.322 0 004.471 4.152h7.867A3.609 3.609 0 0018 14.473z" fill="url(#a)"/><g fill="#fff"><path d="M7.642 16.001l-1.947-1.956a.087.087 0 01-.017-.122c.005-.007.011-.012.017-.017l1.947-1.947a.103.103 0 01.147.008.11.11 0 01.027.062v1.147a.095.095 0 00.092.099c.01 0 .02 0 .03-.004h2.521a.096.096 0 01.087.104v1.209a.096.096 0 01-.096.096H7.938a.095.095 0 00-.096.095v1.156c.02.055-.01.116-.065.135s-.116-.01-.135-.065z"/><path d="M12.44 11.959l2.016 2.016L12.44 16a.096.096 0 01-.165-.07v-1.147a.104.104 0 00-.104-.104H9.564v-1.408h2.607a.104.104 0 00.113-.095v-1.148a.095.095 0 01.1-.091c.021 0 .041.009.057.022z"/></g><path d="M1.414 13.873v-.049a4.963 4.963 0 01.472-1.964c-1.148-.245-1.869-.599-1.869-.992v2.697c0 .344.551.657 1.455.894a5.122 5.122 0 01-.058-.586z" fill="#005ba1"/><path d="M2.711 10.627c.39-.427.851-.775 1.355-1.041-2.342.166-4.049.677-4.049 1.282 0 .393.721.747 1.868.992.211-.447.487-.864.826-1.234z" fill="#198ab3"/><path d="M11.394 6.174v-.071a.404.404 0 01-.007.069l.007.002zM5.369 9.115c.31-.653.75-1.224 1.279-1.691-.307.012-.621.019-.943.019-3.141 0-5.688-.6-5.688-1.34v2.698c0 .544 1.381 1.012 3.362 1.222a4.96 4.96 0 011.991-.907z" fill="#0078d4"/><path d="M6.649 7.423a5.316 5.316 0 013.619-1.34l.15-.002c.331 0 .654.031.968.091a.323.323 0 00.007-.069c0-.739-2.547-1.339-5.688-1.339s-5.688.6-5.688 1.339 2.547 1.339 5.688 1.339c.322 0 .637-.007.944-.019z" fill="#32bedd"/><path d="M5.688 2.679c-3.106 0-5.63-.587-5.683-1.315H0v2.672c0 .74 2.547 1.34 5.688 1.34 3.076 0 5.58-.575 5.683-1.293V1.339c.005.739-2.542 1.34-5.683 1.34z" fill="#5ea0ef"/><ellipse cx="5.688" cy="1.339" rx="5.688" ry="1.339" fill="#9cebff"/></svg>