<svg xmlns="http://www.w3.org/2000/svg" width="18" height="18" viewBox="0 0 18 18"><defs><linearGradient id="a" x1="2.447" y1="9.339" x2="15.27" y2="9.339" gradientTransform="matrix(1 0 0 -1 .143 19.5)" gradientUnits="userSpaceOnUse"><stop offset="0" stop-color="#005ba1"/><stop offset=".07" stop-color="#0060a9"/><stop offset=".36" stop-color="#0071c8"/><stop offset=".52" stop-color="#0078d4"/><stop offset=".64" stop-color="#0074cd"/><stop offset=".82" stop-color="#006abb"/><stop offset="1" stop-color="#005ba1"/></linearGradient></defs><path d="M9 5.14c-3.54 0-6.41-1-6.41-2.32v12.36c0 1.27 2.82 2.3 6.32 2.32H9c3.54 0 6.41-1 6.41-2.32V2.82c0 1.28-2.87 2.32-6.41 2.32z" fill="url(#a)"/><path d="M15.41 2.82c0 1.28-2.87 2.32-6.41 2.32s-6.41-1-6.41-2.32S5.46.5 9 .5s6.41 1 6.41 2.32" fill="#e8e8e8"/><path d="M13.91 2.63c0 .82-2.2 1.48-4.91 1.48s-4.92-.66-4.92-1.47S6.28 1.16 9 1.16s4.91.66 4.91 1.47" fill="#50e6ff"/><path d="M9 3a11.649 11.649 0 00-3.9.57 11.535 11.535 0 003.9.54 11.471 11.471 0 003.89-.58A11.949 11.949 0 009 3z" fill="#198ab3"/><path d="M12.154 8.991c0 .083-.027.24-.054.422a5.047 5.047 0 00-.074.63c0 .121.028.306.048.468.018.137.034.266.039.355a1.569 1.569 0 01-.258.863 1.51 1.51 0 01-.034.07l.1.12A10.551 10.551 0 0013 9.53c.288-.95.322-1.634.092-1.925a2.638 2.638 0 00-2.724-.865 3.536 3.536 0 01.926.678 2.269 2.269 0 01.86 1.573zm-.314.083a1.165 1.165 0 00-.8.087c-.3.185-.206.551-.052 1.011a6.763 6.763 0 00.349.855l.092.166c.049.087.086.154.11.2s.053.087.081.129a1.286 1.286 0 00.186-.646c0-.078-.02-.2-.037-.333a5.62 5.62 0 01-.05-.5 4.935 4.935 0 01.077-.686c.018-.096.034-.204.044-.283zm-.31.406a.323.323 0 01-.183.1h-.035a.274.274 0 01-.248-.158v-.008c-.011-.078.118-.138.252-.157a.517.517 0 01.184 0c.058.014.094.042.1.078a.209.209 0 01-.07.145zm-4.777.9c.008-.074.015-.138.015-.171 0-.057 0-.116-.006-.177a5.3 5.3 0 01.03-.956 5.273 5.273 0 01.242-1.123 2.465 2.465 0 01.576-.9 4.853 4.853 0 00-1.373-.243 1.919 1.919 0 00-1.116.3 1.973 1.973 0 00-.644 1.831 12.49 12.49 0 00.494 2.246c.355 1.15.743 1.849 1.092 1.963.156.052.312-.018.477-.213.285-.342.551-.636.709-.8a1.869 1.869 0 01-.496-1.759zm.273.4a1.844 1.844 0 00.057.556 1.24 1.24 0 00.268.446 1.042 1.042 0 00.356.249 1.069 1.069 0 00.4.082 5.847 5.847 0 01.227-.6 5.041 5.041 0 00.219-.589 6.279 6.279 0 00.028-1.113c-.015-.1-.033-.2-.057-.307a.461.461 0 00-.124-.272.308.308 0 00-.027-.024.565.565 0 00-.29-.1 1.238 1.238 0 00-.244 0 1.635 1.635 0 00-.488.145 1.58 1.58 0 00-.279.177v.114c.012.2.016.406.01.609v.047a1.215 1.215 0 01-.01.156 6.407 6.407 0 01-.034.392zM7.7 9.433a.089.089 0 01.027-.033.415.415 0 01.285-.04.549.549 0 01.193.06c.091.049.1.105.091.134v.015a.311.311 0 01-.283.181h-.04c-.166-.024-.3-.191-.286-.279a.1.1 0 01.013-.038zm.749 2.986a.241.241 0 00-.136.068c-.057.064-.1.12-.138.166-.171.216-.243.284-.747.386a.582.582 0 00-.258.093.58.58 0 00.245.12 1.185 1.185 0 00.724 0 1.171 1.171 0 00.361-.192.6.6 0 00.2-.311.345.345 0 00-.1-.274.183.183 0 00-.153-.056zm4.7 0a1.725 1.725 0 01-1.156-.027.278.278 0 00-.143.006.293.293 0 00-.166.137.95.95 0 00-.036.317 1.893 1.893 0 001.125-.1 1.36 1.36 0 00.486-.344.677.677 0 00-.116.009zm-2.449-2.15c-.139-.415-.347-1.042.182-1.368a1.383 1.383 0 01.91-.146 3.219 3.219 0 00-.694-1.1 2.357 2.357 0 00-.1-.1l-.065-.059-.008-.008-.068-.06-.046-.037-.027-.023A2.752 2.752 0 009.1 6.787a1.77 1.77 0 00-1.028.264 2.138 2.138 0 00-.751 1 4.916 4.916 0 00-.214.977 1.694 1.694 0 011-.232.837.837 0 01.775.914 7.01 7.01 0 01-.033 1.275 4.915 4.915 0 01-.234.636 7.852 7.852 0 00-.19.489.478.478 0 01.392.143.646.646 0 01.189.523c-.005.08-.008.161-.017.242a6.554 6.554 0 00.237 2.451.582.582 0 00.251.216.671.671 0 00.318.1 1.351 1.351 0 00.993-.337 1.015 1.015 0 00.292-.664c.079-.456.23-1.713.25-1.974a.72.72 0 01.094-.449.6.6 0 01.273-.237 5.338 5.338 0 01-.997-1.855z" fill="#fff"/><ellipse cx="14.592" cy="14.873" rx="3.089" ry="2.241" transform="rotate(-40.18 14.581 14.873)" fill="#76bc2d"/><path d="M13.844 15.841a1.084 1.084 0 01.044-1.833c1.159-.83 1.23.365.3.52 0 .43 1.208.379 1.728-.582.584-1.081-1.132-1.766-2.619-.127-.951 1.049-.975 2.484-.134 2.8a2.538 2.538 0 003.255-2.655c-.798 1.873-1.939 2.144-2.574 1.877z" fill="#fff"/></svg>