<svg xmlns="http://www.w3.org/2000/svg" width="18" height="18" viewBox="0 0 18 18"><defs><linearGradient id="a" x1="9.016" y1="3.116" x2="9.016" y2="7.162" gradientUnits="userSpaceOnUse"><stop offset="0" stop-color="#a3a3a3"/><stop offset="1" stop-color="#999"/></linearGradient></defs><path fill="#9cebff" d="M4.847 10.497l4.136-2.402 4.129 2.402L8.983 12.9l-4.136-2.403z"/><path fill="#32bedd" d="M13.126 10.487v4.789l-4.149 2.41v-4.797l4.149-2.402z"/><path fill="#50e6ff" d="M8.977 12.897v4.789l-4.141-2.41v-4.789l4.141 2.41zM4 16.149l-.295.3a.2.2 0 01-.285 0l-3.3-3.294a.4.4 0 010-.571l.3-.295L4 15.865a.2.2 0 010 .28z"/><path d="M3.642 9.337l.33.33a.2.2 0 010 .284L.448 13.486l-.33-.327a.406.406 0 010-.572l3.24-3.25a.2.2 0 01.284 0z" fill="#1490df"/><path d="M14.023 16.13a.2.2 0 010-.278l3.564-3.554.3.3a.4.4 0 010 .568l-3.287 3.26a.2.2 0 01-.279 0z" fill="#50e6ff"/><path d="M14.66 9.362l3.223 3.231a.4.4 0 010 .565l-.328.328-3.5-3.513a.206.206 0 010-.286l.327-.325a.2.2 0 01.278 0z" fill="#1490df"/><path d="M8.524 7.317a.916.916 0 01.921 0l.132.077V2.186H8.455v5.171z" fill="url(#a)"/><path d="M10.663 1.961A1.647 1.647 0 119.016.314a1.648 1.648 0 011.647 1.647z" fill="#1490df"/>​</svg>