<svg xmlns="http://www.w3.org/2000/svg" width="18" height="18" viewBox="0 0 18 18"><defs><linearGradient id="a" x1="9" y1="17.329" x2="9" y2=".671" gradientUnits="userSpaceOnUse"><stop offset="0" stop-color="#005ba1"/><stop offset=".15" stop-color="#0063af"/><stop offset=".439" stop-color="#006fc3"/><stop offset=".724" stop-color="#0076d0"/><stop offset="1" stop-color="#0078d4"/></linearGradient></defs><circle cx="9" cy="9" r="8.329" fill="url(#a)"/><path d="M6.6 4.138l2.3-2.3a.273.273 0 01.387 0l2.3 2.3a.122.122 0 01-.086.209h-1.415a.122.122 0 00-.122.123v2.873a.1.1 0 01-.1.1H8.321a.1.1 0 01-.1-.1V4.47a.122.122 0 00-.121-.123H6.687a.123.123 0 01-.087-.209zm4.986 9.724l-2.3 2.3a.273.273 0 01-.387 0l-2.3-2.3a.123.123 0 01.087-.209H8.1a.122.122 0 00.122-.123v-2.873a.1.1 0 01.1-.1h1.544a.1.1 0 01.1.1v2.873a.122.122 0 00.122.123H11.5a.122.122 0 01.086.209z" fill="#9cebff"/><path d="M12.884 11.513l-2.3-2.3a.273.273 0 010-.387l2.3-2.3a.122.122 0 01.209.086v1.415a.123.123 0 00.122.123h2.874a.1.1 0 01.1.1v1.542a.1.1 0 01-.1.1h-2.874a.122.122 0 00-.122.122v1.414a.123.123 0 01-.209.085zM5.116 6.527l2.3 2.3a.273.273 0 010 .387l-2.3 2.3a.123.123 0 01-.209-.087v-1.415a.122.122 0 00-.122-.122H1.911a.1.1 0 01-.1-.1V8.247a.1.1 0 01.1-.1h2.874a.123.123 0 00.122-.123V6.613a.122.122 0 01.209-.086z" fill="#f2f2f2"/></svg>