<svg xmlns="http://www.w3.org/2000/svg" width="420.052" height="139.493" viewBox="0 0 420.052 139.493"><g data-name="Nymbl POS-R"><g data-name="Group 48" fill="#ffff"><g data-name="Group 49"><g data-name="Ellipse 3" transform="translate(395.053)" stroke="#333" stroke-width="1.5"><circle cx="12.5" cy="12.5" r="12.5" stroke="none"/><circle cx="12.5" cy="12.5" r="11.75" fill="none"/></g><text transform="translate(403.052 17.001)" font-size="14" font-family="OktaNeue-SemiBold, Okta Neue" font-weight="600"><tspan x="0" y="0">R</tspan></text></g><g data-name="Group 51"><g data-name="Group 39"><path data-name="Path 1217" d="M172.008 103.02h-14.566V73.546q0-6.831-2.411-10.029t-7.675-3.2q-5.267 0-7.675 3.2t-2.411 10.029v29.474H122.7V73.546q0-13.669 6.724-20.562t17.928-6.891q11.2 0 17.928 6.891t6.724 20.562v29.474z"/><path data-name="Path 1218" d="M185.882 134.567a28.82 28.82 0 01-9.359-13.334h16.249a13.1 13.1 0 003.419 3.024 9.244 9.244 0 004.651 1.008q5.043 0 7.509-2.411a8.749 8.749 0 002.463-6.558v-.329a25.579 25.579 0 01-9.972 2.016q-11.21 0-17.928-6.891T176.19 90.53V60.317h14.566v30.21q0 6.838 2.411 10.029t7.675 3.2q5.267 0 7.675-3.2t2.411-10.029v-30.21h14.566v53.963a26.036 26.036 0 01-3.2 12.83 23.629 23.629 0 01-8.8 9.078 24.434 24.434 0 01-12.664 3.305 23.555 23.555 0 01-14.948-4.926z"/><path data-name="Path 1219" d="M309.83 53.041q6.95 6.95 6.948 20.505v29.474h-14.567V73.546q0-6.726-2.577-9.972t-8.07-3.248q-5.378 0-8.013 3.248t-2.634 9.972v29.474h-14.566V73.546q0-6.726-2.577-9.972t-8.07-3.248q-5.378 0-8.013 3.248t-2.634 9.972v29.474h-14.566V73.546q0-13.558 6.948-20.505t18.265-6.948a26.143 26.143 0 0110.253 1.959 19.069 19.069 0 017.675 5.773 19.147 19.147 0 017.675-5.773 26.144 26.144 0 0110.253-1.959q11.322 0 18.27 6.948z"/><path data-name="Path 1220" d="M320.551 24.579h14.68v25.774a23.574 23.574 0 0114.119-4.256 28.134 28.134 0 0114.456 3.866 29.1 29.1 0 0110.533 10.533 28.142 28.142 0 013.923 14.513 28.1 28.1 0 01-3.923 14.513 29.1 29.1 0 01-10.533 10.537 28.133 28.133 0 01-14.456 3.866 28.133 28.133 0 01-14.456-3.866 28.612 28.612 0 01-10.476-10.533 28.431 28.431 0 01-3.867-14.517zm18.6 39.95a14.313 14.313 0 00-4.147 10.476 14.306 14.306 0 004.147 10.476 13.9 13.9 0 0010.31 4.2 13.533 13.533 0 0010.2-4.2 14.542 14.542 0 004.033-10.476 14.542 14.542 0 00-4.033-10.476 13.533 13.533 0 00-10.2-4.2 13.894 13.894 0 00-10.31 4.2z"/><path data-name="Path 1221" d="M381.532 103.019v-78.44h14.566v78.44z"/><path data-name="Path 1222" d="M13.226 7.791a13.265 13.265 0 0113.225 13.225V90.01a13.265 13.265 0 01-13.225 13.225A13.266 13.266 0 01.001 90.01V21.016A13.266 13.266 0 0113.226 7.791z"/><path data-name="Path 1223" d="M43.857 36.024a13.265 13.265 0 0113.224 13.225V90.01a13.265 13.265 0 01-13.224 13.225A13.265 13.265 0 0130.632 90.01V49.249a13.262 13.262 0 0113.225-13.225z"/><path data-name="Path 1224" d="M74.488 44.09a13.265 13.265 0 0113.225 13.225v32.7a13.265 13.265 0 01-13.225 13.225 13.265 13.265 0 01-13.225-13.225v-32.7A13.265 13.265 0 0174.488 44.09z"/></g><text transform="translate(293.966 130.111)" font-size="30" font-family="ConthraxSb-Regular, Conthrax"><tspan x="0" y="0">POS</tspan></text></g></g></g></svg>