<svg xmlns="http://www.w3.org/2000/svg" width="419.892" height="139.971" viewBox="0 0 419.892 139.971"><g data-name="Nymbl Pay -R"><g data-name="Pay Logo-01"><path data-name="Path 996" d="M170.514 103.711h-14.443V74.492q0-6.775-2.386-9.943t-7.607-3.168q-5.228 0-7.613 3.168t-2.386 9.943v29.219h-14.442V74.492q0-13.549 6.664-20.385t17.772-6.83q11.11 0 17.772 6.83t6.669 20.385z" fill="#fff"/><path data-name="Path 997" d="M184.269 134.988a28.587 28.587 0 01-9.277-13.216h16.109a12.956 12.956 0 003.39 3 9.162 9.162 0 004.611 1q5 0 7.441-2.385a8.668 8.668 0 002.447-6.5v-.341a25.4 25.4 0 01-9.887 2q-11.112 0-17.772-6.83t-6.665-20.386V61.386h14.443v29.946q0 6.775 2.386 9.943t7.612 3.168q5.219 0 7.607-3.168t2.386-9.943V61.386h14.443v53.5a25.779 25.779 0 01-3.168 12.717 23.4 23.4 0 01-8.723 9 24.222 24.222 0 01-12.55 3.28 23.47 23.47 0 01-14.833-4.895z" fill="#fff"/><path data-name="Path 998" d="M307.144 54.166q6.883 6.891 6.885 20.33v29.219h-14.443V74.492q0-6.667-2.558-9.887t-8-3.224q-5.336 0-7.945 3.224t-2.608 9.887v29.219h-14.443V74.492q0-6.667-2.558-9.887t-8-3.224q-5.336 0-7.946 3.224t-2.614 9.887v29.219h-14.438V74.492q0-13.441 6.886-20.33t18.1-6.886a25.97 25.97 0 0110.165 1.942 18.907 18.907 0 017.607 5.72 18.913 18.913 0 017.607-5.72 25.944 25.944 0 0110.16-1.942q11.271 0 18.143 6.89z" fill="#fff"/><path data-name="Path 999" d="M317.775 25.947h14.554V51.5a23.386 23.386 0 0114-4.223 27.877 27.877 0 0114.332 3.834 28.67 28.67 0 11-42.884 24.829zm18.438 39.6a15.174 15.174 0 000 20.774 13.772 13.772 0 0010.221 4.167 13.411 13.411 0 0010.109-4.167 15.485 15.485 0 000-20.774 13.411 13.411 0 00-10.109-4.167 13.794 13.794 0 00-10.221 4.167z" fill="#fff"/><path data-name="Path 1000" d="M378.226 103.71V25.947h14.443v77.763z" fill="#fff"/><path data-name="Path 1001" d="M13.111 9.307a13.147 13.147 0 0113.112 13.111v67.8a13.147 13.147 0 01-13.112 13.109A13.147 13.147 0 01.001 90.215v-67.8a13.146 13.146 0 0113.11-13.108z" fill="#20d3b5"/><path data-name="Path 1002" d="M43.474 37.117a13.147 13.147 0 0113.112 13.111v39.989a13.147 13.147 0 01-13.112 13.111 13.147 13.147 0 01-13.111-13.111V50.228a13.151 13.151 0 0113.111-13.111z" fill="#20d3b5"/><path data-name="Path 1003" d="M73.841 45.062a13.147 13.147 0 0113.112 13.111v32.043a13.147 13.147 0 01-13.112 13.111A13.147 13.147 0 0160.73 90.216V58.173a13.147 13.147 0 0113.111-13.111z" fill="#20d3b5"/><path data-name="Path 1004" d="M331.307 118.609q3.5 0 5.027 1.587a6.531 6.531 0 011.526 4.694v2.249a6.54 6.54 0 01-1.526 4.694c-1.016 1.054-2.692 1.587-5.027 1.587H318.69v5.854a.592.592 0 01-.5.671.605.605 0 01-.17 0h-3.291c-.466 0-.7-.222-.7-.671V119.53a.81.81 0 01.687-.915.792.792 0 01.228 0h16.357zM318.695 129.4h11.669a2.922 2.922 0 002.191-.672 2.861 2.861 0 00.639-2.042v-1.16a2.856 2.856 0 00-.639-2.042 2.939 2.939 0 00-2.191-.672h-11.275c-.266 0-.394.122-.394.366z" fill="#fff"/><path data-name="Path 1005" d="M359.195 118.609a15.283 15.283 0 013.945.444 6.1 6.1 0 012.652 1.4 5.457 5.457 0 011.476 2.48 13.1 13.1 0 01.455 3.718v5.238a13.478 13.478 0 01-.455 3.734 5.5 5.5 0 01-1.476 2.5 6.022 6.022 0 01-2.652 1.387 15.872 15.872 0 01-3.945.427h-9.416a15.645 15.645 0 01-3.928-.427 6.018 6.018 0 01-2.636-1.387 5.586 5.586 0 01-1.493-2.5 12.8 12.8 0 01-.472-3.734v-5.238a12.657 12.657 0 01.472-3.718 5.581 5.581 0 011.493-2.48 6.154 6.154 0 012.636-1.4 15.067 15.067 0 013.928-.444zm-13.294 12.95a8.457 8.457 0 00.2 2 2.758 2.758 0 00.655 1.282 2.541 2.541 0 001.231.672 8.059 8.059 0 001.964.2h9.05a8.062 8.062 0 001.965-.2 2.524 2.524 0 001.232-.672 2.758 2.758 0 00.655-1.282 8.457 8.457 0 00.2-2v-4.572a8.457 8.457 0 00-.2-2 2.758 2.758 0 00-.655-1.282 2.547 2.547 0 00-1.232-.671 8.063 8.063 0 00-1.965-.2h-9.05a8.06 8.06 0 00-1.964.2 2.544 2.544 0 00-1.231.671 2.758 2.758 0 00-.655 1.282 8.457 8.457 0 00-.2 2z" fill="#fff"/><path data-name="Path 1006" d="M393.301 118.609a.594.594 0 01.672.672v2.9a.592.592 0 01-.5.671.612.612 0 01-.171 0h-15.277a1.511 1.511 0 00-1.248.455 1.942 1.942 0 00-.366 1.248v1.037c0 1.138.527 1.709 1.587 1.709h11.43a5.363 5.363 0 013.989 1.354 5.29 5.29 0 011.343 3.884v2.441a5 5 0 01-1.31 3.6 5.41 5.41 0 01-4.084 1.371H372.48c-.467 0-.7-.222-.7-.671v-2.9c0-.449.233-.672.7-.672h16a1.515 1.515 0 001.249-.455 1.943 1.943 0 00.366-1.248v-1.249c0-1.137-.527-1.7-1.587-1.7H377.08a5.415 5.415 0 01-3.995-1.354 5.29 5.29 0 01-1.343-3.884v-2.225a5 5 0 011.31-3.6 5.405 5.405 0 014.084-1.37h16.165z" fill="#fff"/></g><g data-name="Group 44"><g data-name="Ellipse 3" fill="none" transform="translate(.001)"><circle data-name="Ellipse 5" cx="12.5" cy="12.5" r="12.5" transform="translate(394.891)"/><circle data-name="Ellipse 6" cx="11.75" cy="11.75" r="11.75" transform="translate(395.641 .75)" stroke="#000" stroke-width="1.5"/></g><g data-name="Group 78"><path data-name="Path 1304" d="M411.277 17h-1.694l-1.891-3.71h-2.323V17h-1.526V7.2h4.032a3.354 3.354 0 012.3.826 2.816 2.816 0 01.937 2.226 2.905 2.905 0 01-.538 1.778 3 3 0 01-1.422 1.05zm-5.908-8.442v3.4h2.352a1.891 1.891 0 001.33-.462 1.591 1.591 0 00.5-1.232 1.614 1.614 0 00-.5-1.239 1.877 1.877 0 00-1.33-.469z" fill="#fff"/></g></g></g></svg>