<svg data-name="Group 4" xmlns="http://www.w3.org/2000/svg" width="274" height="85.823" viewBox="0 0 274 85.823"><defs><clipPath id="a"><path data-name="Rectangle 4" fill="none" d="M0 0h274v85.823H0z"/></clipPath></defs><g data-name="Group 1" clip-path="url(#a)" fill="#ff2a00"><path data-name="Path 1" d="M112.08 62.051h-9.492v-19.2q0-4.453-1.57-6.535t-5-2.081q-3.433 0-5 2.081t-1.569 6.535v19.2h-9.493v-19.2q0-8.908 4.381-13.4t11.683-4.49q7.3 0 11.683 4.49t4.381 13.4z"/><path data-name="Path 2" d="M121.118 82.61a18.759 18.759 0 01-6.1-8.689h10.587a8.573 8.573 0 002.228 1.971 6.01 6.01 0 003.03.658 6.757 6.757 0 004.892-1.57 5.705 5.705 0 001.606-4.272v-.219a16.668 16.668 0 01-6.5 1.314q-7.3 0-11.683-4.49t-4.381-13.4V34.231h9.499v19.683q0 4.454 1.57 6.535t5 2.081q3.431 0 5-2.081t1.57-6.535V34.231h9.493v35.163a16.977 16.977 0 01-2.081 8.36 15.4 15.4 0 01-5.731 5.917 15.937 15.937 0 01-8.25 2.154 15.4 15.4 0 01-9.748-3.213"/><path data-name="Path 3" d="M201.884 29.482q4.527 4.529 4.527 13.363v19.2h-9.494v-19.2q0-4.381-1.68-6.5t-5.258-2.118a6.318 6.318 0 00-5.22 2.118q-1.717 2.118-1.716 6.5v19.2h-9.493v-19.2q0-4.381-1.679-6.5t-5.254-2.114a6.319 6.319 0 00-5.221 2.118q-1.717 2.118-1.717 6.5v19.2h-9.492v-19.2q0-8.834 4.527-13.363t11.9-4.527a17.042 17.042 0 016.681 1.278 12.461 12.461 0 015 3.76 12.446 12.446 0 015-3.76 17.025 17.025 0 016.681-1.278q7.375 0 11.9 4.527"/><path data-name="Path 4" d="M208.866 10.941h9.565v16.792a15.37 15.37 0 019.2-2.775 18.333 18.333 0 019.419 2.519 18.962 18.962 0 016.864 6.864 18.775 18.775 0 010 18.912 18.949 18.949 0 01-6.864 6.863 18.869 18.869 0 01-18.838 0 18.845 18.845 0 01-9.346-16.32zm12.121 26.031a9.329 9.329 0 00-2.7 6.827 9.327 9.327 0 002.7 6.827 9.058 9.058 0 006.718 2.739 8.822 8.822 0 006.645-2.739 9.471 9.471 0 002.628-6.827 9.473 9.473 0 00-2.628-6.827 8.822 8.822 0 00-6.645-2.739 9.058 9.058 0 00-6.718 2.739"/><path data-name="Rectangle 3" d="M248.606 10.939h9.492v51.112h-9.492z"/><text transform="translate(265.245 9.247)" font-size="4" font-family="SegoeUI, Segoe UI"><tspan x="0" y="0" letter-spacing="-.017em">T</tspan><tspan y="0">M</tspan></text><path data-name="Path 5" d="M8.618 0a8.644 8.644 0 018.618 8.618v46.1A8.618 8.618 0 110 54.723V8.618A8.644 8.644 0 018.618 0"/><path data-name="Path 6" d="M28.576 18.735a8.644 8.644 0 018.618 8.618v27.37a8.618 8.618 0 01-17.236 0v-27.37a8.644 8.644 0 018.618-8.618"/><path data-name="Path 7" d="M48.535 24.09a8.644 8.644 0 018.621 8.618V54.72a8.618 8.618 0 11-17.236 0V32.708a8.644 8.644 0 018.618-8.618"/></g></svg>